<?xml version="1.0" encoding="utf-8"?>
<!-- Generator: Adobe Illustrator 27.2.0, SVG Export Plug-In . SVG Version: 6.00 Build 0)  -->
<svg version="1.1" id="レイヤー_1" xmlns="http://www.w3.org/2000/svg" xmlns:xlink="http://www.w3.org/1999/xlink" x="0px"
	 y="0px" viewBox="0 0 531.4 391" style="enable-background:new 0 0 531.4 391;" xml:space="preserve">
<style type="text/css">
	.st0{fill:#C8D7EC;}
	.st1{fill:none;stroke:#0C1937;stroke-linecap:round;stroke-linejoin:round;}
	.st2{fill:none;stroke:#0C1937;stroke-width:0.5;stroke-linecap:round;stroke-linejoin:round;}
	.st3{fill:#FFFFFF;stroke:#0C1937;stroke-width:1.25;stroke-linecap:round;stroke-linejoin:round;}
	.st4{fill:none;stroke:#0C1937;stroke-width:1.5;}
	.st5{fill:#0C1937;}
	.st6{fill:#233441;}
	.st7{fill:#364D64;}
	.st8{fill:#FFFFFF;stroke:#050C22;stroke-linecap:round;}
	.st9{fill:#050C22;}
	.st10{fill:none;stroke:#050C22;stroke-width:2;stroke-linecap:round;}
	.st11{fill:#FFFFFF;}
</style>
<g id="_1F_floor_SVG" transform="translate(0.5 40.289)">
	<rect id="長方形_105" x="384.7" y="0" class="st0" width="145.7" height="132.7"/>
	<path id="パス_1001" class="st0" d="M530.4,257.2h-78.3V198h34.6v-47.4h-33.6l-0.1,22.1l-11,0l-23.2-39.9h111.6V257.2z"/>
	<path id="パス_1002" class="st0" d="M147.5,222.6v-58.5h-27v20.1H99.2V202H68.3v-53.2H0.3v108.4h220.4v-34.6H147.5z"/>
	<path id="パス_1003" class="st1" d="M221.7,257.2H0V63.3L25.6,0.4h504.8v256.8H269.7"/>
	<path id="パス_1004" class="st1" d="M142.6,64V0.4H26.9L0,63.7L72.9,64"/>
	<line id="線_84" class="st1" x1="300.6" y1="132.8" x2="272.4" y2="132.8"/>
	<path id="パス_1005" class="st1" d="M231.4,133.2h-19.8V0.5h173.2v131.4h-40.8"/>
	<rect id="長方形_106" x="384.3" y="0.4" class="st1" width="145.7" height="132.7"/>
	<path id="パス_1006" class="st1" d="M26.8,133.5H0.3v-70h72.6v70H39.3"/>
	<path id="パス_1007" class="st1" d="M26.9,111.3H0.3V63.6h26.6v39.3"/>
	<path id="パス_1008" class="st1" d="M26.8,102.8V84.1h12.5"/>
	<line id="線_85" class="st1" x1="26.8" y1="133.5" x2="26.8" y2="111.3"/>
	<line id="線_86" class="st1" x1="39.3" y1="92.9" x2="39.3" y2="133.5"/>
	<path id="パス_1009" class="st1" d="M39.3,84.1H26.8V63.6h46v35.3H39.3v-5.9"/>
	<path id="パス_1010" class="st1" d="M411.7,165.3l-5.3-9.2h-56v-23h68.4l17.2,29.7v2.5L411.7,165.3z"/>
	<path id="パス_1011" class="st2" d="M417.9,165l-8.4-14.5h-53.6v-10.9h59.7l14.8,25.4L417.9,165z"/>
	<path id="パス_1012" class="st1" d="M147.5,222.6v-58.5h-27v20.1H99.2V202H68.3v-53.2H0.3v108.4h220.4v-34.6H147.5z"/>
	<rect id="長方形_107" x="220.6" y="219" class="st1" width="2.1" height="38.2"/>
	<rect id="長方形_108" x="268.6" y="219" class="st1" width="2.1" height="38.2"/>
	<path id="パス_1013" class="st1" d="M85.3,161.1h13.9V202H68.3v-40.9h4.5"/>
	<line id="線_87" class="st1" x1="72.9" y1="161.1" x2="72.9" y2="202"/>
	<g id="グループ_164" transform="translate(72.879 161.105)">
		<rect id="長方形_109" x="0" y="0" class="st2" width="11.8" height="26.1"/>
		<rect id="長方形_110" x="0" y="2.1" class="st2" width="11.8" height="2.2"/>
		<rect id="長方形_111" x="0" y="6.5" class="st2" width="11.8" height="2.2"/>
		<rect id="長方形_112" x="0" y="10.8" class="st2" width="11.8" height="2.2"/>
		<rect id="長方形_113" x="0" y="15.2" class="st2" width="11.8" height="2.2"/>
		<rect id="長方形_114" x="0" y="19.5" class="st2" width="11.8" height="2.2"/>
		<rect id="長方形_115" x="0" y="23.9" class="st2" width="11.8" height="2.2"/>
		<rect id="長方形_116" x="12.9" y="23.9" class="st2" width="11.8" height="2.2"/>
		<rect id="長方形_117" x="12.9" y="21.7" class="st2" width="11.8" height="2.2"/>
		<rect id="長方形_118" x="12.9" y="19.5" class="st2" width="11.8" height="2.2"/>
	</g>
	<g id="グループ_342" transform="translate(72.879 165.105)">
		<circle id="楕円形_89" class="st3" cx="5.9" cy="-0.5" r="3.7"/>
		<line id="線_182" class="st4" x1="3.4" y1="-0.5" x2="8.4" y2="-0.5"/>
	</g>
	<path id="パス_1015" class="st2" d="M84.7,202H72.9v-14.8h11.9"/>
	<rect id="長方形_119" x="84.7" y="161.1" class="st2" width="1.1" height="26.6"/>
	<path id="パス_1016" class="st2" d="M85.9,187.2h13.3V202H84.7"/>
	<rect id="長方形_120" x="103.2" y="163.8" class="st2" width="6.7" height="2"/>
	<rect id="長方形_121" x="109.8" y="163.8" class="st2" width="6.7" height="2"/>
	<path id="パス_1017" class="st1" d="M103.2,165.7v-2h-4v20.5h21.4v-20.5h-4v2"/>
	<circle id="楕円形_39" class="st1" cx="139" cy="131.2" r="5.2"/>
	<circle id="楕円形_40" class="st1" cx="208.4" cy="199.7" r="5.2"/>
	<circle id="楕円形_41" class="st1" cx="277.7" cy="199.7" r="5.2"/>
	<circle id="楕円形_42" class="st1" cx="277.7" cy="66.4" r="5.2"/>
	<circle id="楕円形_43" class="st1" cx="347.1" cy="66.4" r="5.2"/>
	<rect id="長方形_122" x="348.2" y="196.4" class="st2" width="2.2" height="60.8"/>
	<path id="パス_1018" class="st1" d="M416.6,242.6v14.6h35.5v-57.5h-35.5v11.2"/>
	<rect id="長方形_123" x="415.5" y="211.7" class="st2" width="2.2" height="30.1"/>
	<g id="グループ_165" transform="translate(428.884 150.547)">
		<rect id="長方形_124" x="5.2" y="23.7" class="st2" width="31.5" height="22.1"/>
		<rect id="長方形_125" x="7.9" y="23.7" class="st2" width="2.2" height="22.1"/>
		<rect id="長方形_126" x="12.7" y="23.7" class="st2" width="2.2" height="22.1"/>
		<rect id="長方形_127" x="17.5" y="23.7" class="st2" width="2.2" height="22.1"/>
		<rect id="長方形_128" x="22.3" y="23.7" class="st2" width="2.2" height="22.1"/>
		<rect id="長方形_129" x="27.1" y="23.7" class="st2" width="2.2" height="22.1"/>
		<rect id="長方形_130" x="31.9" y="23.7" class="st2" width="2.2" height="22.1"/>
		<rect id="長方形_131" x="29.8" y="1.6" class="st2" width="2.2" height="20.5"/>
		<rect id="長方形_132" x="32" y="1.6" class="st2" width="2.2" height="20.5"/>
		<rect id="長方形_133" x="27.5" y="1.7" class="st2" width="2.2" height="20.5"/>
		<rect id="長方形_134" x="25.3" y="1.7" class="st2" width="2.2" height="20.5"/>
		<rect id="長方形_135" x="3.9" y="22.1" class="st2" width="33.6" height="1.6"/>
		<path id="パス_1019" class="st2" d="M57.8,0H24.2v1.6h32v44.2H0v1.6h57.8V1.6l0,0L57.8,0z"/>
		<line id="線_91" class="st2" x1="40.3" y1="35" x2="50.6" y2="35"/>
		<line id="線_92" class="st2" x1="38.6" y1="12.7" x2="50.6" y2="12.7"/>
		<line id="線_93" class="st2" x1="50.6" y1="35" x2="50.6" y2="12.7"/>
		<path id="パス_1020" class="st5" d="M35.5,12.7l5.7,2v-4L35.5,12.7z"/>
	</g>
	<circle id="楕円形_44" class="st5" cx="13.6" cy="82.9" r="2.1"/>
	<path id="パス_1021" class="st5" d="M15.6,92.5h-4.1l-0.6-7.1h5.2L15.6,92.5z"/>
	<path id="パス_1022" class="st5" d="M14.6,98.3h-2l-0.3-5.7h2.5L14.6,98.3z"/>
	<circle id="楕円形_45" class="st5" cx="54.3" cy="73.6" r="2.1"/>
	<path id="パス_1023" class="st5" d="M57.9,85.5h-7.2l1.7-9.3h3.7L57.9,85.5z"/>
	<path id="パス_1024" class="st5" d="M55.3,89h-2L53,83.2h2.5L55.3,89z"/>
	<line id="線_94" class="st1" x1="72.9" y1="63.6" x2="105.2" y2="63.6"/>
	<line id="線_95" class="st1" x1="135.7" y1="63.6" x2="142.6" y2="63.6"/>
	<g id="グループ_166" transform="translate(49.267 222.141)">
		<path id="パス_1025" class="st6" d="M0,7.8c0-4.1,2.2-6.6,5.3-6.6s5.3,2.5,5.3,6.6s-2.2,6.7-5.3,6.7S0,11.9,0,7.8z M9.6,7.8
			c0-3.5-1.7-5.7-4.3-5.7S1.1,4.3,1.1,7.8s1.7,5.7,4.2,5.7S9.6,11.3,9.6,7.8z"/>
		<path id="パス_1026" class="st6" d="M19,5.7h-4.3v8.5h-1V5.7h-1.3V5l1.3-0.1V3.2c0-2,1-3,2.6-3c0.6,0,1.1,0.1,1.6,0.3l-0.3,0.8
			c-0.4-0.2-0.9-0.3-1.3-0.3c-1.1,0-1.6,0.8-1.6,2.2v1.6H19v-2C19,1,19.8,0,21.4,0c0.5,0,1,0.1,1.4,0.3l-0.3,0.8
			c-0.3-0.2-0.7-0.3-1.1-0.3c-1,0-1.4,0.7-1.4,2.1v1.9h2.1v0.9H20v8.5h-1L19,5.7L19,5.7z M23.8,1.8c0-0.4,0.3-0.8,0.7-0.8
			c0,0,0.1,0,0.1,0c0.5,0,0.8,0.3,0.9,0.8c0,0.5-0.3,0.8-0.8,0.9c0,0,0,0-0.1,0c-0.4,0-0.8-0.3-0.8-0.8C23.8,1.9,23.8,1.8,23.8,1.8
			L23.8,1.8z M24.1,4.9h1v9.4h-1L24.1,4.9z"/>
		<path id="パス_1027" class="st6" d="M27.8,9.6c0-3.2,2-5,4.4-5c1,0,2,0.4,2.7,1.2l-0.6,0.7c-0.6-0.6-1.3-0.9-2.1-1
			c-1.9,0-3.3,1.7-3.3,4.1s1.3,4,3.3,4c0.9,0,1.8-0.4,2.4-1l0.5,0.7c-0.8,0.8-1.9,1.2-3,1.2C29.7,14.5,27.8,12.7,27.8,9.6L27.8,9.6z
			"/>
		<path id="パス_1028" class="st6" d="M36.6,9.6c0-3,2-5,4.1-5c2.3,0,3.6,1.6,3.6,4.4c0,0.2,0,0.5,0,0.7h-6.7
			c0,2.3,1.4,3.9,3.5,3.9c0.9,0,1.8-0.3,2.5-0.8l0.4,0.8c-0.9,0.6-1.9,0.9-3,0.9C38.6,14.5,36.6,12.7,36.6,9.6L36.6,9.6z M43.4,8.9
			c0-2.3-1-3.4-2.7-3.4c-1.5,0-2.9,1.3-3.1,3.4H43.4L43.4,8.9z"/>
	</g>
	<g id="グループ_167" transform="translate(210.574 267.35)">
		<path id="パス_1029" class="st7" d="M0,0h7.1v0.9h-6v4.7h5.1v0.9H1.1V12h6.2v0.9H0V0L0,0z"/>
		<path id="パス_1030" class="st7" d="M10,3.5h0.9L11,4.9h0c0.8-1,1.9-1.6,3.2-1.7c2,0,2.8,1.2,2.8,3.6v6h-1V7
			c0-2-0.6-2.8-2.1-2.8c-1.1,0-1.9,0.6-3,1.7v7h-1L10,3.5L10,3.5z"/>
		<path id="パス_1031" class="st7" d="M20.7,10.2V4.3h-1.5V3.6l1.5-0.1l0.1-2.7h0.9v2.7h2.7v0.9h-2.7v5.9c0,1.2,0.3,2,1.6,2
			c0.4,0,0.8-0.1,1.2-0.3l0.3,0.8c-0.5,0.2-1,0.3-1.6,0.4C21.3,13.1,20.7,11.9,20.7,10.2L20.7,10.2z"/>
		<path id="パス_1032" class="st7" d="M26.7,3.5h0.9l0.1,1.7h0c0.4-1.1,1.5-1.9,2.7-2c0.3,0,0.7,0.1,1,0.2l-0.2,0.9
			c-0.3-0.1-0.6-0.2-0.9-0.2c-0.8,0-1.8,0.6-2.5,2.4v6.3h-1L26.7,3.5L26.7,3.5z"/>
		<path id="パス_1033" class="st7" d="M32.3,10.5c0-2.1,1.9-3.1,6-3.6c0-1.4-0.4-2.8-2.1-2.8c-1.1,0-2.1,0.4-3,1.1l-0.5-0.7
			c1-0.8,2.3-1.2,3.6-1.2c2.2,0,3,1.6,3,3.7v6h-0.9l-0.1-1.2h0c-0.9,0.8-2.1,1.3-3.3,1.4c-1.4,0.1-2.6-0.9-2.7-2.2
			C32.4,10.8,32.4,10.7,32.3,10.5L32.3,10.5z M38.3,10.8v-3c-3.7,0.4-5,1.3-5,2.7c-0.1,0.9,0.7,1.7,1.6,1.8c0.1,0,0.2,0,0.3,0
			C36.4,12.2,37.5,11.7,38.3,10.8L38.3,10.8z"/>
		<path id="パス_1034" class="st7" d="M42.6,3.5h0.9l0.1,1.4h0c0.8-1,1.9-1.6,3.2-1.7c2,0,2.8,1.2,2.8,3.6v6h-1V7
			c0-2-0.6-2.8-2.1-2.8c-1.1,0-1.9,0.6-3,1.7v7h-1L42.6,3.5L42.6,3.5z"/>
		<path id="パス_1035" class="st7" d="M52.3,8.2c0-3.1,2-5,4.4-5c1,0,2,0.4,2.7,1.2l-0.6,0.7c-0.6-0.6-1.3-0.9-2.1-1
			c-1.9,0-3.3,1.7-3.3,4.1s1.3,4,3.3,4c0.9,0,1.8-0.4,2.4-1l0.5,0.7c-0.8,0.8-1.9,1.2-3,1.2C54.2,13.1,52.3,11.3,52.3,8.2L52.3,8.2z
			"/>
		<path id="パス_1036" class="st7" d="M61.1,8.2c0-3,2-5,4.1-5c2.3,0,3.6,1.6,3.6,4.4c0,0.2,0,0.5-0.1,0.7h-6.7
			c0.1,2.3,1.4,3.9,3.5,3.9c0.9,0,1.8-0.3,2.5-0.8l0.4,0.8c-0.9,0.6-1.9,0.9-3,0.9C63.1,13.1,61.1,11.3,61.1,8.2L61.1,8.2z M68,7.5
			c0-2.3-1-3.4-2.7-3.4c-1.5,0-2.9,1.3-3.1,3.4H68L68,7.5z"/>
	</g>
	<g id="グループ_168" transform="translate(435.512 59.851)">
		<path id="パス_1037" class="st6" d="M0,7.8c0-4.1,2.2-6.6,5.3-6.6s5.3,2.5,5.3,6.6s-2.2,6.7-5.3,6.7S0,11.9,0,7.8z M9.6,7.8
			c0-3.5-1.7-5.7-4.3-5.7S1.1,4.3,1.1,7.8s1.7,5.7,4.2,5.7S9.6,11.3,9.6,7.8z"/>
		<path id="パス_1038" class="st6" d="M19,5.7h-4.3v8.5h-1V5.7h-1.3V5l1.3-0.1V3.2c0-2,1-3,2.6-3c0.6,0,1.1,0.1,1.6,0.3l-0.3,0.8
			c-0.4-0.2-0.9-0.3-1.3-0.3c-1.1,0-1.6,0.8-1.6,2.2v1.6h4.3v-2C18.9,1,19.8,0,21.3,0c0.5,0,1,0.1,1.4,0.3l-0.3,0.8
			c-0.3-0.2-0.7-0.3-1.1-0.3c-1,0-1.4,0.7-1.4,2.1v1.9h2.1v0.9H20v8.5h-1L19,5.7L19,5.7z M23.8,1.8c0-0.4,0.3-0.8,0.7-0.8
			c0,0,0.1,0,0.1,0c0.5,0,0.8,0.3,0.9,0.8s-0.3,0.8-0.8,0.9c0,0,0,0-0.1,0c-0.4,0-0.8-0.3-0.8-0.8C23.8,1.9,23.8,1.8,23.8,1.8
			L23.8,1.8z M24.1,4.9h1v9.4h-1V4.9z"/>
		<path id="パス_1039" class="st6" d="M27.8,9.6c0-3.2,2-5,4.4-5c1,0,2,0.4,2.7,1.2l-0.6,0.7c-0.6-0.6-1.3-0.9-2.1-1
			c-1.9,0-3.3,1.7-3.3,4.1s1.3,4,3.3,4c0.9,0,1.8-0.4,2.4-1l0.5,0.7c-0.8,0.8-1.9,1.2-3,1.2C29.7,14.5,27.8,12.7,27.8,9.6L27.8,9.6z
			"/>
		<path id="パス_1040" class="st6" d="M36.6,9.6c0-3,2-5,4.1-5c2.3,0,3.6,1.6,3.6,4.4c0,0.2,0,0.5-0.1,0.7h-6.7
			c0.1,2.3,1.4,3.9,3.5,3.9c0.9,0,1.8-0.3,2.5-0.8l0.4,0.8c-0.9,0.6-1.9,0.9-3,0.9C38.6,14.5,36.6,12.7,36.6,9.6L36.6,9.6z
			 M43.4,8.9c0-2.3-1-3.4-2.7-3.4c-1.5,0-2.9,1.3-3.1,3.4L43.4,8.9L43.4,8.9z"/>
	</g>
	<path id="パス_1041" class="st7" d="M245.4,256.2l-11.4,7.3h22.9L245.4,256.2z"/>
	<path id="パス_2278" class="st7" d="M191.6-6.8L183,7.6h17.3L191.6-6.8z"/>
	<path id="長方形_246" class="st8" d="M160,164h10c0.6,0,1,0.4,1,1v51c0,0.6-0.4,1-1,1h-10c-0.6,0-1-0.4-1-1v-51
		C159,164.4,159.4,164,160,164z"/>
	<path id="パス_2304" class="st9" d="M133.7-15v-11.4l11.2,11.7v-13.7H144v11.6l-11.2-11.7V-15H133.7z M154.8-21.7
		c-0.7-1-1.9-1.6-3.2-1.6c-2.2,0-4,1.7-4,3.8c0,0.1,0,0.3,0,0.4c-0.2,2.2,1.5,4.1,3.7,4.3c0.1,0,0.2,0,0.3,0c1.3,0,2.5-0.6,3.2-1.7
		v1.5h0.8v-8.2h-0.8V-21.7z M151.6-22.6c1.8,0,3.2,1.5,3.2,3.2c0,0.1,0,0.1,0,0.2c0,1.9-1.1,3.6-3.2,3.6c-1.8-0.1-3.3-1.6-3.2-3.4
		c0-0.1,0-0.1,0-0.2c-0.1-1.8,1.2-3.3,3-3.4C151.5-22.6,151.6-22.6,151.6-22.6z M159.1-10.4h0.9l5.4-12.8h-0.9l-3,7.3l-3.4-7.3h-0.9
		l3.9,8.3L159.1-10.4z M167-23.2v5.1c-0.1,0.8,0.2,1.6,0.6,2.2c1.2,1.3,3.2,1.3,4.5,0.1c0,0,0.1-0.1,0.1-0.1
		c0.5-0.7,0.7-1.4,0.6-2.2v-5.1h-0.8v4.9c0.1,0.7-0.1,1.4-0.5,2c-0.9,0.9-2.3,0.9-3.2,0c-0.4-0.6-0.6-1.3-0.5-2v-4.9H167z
		 M178.1-22.4v-0.8h-1.4v-2.9h-0.8v2.9h-0.9v0.8h0.9v7.4h0.8v-7.4H178.1z M186.3-21.7c-0.7-1-1.9-1.6-3.2-1.6c-2.2,0-4,1.7-4,3.8
		c0,0.1,0,0.3,0,0.4c-0.2,2.2,1.5,4.1,3.7,4.3c0.1,0,0.2,0,0.3,0c1.3,0,2.5-0.6,3.2-1.7v1.5h0.8v-8.2h-0.8V-21.7z M183.2-22.6
		c1.8,0,3.2,1.5,3.2,3.2c0,0.1,0,0.1,0,0.2c0,1.9-1.1,3.6-3.2,3.6c-1.8-0.1-3.3-1.6-3.2-3.4c0-0.1,0-0.1,0-0.2
		c-0.1-1.8,1.2-3.3,3-3.4C183-22.6,183.1-22.6,183.2-22.6z M202-20.6h4.7c-0.1,1-0.4,1.9-0.9,2.8c-1.1,1.5-2.8,2.3-4.6,2.3
		c-3.3,0-5.9-2.6-6-5.8c0-0.1,0-0.1,0-0.2c-0.1-3.3,2.6-6,5.9-6.1c1.5,0,2.9,0.5,4,1.4c0.5,0.4,0.9,0.9,1.3,1.5l0.7-0.6
		c-0.4-0.6-1-1.2-1.6-1.7c-1.2-1-2.7-1.5-4.2-1.4c-3.8-0.1-6.9,2.9-7,6.6c0,0.1,0,0.2,0,0.2c-0.1,3.7,2.8,6.8,6.5,6.9
		c0.1,0,0.2,0,0.4,0c1.9,0.1,3.8-0.7,5-2.2c0.9-1.3,1.4-2.8,1.4-4.4H202L202-20.6z M216.7-21.7c-0.7-1-1.9-1.6-3.2-1.6
		c-2.2,0-4,1.7-4,3.8c0,0.1,0,0.3,0,0.4c-0.2,2.2,1.5,4.1,3.7,4.3c0.1,0,0.2,0,0.3,0c1.3,0,2.5-0.6,3.2-1.7v1.5h0.8v-8.2h-0.8V-21.7
		z M213.6-22.6c1.8,0,3.2,1.5,3.2,3.2c0,0.1,0,0.1,0,0.2c0,1.9-1.1,3.6-3.2,3.6c-1.8-0.1-3.3-1.6-3.2-3.4c0-0.1,0-0.1,0-0.2
		c-0.1-1.8,1.2-3.3,3-3.4C213.4-22.6,213.5-22.6,213.6-22.6z M220.4-15h0.8v-4.4c0-1,0-3.2,1.7-3.2c0.2,0,0.4,0,0.6,0.2l0.4-0.7
		c-0.3-0.1-0.6-0.2-0.9-0.2c-0.8,0-1.5,0.5-1.8,1.2v-1.1h-0.8V-15z M232.2-21.7c-0.7-1-1.9-1.6-3.2-1.6c-2.1-0.1-3.9,1.6-4,3.7
		c0,0.2,0,0.3,0,0.5c-0.2,2.2,1.4,4.1,3.6,4.3c0.1,0,0.2,0,0.4,0c1.3,0,2.5-0.6,3.2-1.7v1.5h0.8v-14.6h-0.8V-21.7z M229.1-22.6
		c1.8,0,3.2,1.4,3.2,3.1c0,0.1,0,0.2,0,0.3c0,2.4-1.5,3.6-3.2,3.6c-1.6,0-3.2-1.2-3.2-3.6c-0.2-1.7,1.1-3.3,2.8-3.4
		C228.8-22.6,229-22.6,229.1-22.6z M243.2-19c0-2.6-1.7-4.4-3.9-4.4c-2.2,0-4,1.8-4,4c0,0.1,0,0.2,0,0.3c-0.1,2.2,1.6,4.1,3.8,4.3
		c1.6,0.1,3.1-0.8,3.8-2.2l-0.7-0.4c-0.5,1.1-1.6,1.9-2.8,1.9c-1.8,0-3.3-1.5-3.2-3.3c0,0,0-0.1,0-0.1H243.2z M236.3-19.7
		c0.1-1.6,1.5-2.8,3.1-2.8c1.6,0,2.9,1.3,3,2.8H236.3z M245.6-15h0.8v-4.2c0-0.8,0.1-1.5,0.4-2.2c0.4-0.7,1.2-1.2,2-1.1
		c0.6-0.1,1.3,0.3,1.6,0.8c0.3,0.5,0.4,1.1,0.3,1.6v5.1h0.8v-5.1c0.1-0.7-0.1-1.4-0.4-2.1c-0.5-0.8-1.4-1.2-2.3-1.1
		c-1,0-2,0.5-2.5,1.5v-1.3h-0.8L245.6-15z"/>
	<path id="パス_2305" class="st9" d="M135.7-39.8c-1.9,0-3.4,1.5-3.4,3.4c0,1.9,1.5,3.4,3.4,3.4c0,0,0,0,0,0
		c1.9,0,3.4-1.5,3.4-3.4S137.6-39.8,135.7-39.8C135.7-39.8,135.7-39.8,135.7-39.8z M135.7-33.3c-1.6,0-3-1.3-3-2.9c0,0,0-0.1,0-0.1
		c0-1.6,1.2-3,2.9-3c0,0,0.1,0,0.1,0c1.6,0,3,1.3,3,2.9c0,0,0,0.1,0,0.1c0,1.6-1.3,3-2.9,3C135.8-33.3,135.7-33.3,135.7-33.3z
		 M140.4-37.1v2.6c0,0.4,0.1,0.8,0.3,1.1c0.3,0.3,0.7,0.5,1.2,0.5c0.4,0,0.9-0.2,1.2-0.5c0.2-0.3,0.3-0.7,0.3-1.1v-2.6H143v2.5
		c0,0.4-0.1,0.7-0.3,1c-0.5,0.4-1.2,0.4-1.6,0c-0.2-0.3-0.3-0.7-0.3-1v-2.5H140.4z M145.9-36.7v-0.4h-0.7v-1.5h-0.4v1.5h-0.4v0.4
		h0.4v3.7h0.4v-3.7H145.9z M150.1-36.4c-0.4-0.5-1-0.8-1.6-0.8c-1.1,0-2,0.8-2,1.9c0,0.1,0,0.2,0,0.3c-0.1,1.1,0.7,2.1,1.8,2.2
		c0.1,0,0.1,0,0.2,0c0.6,0,1.2-0.3,1.6-0.8v0.7h0.4v-7.3h-0.4V-36.4z M148.5-36.8c0.9,0,1.6,0.7,1.6,1.6c0,0.1,0,0.1,0,0.2
		c0.1,0.9-0.5,1.7-1.4,1.8s-1.7-0.5-1.8-1.4c0-0.1,0-0.2,0-0.4c-0.1-0.9,0.5-1.6,1.4-1.7C148.4-36.8,148.4-36.8,148.5-36.8z
		 M153.8-37.2c-1.2,0-2.1,1-2.1,2.1c0,1.2,1,2.1,2.1,2.1c1.2,0,2.1-1,2.1-2.1l0,0C155.9-36.2,155-37.1,153.8-37.2
		C153.8-37.2,153.8-37.2,153.8-37.2z M153.8-33.3c-0.9,0-1.7-0.8-1.7-1.7c0,0,0,0,0-0.1c0-0.9,0.8-1.7,1.7-1.7
		c0.9,0,1.7,0.8,1.7,1.7C155.5-34.1,154.8-33.3,153.8-33.3C153.8-33.3,153.8-33.3,153.8-33.3z M159-37.2c-1.2,0-2.1,1-2.1,2.1
		c0,1.2,1,2.1,2.1,2.1c1.2,0,2.1-1,2.1-2.1c0,0,0,0,0,0C161.1-36.2,160.2-37.1,159-37.2C159-37.2,159-37.2,159-37.2z M159-33.3
		c-0.9,0-1.7-0.8-1.7-1.7c0,0,0,0,0-0.1c0-0.9,0.8-1.7,1.7-1.7c0.9,0,1.7,0.8,1.7,1.7C160.7-34.1,160-33.3,159-33.3
		C159-33.3,159-33.3,159-33.3z M162.3-33h0.4v-2.2c0-0.5,0-1.6,0.8-1.6c0.1,0,0.2,0,0.3,0.1l0.2-0.4c-0.1-0.1-0.3-0.1-0.4-0.1
		c-0.4,0-0.8,0.2-0.9,0.6v-0.5h-0.4V-33z M166.8-36.5c-0.2-0.4-0.6-0.7-1.1-0.7c-0.6,0-1.1,0.4-1.1,1c0,0,0,0.1,0,0.1
		c0,0.2,0.1,0.4,0.2,0.5c0.2,0.3,0.6,0.4,0.9,0.5c0.6,0.2,0.9,0.4,0.9,0.9c0,0.5-0.4,0.9-0.8,0.9c0,0,0,0-0.1,0
		c-0.5,0-0.9-0.3-1-0.8l-0.4,0.1c0.2,0.7,0.7,1.1,1.4,1.1c0.7,0,1.3-0.5,1.3-1.2c0,0,0-0.1,0-0.1c0-0.2-0.1-0.5-0.2-0.7
		c-0.3-0.3-0.7-0.5-1.1-0.6c-0.4-0.2-0.7-0.3-0.7-0.7c0-0.4,0.3-0.7,0.7-0.7c0,0,0,0,0,0c0.3,0,0.6,0.2,0.7,0.5L166.8-36.5z"/>
	<path id="パス_2310" class="st9" d="M53.9,350.7c4.2-1.4,6.6-4.5,6.6-8.6c0-3.2-1.3-5.1-3.7-5.1c-1.7-0.1-3.2,1.2-3.3,2.9
		c0,0.1,0,0.1,0,0.2c0,1.7,1.3,3,3,3.1c0.1,0,0.2,0,0.2,0h0.3c0,2-1.5,3.8-4.2,4.8L53.9,350.7z"/>
	<line id="線_244" class="st10" x1="90.5" y1="288.2" x2="165.5" y2="190.2"/>
	<circle id="楕円形_104" class="st9" cx="165" cy="190.7" r="3"/>
	<path id="パス_2322" class="st9" d="M164.6,145.7h-5.7v14h0.9v-7.2h4.6v-0.8h-4.6v-5.1h4.7V145.7z M166.4,159.7h0.8v-4.6
		c0-1.1,0-3.4,1.7-3.4c0.2,0,0.4,0,0.6,0.2l0.4-0.8c-0.3-0.1-0.6-0.2-0.9-0.2c-0.8,0-1.6,0.5-1.9,1.3v-1.1h-0.8L166.4,159.7z
		 M175.4,151c-2.5,0-4.5,2-4.5,4.5s2,4.5,4.5,4.5s4.5-2,4.5-4.5l0,0c0-2.4-1.9-4.5-4.3-4.5C175.5,151,175.4,151,175.4,151z
		 M175.4,159.2c-2,0-3.6-1.6-3.6-3.6c0,0,0-0.1,0-0.1c0-2,1.5-3.7,3.5-3.7c2,0,3.7,1.5,3.7,3.5c0,0.1,0,0.1,0,0.2
		c0.1,2-1.5,3.6-3.5,3.7C175.4,159.2,175.4,159.2,175.4,159.2z M182.3,159.7h0.8v-4.5c0-0.8,0.1-1.6,0.5-2.3
		c0.4-0.8,1.2-1.2,2.1-1.2c0.7-0.1,1.3,0.3,1.7,0.8c0.3,0.5,0.4,1.1,0.3,1.7v5.4h0.8v-5.4c0.1-0.7-0.1-1.5-0.4-2.2
		c-0.5-0.8-1.4-1.3-2.4-1.2c-1.1,0-2.1,0.6-2.6,1.5v-1.3h-0.8V159.7z M194,152v-0.8h-1.5v-3.1h-0.8v3.1h-0.9v0.8h0.9v7.8h0.8V152
		H194z"/>
	<g id="maru1">
		<circle id="path1" class="st9" cx="298.1" cy="66.4" r="25"/>
		<path id="_x31_" class="st11" d="M290.3,74.9h5.6V59h-4.7v-3.2c2.1-0.3,4.2-1.1,6.1-2.2h3.9v21.2h4.9v4.2h-15.7L290.3,74.9
			L290.3,74.9z"/>
	</g>
	<g id="maru2">
		<circle id="path2" class="st9" cx="81.1" cy="31.8" r="24.7"/>
		<path id="_x32_" class="st11" d="M72.5,41.7c6.8-6.5,11.3-10.9,11.3-14.7c0-2.6-1.4-4.1-3.9-4.1c-1.9,0-3.5,1.3-4.8,2.7l-2.8-2.8
			c2.4-2.6,4.7-4,8.3-4c4.9,0,8.2,3.1,8.2,7.9c0,4.5-4.1,9-8.7,13.9c1.4-0.2,2.9-0.3,4.3-0.3H90v4.4H72.5V41.7L72.5,41.7z"/>
	</g>
	<g id="maru3">
		<circle id="path3" class="st9" cx="384.3" cy="171.4" r="25"/>
		<path id="_x33_" class="st11" d="M375.3,180.9l2.4-3.3c1.5,1.6,3.6,2.6,5.8,2.7c2.6,0,4.5-1.3,4.5-3.5c0-2.5-1.5-4-7.2-4v-3.7
			c4.8,0,6.3-1.6,6.3-3.8c0-2-1.3-3.1-3.5-3.1c-1.9,0.1-3.7,0.9-4.9,2.3l-2.6-3.2c2.1-2,4.9-3.2,7.8-3.3c5,0,8.5,2.5,8.5,6.9
			c0,2.7-1.6,4.7-4.3,5.7v0.2c2.9,0.8,5.2,2.9,5.2,6.3c0,4.7-4.2,7.4-9.2,7.4C380.8,184.7,377.6,183.4,375.3,180.9L375.3,180.9z"/>
	</g>
	<g id="maru4">
		<circle id="path4" class="st9" cx="309.6" cy="213.1" r="25"/>
		<path id="_x34_" class="st11" d="M304.2,215.5l4-6.4c0.7-1.4,1.4-2.7,2.1-4.1h0.1c-0.1,1.5-0.2,3.9-0.2,5.4v5H304.2z M310.2,225.7
			h4.8v-6.3h3v-4H315v-15h-6.2l-9.7,15.4v3.5h11.1V225.7z"/>
	</g>
	<g id="maru5">
		<circle id="path5" class="st9" cx="25" cy="325.7" r="25"/>
		<path id="_x35_" class="st11" d="M24.8,338.6c4.8,0,9.1-3.2,9.1-8.8c0-5.4-3.6-7.8-8-7.8c-1.1,0-2.1,0.2-3.1,0.7l0.5-5.5h9.4v-4.3
			H18.9l-0.7,12.6l2.3,1.5c1.1-0.9,2.5-1.4,3.9-1.4c2.2-0.2,4.2,1.5,4.4,3.7c0,0.2,0,0.5,0,0.7c0,2.8-1.9,4.4-4.6,4.4
			c-2.2-0.1-4.2-1-5.7-2.6l-2.4,3.3C18.4,337.4,21.6,338.7,24.8,338.6z"/>
	</g>
	<g id="maru6">
		<circle id="path6" class="st9" cx="89" cy="325.3" r="25.4"/>
		<path id="_x36_" class="st11" d="M89.3,325.9c2.2,0,3.7,1.3,3.7,4.1c0,3-1.6,4.5-3.5,4.5c-2.1,0-3.9-1.6-4.4-5.9
			C86.4,326.7,88,325.9,89.3,325.9z M89.6,338.4c4.4,0.1,8.1-3.4,8.2-7.8c0-0.2,0-0.4,0-0.6c0-5.3-3.1-7.8-7.5-7.8
			c-2.1,0.2-4,1.2-5.3,2.8c0.2-6.5,2.7-8.7,5.6-8.7c1.5,0.1,3,0.7,4,1.9l2.7-3.1c-1.8-1.9-4.4-3-7-2.9c-5.2,0-10,4.2-10,13.8
			C80.3,334.7,84.7,338.4,89.6,338.4z"/>
	</g>
</g>
</svg>
