<?xml version="1.0" encoding="UTF-8"?><svg id="a" xmlns="http://www.w3.org/2000/svg" xmlns:xlink="http://www.w3.org/1999/xlink" viewBox="0 0 865.16 685.17"><defs><style>.aj{fill:url(#aa);}.ak{fill:url(#ab);}.al,.am,.an,.ao,.ap,.aq,.ar,.as,.at,.au,.av,.aw,.ax,.ay{stroke-miterlimit:10;}.al,.am,.an,.ao,.aq,.ar,.as,.az,.at,.av,.ay{fill:none;}.al,.aq,.as,.at,.ay{stroke:#fff;}.al,.as,.at,.ay{stroke-linecap:square;}.al,.ay{stroke-width:2.5px;}.am{stroke:#eaeaea;stroke-width:3px;}.am,.an,.ao,.ap,.ba,.bb,.ar,.az,.au,.av,.aw{stroke-linecap:round;}.an{stroke:#707070;stroke-width:6px;}.bc{fill:#040c21;}.bd,.ba{fill:#ededec;}.be,.ax{fill:#fff;}.bf,.ap,.bb,.aw{fill:#686868;}.bg{fill:#231815;}.bh{fill:#888988;}.ao,.as,.at{stroke-width:1.5px;}.ao,.av{stroke:#888988;}.ap{stroke-width:2px;}.ap,.aw{stroke:#f7f8f8;}.bi{fill:#8c8c8c;stroke:#e0e0e0;stroke-width:.75px;}.bi,.ba,.bb,.az{stroke-linejoin:round;}.aq{stroke-width:.76px;}.ba,.bb{stroke:#6d6d6d;}.ba,.bb,.az{stroke-width:.5px;}.ar{stroke:#c4c4c4;stroke-width:4px;}.as{stroke-dasharray:0 0 9.85 9.85;}.az{stroke:#898989;}.au{fill:#f7f8f8;stroke:#686868;}.au,.av{stroke-width:5px;}.aw{stroke-width:1.79px;}.ax{stroke:#555656;stroke-width:1.25px;}.ay{stroke-dasharray:0 0 9.9 9.9;}</style><linearGradient id="aa" x1="637.91" y1="321.11" x2="805" y2="321.11" gradientUnits="userSpaceOnUse"><stop offset="0" stop-color="#16416c"/><stop offset=".38" stop-color="#253e3d"/><stop offset=".65" stop-color="#143731"/><stop offset=".75" stop-color="#102f2a"/><stop offset=".91" stop-color="#051a17"/><stop offset=".94" stop-color="#031513"/></linearGradient><linearGradient id="ab" x1="645.22" y1="277.77" x2="633.19" y2="323.5" gradientUnits="userSpaceOnUse"><stop offset="0" stop-color="#5288b5"/><stop offset=".09" stop-color="#3c699d"/><stop offset=".19" stop-color="#2c518b"/><stop offset=".25" stop-color="#264985"/><stop offset=".58" stop-color="#163564"/><stop offset=".66" stop-color="#15355b"/><stop offset=".78" stop-color="#143644"/><stop offset=".87" stop-color="#143731"/><stop offset="1" stop-color="#031513"/></linearGradient></defs><g id="e"><g id="n"><g id="o"><line id="p" class="ao" x1="387.45" y1="153.38" x2="387.45" y2="29.78"/><line id="q" class="ao" x1="465.8" y1="273.29" x2="465.8" y2="29.78"/><line id="r" class="ao" x1="540.46" y1="232.61" x2="540.46" y2="31.44"/><line id="s" class="ao" x1="652.95" y1="577.01" x2="652.95" y2="361.06"/><line id="t" class="ao" x1="606.93" y1="312.89" x2="606.93" y2="280.78"/><line id="u" class="ao" x1="643.73" y1="177.46" x2="410.46" y2="177.46"/><line id="v" class="ao" x1="695.57" y1="373.33" x2="610.34" y2="373.33"/><line id="w" class="ao" x1="695.57" y1="413.47" x2="653" y2="413.47"/><line id="x" class="ao" x1="583.91" y1="256.7" x2="563.48" y2="256.7"/><line id="y" class="ao" x1="441.71" y1="296.3" x2="183.52" y2="296.3"/><path class="ao" d="M387.45,153.38c0,12.96,.4,24.09,23.01,24.09"/><path class="ao" d="M540.46,232.61c0,12.96,.4,24.09,23.01,24.09"/><path class="ao" d="M606.93,312.89c0,12.96,.4,24.09,23.01,24.09"/><path class="ao" d="M652.95,361.06c0-12.96-.4-24.09-23.01-24.09"/><path class="ao" d="M606.93,280.78c0-12.96-.4-24.09-23.01-24.09"/><line id="z" class="ao" x1="387.45" y1="121.52" x2="183.52" y2="121.52"/><path class="ao" d="M441.71,296.3c12.96,0,24.09-.4,24.09-23.01"/></g><path class="aj" d="M803.97,339.51l-139.6-.16-24.59-38.22c-.31-.47-.94-.61-1.41-.31-.48,.31-.61,.94-.31,1.42l24.87,38.66s.08,.06,.11,.1c.06,.07,.13,.14,.21,.19,.03,.02,.06,.05,.1,.06,.15,.08,.31,.14,.48,.14l140.14,.16h0c.56,0,1.02-.46,1.02-1.02,0-.56-.46-1.02-1.02-1.02Z"/><rect class="ak" x="616.25" y="284.79" width="45.36" height="33.78"/><g><line class="at" x1="76.29" y1="599.73" x2="81.29" y2="599.73"/><line class="as" x1="91.15" y1="599.73" x2="716.88" y2="599.73"/><line class="at" x1="721.81" y1="599.73" x2="726.81" y2="599.73"/></g><line class="au" x1="70.74" y1="599.73" x2="731.75" y2="599.73"/><g><line class="al" x1="73.49" y1="599.73" x2="78.49" y2="599.73"/><line class="ay" x1="88.38" y1="599.73" x2="716.86" y2="599.73"/><line class="al" x1="721.81" y1="599.73" x2="726.81" y2="599.73"/></g><line id="ac" class="ar" x1="731.75" y1="545.11" x2="70.74" y2="545.11"/><path class="bh" d="M746.76,495.08H54.03c-2.83,0-5.12-2.29-5.12-5.12s2.29-5.12,5.12-5.12H746.76c2.83,0,5.12,2.29,5.12,5.12s-2.29,5.12-5.12,5.12Z"/><path class="bh" d="M249.83,620.96c-2.54,0-4.61-2.06-4.61-4.61V35.36c0-2.54,2.06-4.61,4.61-4.61s4.61,2.06,4.61,4.61V616.36c0,2.54-2.06,4.61-4.61,4.61Z"/><path class="av" d="M98.13,489.96s.65-33.91,40.1-33.91"/><line id="ad" class="an" x1="138.23" y1="35.36" x2="138.23" y2="616.36"/><line id="ae" class="am" x1="138.23" y1="35.36" x2="138.23" y2="616.36"/><rect class="ax" x="623.37" y="588" width="61.01" height="23.46" rx="2.55" ry="2.55"/><rect class="ax" x="163.92" y="588" width="61.01" height="23.46" rx="2.55" ry="2.55"/><g><path class="bg" d="M615.55,633.39l.74-.49c.59,1,1.28,1.39,2.26,1.39,1.41,0,2.1-.82,2.1-2.74v-8.54h.98v8.64c0,1.97-.84,3.52-3.05,3.52-1.38,0-2.39-.62-3.03-1.79Z"/><path class="bg" d="M626.38,623.02h3.49c2.38,0,3.98,.87,3.98,3.2,0,1.9-1.16,3-2.98,3.28l3.23,5.47h-1.11l-3.18-5.39h-2.44v5.39h-.98v-11.95Zm3.26,5.74c2.06,0,3.21-.82,3.21-2.54s-1.15-2.38-3.21-2.38h-2.28v4.92h2.28Z"/><path class="bg" d="M645.48,625.04c-.33,.83-.75,1.72-1.25,2.59v8.52h-.72v-7.39c-.51,.72-1.05,1.38-1.64,1.93-.08-.16-.29-.44-.44-.59,1.44-1.36,2.69-3.51,3.29-5.29l.75,.23Zm-1.62-1.51c-.51,.82-1.08,1.54-1.66,2.1-.13-.1-.46-.33-.66-.43,1.08-.98,2.03-2.42,2.62-3.92l.72,.2c-.18,.48-.41,.93-.64,1.38h4.72v.67h-3.26c.34,.57,.66,1.25,.8,1.69l-.7,.28c-.16-.54-.52-1.33-.92-1.97h-1.03Zm1.9,3h.7v7.9h-.7v-7.9Zm6.9,5.57c.88,1.28,2.46,2.47,3.95,3.03-.18,.11-.41,.38-.52,.57-1.49-.64-3.06-1.95-4-3.34v3.85h-.75v-3.72c-1.08,1.39-2.8,2.64-4.33,3.28-.13-.18-.33-.43-.51-.56,1.57-.57,3.31-1.79,4.33-3.11h-3.47v-.67h3.98v-1.44h.75v1.44h4.11v.67h-3.54Zm1.9-5.39c-.48,.88-1.21,1.61-2.1,2.2,1.16,.51,2.54,.87,4.03,1.03-.18,.16-.36,.44-.48,.64-1.56-.23-3-.66-4.21-1.28-1.25,.69-2.72,1.18-4.23,1.52-.08-.16-.31-.46-.46-.62,1.46-.28,2.85-.69,4.02-1.28-.77-.48-1.43-1.07-1.92-1.75-.49,.48-1.05,.92-1.69,1.33-.15-.16-.39-.38-.56-.47,1.57-.9,2.67-2.2,3.23-3.25l.77,.1c-.21,.39-.48,.79-.77,1.18h6.1v.66h-1.74Zm-4.49-3.18c-.54,.82-1.18,1.52-1.84,2.08-.15-.12-.44-.38-.66-.48,1.2-.93,2.25-2.31,2.82-3.85l.75,.2c-.18,.48-.41,.93-.66,1.38h5.78v.67h-3.77c.48,.54,.92,1.15,1.15,1.61l-.67,.34c-.26-.54-.82-1.33-1.39-1.95h-1.52Zm-.39,3.18c.49,.74,1.21,1.36,2.11,1.85,.82-.49,1.49-1.12,1.97-1.85h-4.08Z"/><path class="bg" d="M667.97,631.3c1.44,1.79,3.93,3.29,6.26,4-.18,.18-.41,.47-.54,.67-2.44-.84-5.1-2.61-6.59-4.64v4.83h-.79v-4.87c-1.52,1.97-4.23,3.72-6.52,4.59-.13-.2-.38-.49-.54-.66,2.16-.72,4.65-2.25,6.15-3.93h-5.88v-.72h6.8v-1.67h-5.6v-4.2h3.72v-1.74h-4.77v-.72h14.14v.72h-4.87v1.74h3.82v4.2h-5.65v1.67h6.88v.72h-6.01Zm-6.51-3.1h2.97v-2.79h-2.97v2.79Zm3.72-3.49h3v-1.74h-3v1.74Zm3,3.49v-2.79h-3v2.79h3Zm.75-2.79v2.79h3.05v-2.79h-3.05Z"/><path class="bg" d="M676.85,635c.59-.84,.77-2.34,.84-3.77l.57,.11c-.08,1.48-.26,3.08-.9,3.97l-.51-.31Zm6.95-5.56s0,.26-.02,.39c-.21,4.1-.41,5.49-.82,5.98-.23,.25-.48,.33-.85,.34-.31,.03-.93,.02-1.54-.03-.02-.2-.08-.47-.2-.69,.66,.07,1.26,.08,1.49,.08,.25,0,.38-.02,.49-.18,.29-.33,.52-1.64,.7-5.21h-5.26v-8.1h5.93v.69h-2.61v1.77h2.25v.67h-2.25v1.79h2.25v.69h-2.25v1.8h2.67Zm-5.29-6.72v1.77h1.92v-1.77h-1.92Zm1.92,2.44h-1.92v1.79h1.92v-1.79Zm-1.92,4.28h1.92v-1.8h-1.92v1.8Zm.8,2.02c.2,.95,.33,2.18,.33,2.98l-.56,.08c.03-.82-.1-2.03-.28-3l.51-.07Zm1.23-.25c.38,.82,.69,1.9,.79,2.61l-.52,.15c-.08-.7-.41-1.8-.75-2.64l.49-.12Zm1.77,1.98c-.16-.61-.62-1.49-1.05-2.16l.44-.18c.48,.66,.9,1.54,1.1,2.11l-.49,.23Zm6.18-4.83c.49,3.28,1.52,5.97,3.52,7.23-.2,.15-.44,.43-.57,.64-2.06-1.47-3.15-4.28-3.65-7.87h-1.95c-.02,2.46-.25,5.65-1.88,7.82-.13-.15-.46-.33-.64-.43,1.62-2.13,1.77-5.19,1.77-7.57v-6.16h6.19v6.34h-2.79Zm-2.65-5.59v4.85h4.7v-4.85h-4.7Z"/></g><g><path class="bg" d="M151.58,633.39l.74-.49c.59,1,1.28,1.39,2.26,1.39,1.41,0,2.1-.82,2.1-2.74v-8.54h.98v8.64c0,1.97-.84,3.52-3.05,3.52-1.38,0-2.39-.62-3.03-1.79Z"/><path class="bg" d="M162.41,623.02h3.49c2.38,0,3.98,.87,3.98,3.2,0,1.9-1.16,3-2.98,3.28l3.23,5.47h-1.11l-3.18-5.39h-2.44v5.39h-.98v-11.95Zm3.26,5.74c2.06,0,3.21-.82,3.21-2.54s-1.15-2.38-3.21-2.38h-2.28v4.92h2.28Z"/><path class="bg" d="M184.14,627.95h-4.82v8.19h-.79v-14h5.6v5.8Zm-4.82-5.1v1.79h4.06v-1.79h-4.06Zm4.06,4.38v-1.93h-4.06v1.93h4.06Zm8.34,7.67c0,.64-.18,.95-.64,1.08-.48,.13-1.39,.15-2.8,.15-.05-.21-.2-.59-.33-.83,1.2,.05,2.26,.03,2.57,.02,.31-.02,.41-.08,.41-.41v-6.95h-5.03v-5.8h5.82v12.75Zm-5.06-12.04v1.79h4.28v-1.79h-4.28Zm4.28,4.39v-1.95h-4.28v1.95h4.28Z"/><path class="bg" d="M200.66,630.85c-.29-.54-1.13-1.69-1.75-2.49v7.77h-.75v-8.7c-.66,2.13-1.61,4.31-2.54,5.54-.1-.21-.33-.51-.48-.67,1.13-1.44,2.31-4.23,2.88-6.65h-2.49v-.75h2.62v-3.57h.75v3.57h2.29v.75h-2.29v1.75c.52,.57,1.97,2.34,2.31,2.8l-.56,.66Zm6.75-.15c1.16,1.62,2.43,3.77,2.97,5.1l-.74,.38c-.13-.36-.33-.79-.54-1.25-2.97,.21-6.06,.39-8.14,.54l-.15-.82,1.69-.08c.85-1.88,1.84-4.85,2.39-6.93l.87,.26c-.66,2.05-1.61,4.77-2.44,6.62,1.62-.08,3.52-.18,5.42-.29-.57-1.07-1.29-2.23-1.98-3.2l.66-.33Zm-2.85-8.95c-.61,2.59-1.62,4.95-2.95,6.52-.15-.13-.49-.38-.7-.49,1.36-1.48,2.29-3.75,2.85-6.19l.8,.16Zm2.92-.18c.62,2.23,1.87,4.8,2.9,6.08-.21,.13-.49,.41-.67,.62-1.03-1.44-2.25-4.16-2.93-6.47l.71-.23Z"/><path class="bg" d="M212.88,635c.59-.84,.77-2.34,.84-3.77l.57,.11c-.08,1.48-.26,3.08-.9,3.97l-.51-.31Zm6.95-5.56s0,.26-.02,.39c-.21,4.1-.41,5.49-.82,5.98-.23,.25-.48,.33-.85,.34-.31,.03-.93,.02-1.54-.03-.02-.2-.08-.47-.2-.69,.66,.07,1.26,.08,1.49,.08,.25,0,.38-.02,.49-.18,.29-.33,.52-1.64,.7-5.21h-5.26v-8.1h5.93v.69h-2.61v1.77h2.25v.67h-2.25v1.79h2.25v.69h-2.25v1.8h2.67Zm-5.29-6.72v1.77h1.92v-1.77h-1.92Zm1.92,2.44h-1.92v1.79h1.92v-1.79Zm-1.92,4.28h1.92v-1.8h-1.92v1.8Zm.8,2.02c.2,.95,.33,2.18,.33,2.98l-.56,.08c.03-.82-.1-2.03-.28-3l.51-.07Zm1.23-.25c.38,.82,.69,1.9,.79,2.61l-.52,.15c-.08-.7-.41-1.8-.75-2.64l.49-.12Zm1.77,1.98c-.16-.61-.62-1.49-1.05-2.16l.44-.18c.48,.66,.9,1.54,1.1,2.11l-.49,.23Zm6.18-4.83c.49,3.28,1.52,5.97,3.52,7.23-.2,.15-.44,.43-.57,.64-2.06-1.47-3.15-4.28-3.65-7.87h-1.95c-.02,2.46-.25,5.65-1.88,7.82-.13-.15-.46-.33-.64-.43,1.62-2.13,1.77-5.19,1.77-7.57v-6.16h6.19v6.34h-2.79Zm-2.65-5.59v4.85h4.7v-4.85h-4.7Z"/></g><circle class="bf" cx="318.64" cy="134.73" r="7"/><circle class="bf" cx="622.67" cy="269.54" r="7"/><path class="bf" d="M233.71,468.76h-25.82c-2.9,0-5.25,2.35-5.25,5.25s2.35,5.25,5.25,5.25h25.82c2.9,0,5.25-2.35,5.25-5.25s-2.35-5.25-5.25-5.25Zm-23.2,8.75c-1.93,0-3.49-1.56-3.49-3.49s1.56-3.49,3.49-3.49,3.49,1.56,3.49,3.49-1.56,3.49-3.49,3.49Zm10.29,0c-1.93,0-3.49-1.56-3.49-3.49s1.56-3.49,3.49-3.49,3.49,1.56,3.49,3.49-1.56,3.49-3.49,3.49Zm10.29,0c-1.93,0-3.49-1.56-3.49-3.49s1.56-3.49,3.49-3.49,3.49,1.56,3.49,3.49-1.56,3.49-3.49,3.49Z"/><path class="bf" d="M641.54,468.76h-25.82c-2.9,0-5.25,2.35-5.25,5.25s2.35,5.25,5.25,5.25h25.82c2.9,0,5.25-2.35,5.25-5.25s-2.35-5.25-5.25-5.25Zm-23.2,8.75c-1.93,0-3.49-1.56-3.49-3.49s1.56-3.49,3.49-3.49,3.49,1.56,3.49,3.49-1.56,3.49-3.49,3.49Zm10.29,0c-1.93,0-3.49-1.56-3.49-3.49s1.56-3.49,3.49-3.49,3.49,1.56,3.49,3.49-1.56,3.49-3.49,3.49Zm10.29,0c-1.93,0-3.49-1.56-3.49-3.49s1.56-3.49,3.49-3.49,3.49,1.56,3.49,3.49-1.56,3.49-3.49,3.49Z"/><path class="bf" d="M641.54,378.98h-25.82c-2.9,0-5.25,2.35-5.25,5.25s2.35,5.25,5.25,5.25h25.82c2.9,0,5.25-2.35,5.25-5.25s-2.35-5.25-5.25-5.25Zm-23.2,8.75c-1.93,0-3.49-1.56-3.49-3.49s1.56-3.49,3.49-3.49,3.49,1.56,3.49,3.49-1.56,3.49-3.49,3.49Zm10.29,0c-1.93,0-3.49-1.56-3.49-3.49s1.56-3.49,3.49-3.49,3.49,1.56,3.49,3.49-1.56,3.49-3.49,3.49Zm10.29,0c-1.93,0-3.49-1.56-3.49-3.49s1.56-3.49,3.49-3.49,3.49,1.56,3.49,3.49-1.56,3.49-3.49,3.49Z"/><path class="bf" d="M233.71,103h-25.82c-2.9,0-5.25,2.35-5.25,5.25s2.35,5.25,5.25,5.25h25.82c2.9,0,5.25-2.35,5.25-5.25s-2.35-5.25-5.25-5.25Zm-23.2,8.75c-1.93,0-3.49-1.56-3.49-3.49s1.56-3.49,3.49-3.49,3.49,1.56,3.49,3.49-1.56,3.49-3.49,3.49Zm10.29,0c-1.93,0-3.49-1.56-3.49-3.49s1.56-3.49,3.49-3.49,3.49,1.56,3.49,3.49-1.56,3.49-3.49,3.49Zm10.29,0c-1.93,0-3.49-1.56-3.49-3.49s1.56-3.49,3.49-3.49,3.49,1.56,3.49,3.49-1.56,3.49-3.49,3.49Z"/><path class="bf" d="M452.83,158.37h-25.82c-2.9,0-5.25,2.35-5.25,5.25s2.35,5.25,5.25,5.25h25.82c2.9,0,5.25-2.35,5.25-5.25s-2.35-5.25-5.25-5.25Zm-23.2,8.75c-1.93,0-3.49-1.56-3.49-3.49s1.56-3.49,3.49-3.49,3.49,1.56,3.49,3.49-1.56,3.49-3.49,3.49Zm10.29,0c-1.93,0-3.49-1.56-3.49-3.49s1.56-3.49,3.49-3.49,3.49,1.56,3.49,3.49-1.56,3.49-3.49,3.49Zm10.29,0c-1.93,0-3.49-1.56-3.49-3.49s1.56-3.49,3.49-3.49,3.49,1.56,3.49,3.49-1.56,3.49-3.49,3.49Z"/><path class="bf" d="M578.29,158.37h-25.82c-2.9,0-5.25,2.35-5.25,5.25s2.35,5.25,5.25,5.25h25.82c2.9,0,5.25-2.35,5.25-5.25s-2.35-5.25-5.25-5.25Zm-23.2,8.75c-1.93,0-3.49-1.56-3.49-3.49s1.56-3.49,3.49-3.49,3.49,1.56,3.49,3.49-1.56,3.49-3.49,3.49Zm10.29,0c-1.93,0-3.49-1.56-3.49-3.49s1.56-3.49,3.49-3.49,3.49,1.56,3.49,3.49-1.56,3.49-3.49,3.49Zm10.29,0c-1.93,0-3.49-1.56-3.49-3.49s1.56-3.49,3.49-3.49,3.49,1.56,3.49,3.49-1.56,3.49-3.49,3.49Z"/><path class="bf" d="M233.71,275.95h-25.82c-2.9,0-5.25,2.35-5.25,5.25s2.35,5.25,5.25,5.25h25.82c2.9,0,5.25-2.35,5.25-5.25s-2.35-5.25-5.25-5.25Zm-23.2,8.75c-1.93,0-3.49-1.56-3.49-3.49s1.56-3.49,3.49-3.49,3.49,1.56,3.49,3.49-1.56,3.49-3.49,3.49Zm10.29,0c-1.93,0-3.49-1.56-3.49-3.49s1.56-3.49,3.49-3.49,3.49,1.56,3.49,3.49-1.56,3.49-3.49,3.49Zm10.29,0c-1.93,0-3.49-1.56-3.49-3.49s1.56-3.49,3.49-3.49,3.49,1.56,3.49,3.49-1.56,3.49-3.49,3.49Z"/><rect class="be" x="482.19" y="117.27" width="139.22" height="36.11"/><g><path class="bg" d="M477.83,143.95v-9.65c0-.33-.05-1.03-.1-1.28h1.05c-.05,.28-.1,.88-.1,1.26v9.77c3.41-.82,7.29-3.01,9.29-5.69l.49,.72c-2.06,2.62-5.42,4.67-9.64,5.82-.15,.05-.34,.11-.52,.2l-.59-.49c.08-.18,.11-.36,.11-.66Z"/><path class="bg" d="M504,134.71c-.57,1.51-1.69,3.56-2.87,5,1.79,1.52,3.77,3.64,4.9,5l-.7,.62c-1.11-1.43-3.02-3.49-4.74-5.01-1.8,1.93-4.02,3.77-6.56,4.9l-.66-.71c2.64-1.05,5-2.98,6.77-4.95,1.13-1.29,2.46-3.42,2.88-4.9h-6.87c-.52,0-1.43,.07-1.49,.07v-.97c.1,0,.98,.08,1.49,.08h6.64c.43,0,.74-.03,.95-.1l.54,.43c-.08,.12-.25,.39-.29,.54Z"/><path class="bg" d="M511.15,143.41l-.75-.51c1.1-.98,2.54-3.02,3.16-4.31l.74,.36c-.67,1.38-2.2,3.44-3.15,4.46Zm6.52-9.8v1.9h4.64c.34,0,.79-.02,1.18-.07v.9c-.39-.03-.8-.03-1.16-.03h-4.65v8.13c0,.8-.33,1.16-1.23,1.16-.57,0-1.56-.05-2.13-.1l-.07-.88c.72,.13,1.49,.2,1.93,.2s.66-.21,.66-.66v-7.85h-4.79c-.51,0-.87,.02-1.28,.05v-.92c.43,.05,.75,.07,1.26,.07h4.8v-1.9c0-.33-.05-.8-.1-1.02h1c-.03,.23-.07,.71-.07,1.02Zm6.21,9.29l-.79,.44c-.62-1.21-1.88-3.28-2.79-4.33l.72-.38c.9,1.05,2.2,3.08,2.85,4.26Zm-1.38-11.6c.95,0,1.74,.79,1.74,1.75s-.79,1.72-1.74,1.72-1.74-.77-1.74-1.72,.77-1.75,1.74-1.75Zm0,2.88c.62,0,1.15-.51,1.15-1.13s-.52-1.15-1.15-1.15-1.15,.51-1.15,1.15,.51,1.13,1.15,1.13Z"/><path class="bg" d="M541.59,134.42c-.59,1.02-2.15,3.15-4.16,4.54l-.72-.59c1.62-.9,3.33-2.88,3.92-4.01h-9.8c-.57,0-1.21,.03-1.79,.07v-1c.54,.07,1.21,.13,1.79,.13h9.75c.23,0,.64-.05,.82-.08l.54,.52c-.11,.11-.25,.28-.34,.43Zm-10.72,11.06l-.79-.66c.39-.11,.95-.39,1.33-.62,2.8-1.62,3.15-4.31,3.15-7.06,0-.33-.02-.66-.05-1.02h.93c0,4.65-.56,7.46-4.57,9.36Z"/><path class="bg" d="M548.44,138.32h9.08c.85,0,1.34-.03,1.67-.07v1.02c-.29-.02-.9-.05-1.66-.05h-9.1c-.9,0-1.64,.02-2.08,.05v-1.02c.43,.03,1.11,.07,2.08,.07Z"/><path class="bg" d="M566.51,140.64c.48-1.56,.49-4.92,.49-6.67,0-.38-.03-.69-.1-1h.98c-.03,.26-.07,.62-.07,1,0,1.74-.07,5.29-.51,6.92-.49,1.7-1.56,3.29-2.92,4.38l-.79-.52c1.34-.97,2.38-2.41,2.9-4.1Zm4.65,3.31v-9.96c0-.56-.05-.92-.07-1.1h.97c-.03,.18-.05,.54-.05,1.1v9.98c1.62-.75,3.88-2.36,5.21-4.38l.51,.72c-1.46,2-3.69,3.62-5.6,4.57-.23,.12-.39,.23-.49,.31l-.57-.48c.07-.23,.1-.51,.1-.77Z"/><path class="bg" d="M590.87,134.38c-.36,1.49-.85,2.85-1.46,4.1,1.15,3.13,3.46,5.9,6.28,7.1-.18,.16-.44,.46-.56,.67-2.7-1.25-4.88-3.82-6.18-6.9-1.87,3.34-4.59,5.62-7.51,6.98-.13-.21-.39-.56-.59-.67,4.03-1.77,7.56-5.28,9-10.72h-4.75c-1.02,2-2.31,3.72-3.75,5.01-.15-.15-.48-.43-.69-.56,2.23-1.83,4-4.77,5.06-8l.82,.2c-.31,.88-.67,1.75-1.05,2.57h4.67l.18-.05,.52,.26Z"/><path class="bg" d="M612.25,135.25v10.72h-.8v-1.41h-11.13v1.47h-.79v-10.77h.79v8.5h5.08v-12.09h.8v12.09h5.24v-8.52h.8Z"/></g><rect class="be" x="218.28" y="509.6" width="163.31" height="30.03"/><circle class="bf" cx="481.61" cy="163.62" r="7"/><g><path class="bg" d="M240.34,520.15c.52,.61,2.06,2.49,2.41,2.98l-.57,.66c-.29-.56-1.2-1.85-1.84-2.7v7.05h-.75v-7.11c-.64,1.74-1.52,3.52-2.34,4.57-.1-.21-.31-.54-.46-.72,.97-1.16,2.11-3.41,2.67-5.33h-2.39v-.75h2.52v-5.46h.75v5.46h2.39v.75h-2.39v.61Zm-2.21-2.1c-.11-.93-.54-2.39-1-3.51l.61-.16c.49,1.11,.9,2.57,1.05,3.51l-.66,.16Zm2.84-.12c.43-.92,.93-2.52,1.21-3.61l.72,.25c-.41,1.18-.93,2.69-1.39,3.56l-.54-.2Zm9.8-1.66v11.75h-.79v-.85h-5.75v.97h-.77v-11.87h2.2c.33-.88,.67-2.15,.87-3.02l.8,.18c-.26,.92-.59,2-.9,2.83h4.34Zm-6.54,.75v4.24h5.75v-4.24h-5.75Zm5.75,9.39v-4.41h-5.75v4.41h5.75Z"/><path class="bg" d="M257,518.63c0,2.79-.23,6.75-1.9,9.5-.11-.13-.48-.31-.66-.39,1.61-2.72,1.77-6.44,1.77-9.11v-4.46h11.9v3.51h-11.11v.95Zm12.21,8.29v.69h-12.55v-.69h5.77v-2.15h-4.44v-.71h4.44v-1.64c-1.82,.08-3.49,.13-4.79,.18l-.08-.69,1.95-.07c.44-.62,.95-1.48,1.33-2.2h-3.57v-.69h11.37v.69h-6.92c-.43,.72-.92,1.52-1.38,2.18,1.72-.07,3.74-.13,5.75-.21-.59-.44-1.25-.88-1.85-1.25l.56-.41c1.33,.75,2.87,1.88,3.6,2.72l-.59,.47c-.25-.28-.56-.59-.95-.92-1.21,.07-2.46,.11-3.67,.16v1.66h4.7v.71h-4.7v2.15h6.01Zm-12.21-12.06v2.11h10.34v-2.11h-10.34Z"/><path class="bg" d="M273.89,516.33c-.33,.44-.74,.85-1.26,1.23-.13-.16-.36-.36-.52-.46,.87-.57,1.48-1.29,1.75-2l.69,.08c-.08,.2-.18,.39-.28,.57h5.06s0,.21-.02,.34c-.11,2.15-.25,2.93-.52,3.23-.18,.2-.36,.26-.66,.28-.23,.02-.61,0-.97-.02-.02-.18-.07-.39-.15-.54v.07h-3.61v-2.15h3.61v2.02c.39,.03,.72,.03,.87,.03,.15,.02,.25-.02,.33-.13,.16-.18,.26-.83,.38-2.56h-4.7Zm-1.64,4.96h14.77v.59h-14.77v-.59Zm2.29-6.6h-2.16v-.61h2.16v-.79h.7v.79h2.06v-.79h.72v.79h2.02v.61h-2.02v.66h-.72v-.66h-2.06v.66h-.7v-.66Zm1.84,2.85h-2.34v1h2.34v-1Zm-1.67,7.69h9.83v2.88h-.77v-.41h-8.31v.44h-.75v-2.92Zm9.75-2.03h-9.67v-.57h9.67v.57Zm-9.67,.77h9.67v.56h-9.67v-.56Zm.38-4h9v.56h-9v-.56Zm.29,5.85v1.31h8.31v-1.31h-8.31Zm10.14-10.59c-.36,1.08-.98,1.93-1.79,2.61,.89,.69,1.98,1.2,3.21,1.48-.18,.15-.36,.41-.48,.62-1.25-.36-2.36-.93-3.29-1.69-.88,.61-1.93,1.05-3.1,1.39-.07-.16-.28-.46-.43-.61,1.15-.28,2.18-.69,3.02-1.25-.59-.57-1.08-1.25-1.46-2-.36,.47-.75,.9-1.16,1.25-.11-.11-.41-.33-.57-.43,1.03-.82,1.9-2.02,2.36-3.34l.69,.15c-.15,.41-.31,.8-.52,1.18h4.82v.64h-1.29Zm-3.85,0c.34,.82,.87,1.56,1.54,2.16,.7-.57,1.25-1.28,1.56-2.16h-3.1Z"/><path class="bg" d="M294.6,520.95c-1.26,1.2-2.77,2.06-4.24,2.61-.08-.18-.28-.46-.43-.59,1.11-.36,2.26-.95,3.28-1.74-.49-.51-1.28-1.13-2-1.61-.23,.15-.48,.29-.72,.44-.1-.15-.31-.34-.48-.46,1.85-1.02,3.13-2.47,3.75-3.69l.74,.11c-.18,.33-.38,.66-.62,.98h2.57l.16-.03,.44,.23c-.52,1.44-1.36,2.65-2.38,3.65h5.59v.72h-5.67v-.64Zm.11,3.77c-1.02,1.23-2.7,2.38-4.21,3.1-.1-.15-.38-.44-.56-.59,1.51-.66,3.13-1.64,4.06-2.75l.7,.25Zm-3.61-7.59h-.74v-2.47h6.54v-1.38h.79v1.38h6.56v2.47h-.75v-1.77h-12.39v1.77Zm2.62,3.67c.31-.26,.61-.56,.88-.85-.49-.44-1.29-1-2.03-1.44-.26,.26-.56,.51-.87,.74,.74,.47,1.54,1.1,2.02,1.56Zm3.97,3.06v3.33c0,.49-.11,.72-.54,.83-.39,.13-1.13,.12-2.33,.12-.03-.2-.16-.46-.28-.69,1.05,.03,1.8,.02,2.06,0s.29-.08,.29-.26v-3.33h-5.18v-.71h11.13v.71h-5.16Zm-4.29-6.23c-.13,.15-.26,.29-.39,.44,.72,.39,1.51,.93,2.03,1.38,.44-.56,.82-1.16,1.1-1.82h-2.74Zm10.05-.36c-.62,1.11-1.61,2.31-2.49,3.15,1.08,.87,2.38,1.51,3.85,1.88-.18,.13-.39,.43-.51,.64-3.46-1-5.88-3.39-7.06-6.78l.64-.2c.54,1.57,1.41,2.93,2.57,4,.69-.62,1.39-1.49,1.88-2.28h-3.24v-.67h3.7l.15-.05,.51,.31Zm-3.21,7.26c1.48,.82,3.38,1.98,4.38,2.72l-.51,.57c-.98-.74-2.88-1.98-4.36-2.83l.49-.46Z"/><path class="bg" d="M316.57,521.44c-.95,.49-1.97,.95-2.98,1.34h7.1v5.29h-.77v-.57h-7.85v.61h-.74v-4.51c-1.13,.39-2.26,.71-3.39,1-.08-.18-.28-.52-.43-.71,2.52-.59,5.11-1.41,7.44-2.46h-7.15v-.69h6.34v-1.51h-4.77v-.67h4.77v-1.25h.77v1.25h3.88v.67h-3.88v1.51h1.46c1.61-.83,3.05-1.8,4.16-2.85l.64,.41c-.95,.9-2.08,1.7-3.34,2.44h4.44v.69h-5.7Zm4.8-4.24h-12.59v-3.21h12.59v3.21Zm-8.73-2.57h-3.1v1.92h3.1v-1.92Zm7.28,8.8h-7.85v1.34h7.85v-1.34Zm0,3.42v-1.46h-7.85v1.46h7.85Zm-3.33-12.23h-3.21v1.92h3.21v-1.92Zm4.02,0h-3.28v1.92h3.28v-1.92Z"/></g><rect class="bd" x="552.85" y="190.29" width="31.11" height="39.64" rx="2" ry="2"/><rect class="bd" x="590.84" y="190.29" width="94.95" height="29.81" rx="2.14" ry="2.14"/><circle class="bf" cx="229.05" cy="507.65" r="7"/><g><path class="bg" d="M285.41,151.93c-.36,1.49-.85,2.85-1.46,4.1,1.15,3.13,3.46,5.9,6.28,7.1-.18,.16-.44,.46-.56,.67-2.7-1.25-4.88-3.82-6.18-6.9-1.87,3.34-4.59,5.62-7.51,6.98-.13-.21-.39-.56-.59-.67,4.03-1.77,7.56-5.28,9-10.72h-4.75c-1.02,2-2.31,3.72-3.75,5.01-.15-.15-.48-.43-.69-.56,2.23-1.83,4-4.77,5.06-8l.82,.2c-.31,.88-.67,1.75-1.05,2.57h4.67l.18-.05,.52,.26Z"/><path class="bg" d="M306.78,152.8v10.72h-.8v-1.41h-11.13v1.47h-.79v-10.77h.79v8.5h5.08v-12.09h.8v12.09h5.24v-8.52h.8Z"/><path class="bg" d="M317.99,160.67h-6.08v1.29h-.7v-12.13h6.78v10.83Zm-6.08-10.11v4.23h2.34v-4.23h-2.34Zm0,9.39h2.34v-4.44h-2.34v4.44Zm5.36-9.39h-2.33v4.23h2.33v-4.23Zm0,9.39v-4.44h-2.33v4.44h2.33Zm8.41-8.19h-2.46v10.82c0,.66-.18,.95-.69,1.1-.51,.13-1.51,.13-3.08,.13-.05-.21-.18-.56-.29-.8,1.31,.03,2.49,.02,2.82,.02,.34-.02,.44-.12,.44-.43v-10.83h-4.15v-.77h7.41v.77Z"/><path class="bg" d="M333.29,152.33c-.48,.8-1.05,1.61-1.69,2.36v9.09h-.77v-8.24c-.74,.79-1.52,1.48-2.28,2.05-.1-.16-.36-.51-.52-.67,1.72-1.18,3.46-3,4.54-4.87l.72,.28Zm-.52-3.08c-.95,1.41-2.52,2.97-4.02,3.95-.1-.16-.33-.48-.46-.62,1.39-.92,2.93-2.36,3.7-3.61l.77,.28Zm9.14,7.19c-.71,1.92-1.9,3.44-3.36,4.64,1.31,.97,2.95,1.66,4.85,2.02-.18,.18-.39,.49-.51,.69-1.97-.41-3.62-1.16-4.98-2.23-1.47,1.07-3.15,1.8-4.82,2.26-.1-.2-.28-.52-.46-.69,1.61-.39,3.23-1.1,4.65-2.1-1.15-1.05-2.03-2.36-2.64-3.9l.56-.18h-1.62v-.74h7.65l.16-.05,.51,.28Zm-6.06-4.8c0,1.38-.39,3.03-2.25,4.16-.13-.15-.41-.41-.61-.52,1.79-1.03,2.08-2.46,2.08-3.64v-2.02h5.39v4.06c0,.33,.03,.52,.13,.59,.08,.05,.21,.05,.38,.05h.69c.18,0,.39-.02,.48-.05,.1-.05,.2-.16,.23-.33,.05-.23,.07-.7,.08-1.33,.16,.15,.41,.26,.62,.31,0,.59-.05,1.26-.13,1.49-.1,.25-.25,.39-.43,.46-.18,.08-.54,.11-.79,.11h-.88c-.31,0-.66-.05-.85-.2-.23-.16-.29-.39-.29-1.23v-3.23h-3.85v1.29Zm-.48,5.31c.56,1.41,1.41,2.64,2.54,3.62,1.23-.98,2.26-2.18,2.92-3.62h-5.46Z"/><path class="bg" d="M351.13,158.24c-1.69,.84-3.49,1.72-4.83,2.36l-.33-.77c.64-.26,1.46-.64,2.34-1.07v-5.47h-2.06v-.75h2.06v-3.51h.75v3.51h1.93v.75h-1.93v5.13l1.88-.9,.18,.72Zm2.87-1.79c-.23,.48-.52,.93-.85,1.36h7.31s-.02,.25-.03,.39c-.26,3.49-.52,4.75-.97,5.21-.23,.25-.49,.31-.85,.33-.34,.02-.98,.02-1.61-.02,0-.2-.08-.51-.2-.71,.67,.07,1.29,.08,1.52,.08,.26,0,.39-.02,.51-.16,.33-.33,.59-1.49,.82-4.44h-1.67c-.64,2.06-1.93,4.26-3.38,5.34-.13-.16-.39-.36-.61-.46,1.38-.97,2.65-2.95,3.31-4.88h-1.95c-.85,1.79-2.51,3.67-4.06,4.65-.13-.16-.36-.38-.56-.52,1.46-.82,3.02-2.51,3.9-4.13h-2.03c-.7,.82-1.51,1.52-2.31,2.06-.1-.13-.39-.39-.56-.52,1.38-.85,2.65-2.11,3.46-3.59h-2.56v-.72h10.28v.72h-6.92Zm5.72-1.8h-7.36v-5.16h7.36v5.16Zm-.75-4.52h-5.88v1.59h5.88v-1.59Zm0,2.25h-5.88v1.62h5.88v-1.62Z"/></g><g><path class="bg" d="M619.72,246.45c.8-.82,2.31-2.77,3.29-3.92,.8-.95,1.46-1.13,2.49-.16,.93,.88,2.43,2.46,3.38,3.46,1.1,1.16,2.72,2.93,3.98,4.28l-.74,.75c-1.2-1.44-2.67-3.1-3.79-4.34-.93-1.03-2.51-2.67-3.24-3.39-.71-.67-1-.61-1.61,.13-.87,1.03-2.36,2.93-3.15,3.85-.31,.36-.66,.82-.88,1.12l-.79-.79c.39-.33,.66-.61,1.05-.98Z"/><path class="bg" d="M639.39,247.45c.48-1.56,.49-4.92,.49-6.67,0-.38-.03-.69-.1-1h.98c-.03,.26-.07,.62-.07,1,0,1.74-.07,5.29-.51,6.92-.49,1.7-1.56,3.29-2.92,4.38l-.79-.52c1.34-.97,2.38-2.41,2.9-4.1Zm4.65,3.31v-9.96c0-.56-.05-.92-.07-1.1h.97c-.03,.18-.05,.54-.05,1.1v9.98c1.62-.75,3.88-2.36,5.21-4.38l.51,.72c-1.46,2-3.69,3.62-5.6,4.57-.23,.12-.39,.23-.49,.31l-.57-.48c.07-.23,.1-.51,.1-.77Z"/><path class="bg" d="M665.34,241.52c-.57,1.51-1.69,3.56-2.87,5,1.79,1.52,3.77,3.64,4.9,5l-.7,.62c-1.11-1.43-3.02-3.49-4.74-5.01-1.8,1.93-4.02,3.77-6.56,4.9l-.66-.71c2.64-1.05,5-2.98,6.77-4.95,1.13-1.29,2.46-3.42,2.88-4.9h-6.87c-.52,0-1.43,.07-1.49,.07v-.97c.1,0,.98,.08,1.49,.08h6.64c.43,0,.74-.03,.95-.1l.54,.43c-.08,.12-.25,.39-.29,.54Z"/><path class="bg" d="M675.62,245.88c0-3.82,2.11-6.18,5.15-6.18,1.41,0,2.51,.69,3.15,1.44l-.56,.64c-.64-.72-1.49-1.2-2.59-1.2-2.52,0-4.11,2.03-4.11,5.26s1.56,5.34,4.06,5.34c1.21,0,2.11-.51,2.97-1.44l.56,.62c-.92,1.07-2.03,1.7-3.57,1.7-2.95,0-5.05-2.38-5.05-6.19Z"/><path class="bg" d="M686.86,248.81c0-1.57,1.18-2.59,2.43-3.49-.49-1.02-.8-2.02-.8-2.93,0-1.54,1.03-2.69,2.54-2.69,1.33,0,2.06,.93,2.06,2.2,0,1.56-1.39,2.57-2.74,3.59,.82,1.44,2.05,2.87,3.26,3.92,.82-1.05,1.43-2.36,1.85-3.83h.9c-.48,1.62-1.16,3.13-2.11,4.38,.82,.62,1.62,1.08,2.29,1.31l-.29,.82c-.77-.25-1.66-.72-2.59-1.46-.88,.87-1.95,1.46-3.31,1.46-1.97,0-3.49-1.29-3.49-3.26Zm3.59,2.46c.95,0,1.82-.48,2.57-1.2-1.26-1.13-2.49-2.59-3.36-4.06-1,.79-1.84,1.64-1.84,2.75,0,1.51,1.18,2.51,2.62,2.51Zm-.46-6.46c1.2-.85,2.28-1.67,2.28-2.87,0-.77-.34-1.51-1.26-1.51-1.03,0-1.66,.87-1.66,1.93,0,.75,.25,1.59,.64,2.44Z"/><path class="bg" d="M699.08,245.88c0-3.82,2.11-6.18,5.15-6.18,1.41,0,2.51,.69,3.15,1.44l-.56,.64c-.64-.72-1.49-1.2-2.59-1.2-2.52,0-4.11,2.03-4.11,5.26s1.56,5.34,4.06,5.34c1.21,0,2.11-.51,2.97-1.44l.56,.62c-.92,1.07-2.03,1.7-3.57,1.7-2.95,0-5.05-2.38-5.05-6.19Z"/><path class="bg" d="M719,244.55c-1.77,.36-3.31,.67-3.95,.82l-.18-.92c.72-.08,2.33-.38,4.13-.72v-3.08c0-.46,0-.82-.08-1.29h1.02c-.07,.48-.1,.85-.1,1.29v2.92c3-.59,6.28-1.26,6.92-1.39,.29-.07,.56-.15,.69-.25l.61,.47c-.1,.15-.23,.36-.33,.52-.77,1.34-1.93,3.29-3.34,4.75l-.74-.44c1.31-1.23,2.59-3.2,3.1-4.25-.11,.03-3.69,.74-6.9,1.39v5.19c0,1.2,.51,1.56,2.56,1.56s3.44-.13,5.08-.44l-.05,.92c-1.52,.23-2.97,.34-5.18,.34-2.65,0-3.25-.75-3.25-2.16v-5.24Z"/><path class="bg" d="M740.74,248.58c2.36-1.52,4.28-3.92,5.16-5.83l.51,.88c-1.05,1.92-2.79,4.13-5.18,5.67-1.62,1.05-3.67,2.11-6.65,2.7l-.56-.87c3.03-.46,5.18-1.56,6.72-2.56Zm-1.56-5.13l-.64,.66c-.82-.82-2.83-2.57-4.06-3.38l.57-.61c1.16,.77,3.26,2.47,4.13,3.33Z"/><path class="bg" d="M757.06,240.13c-.15,.28-.33,.59-.52,.9h5.06c.41,0,.67-.03,.87-.12l.74,.43c-.1,.18-.23,.52-.28,.69-.46,1.64-1.39,3.67-2.65,5.36,.69,.51,1.33,1,1.88,1.46l-.61,.71c-.51-.46-1.15-.97-1.84-1.49-1.44,1.67-3.54,3.26-6.46,4.33l-.75-.67c2.7-.8,5.01-2.43,6.54-4.16-1.23-.9-2.59-1.8-3.77-2.54l.56-.56c1.21,.7,2.54,1.57,3.75,2.44,1.2-1.59,2.11-3.56,2.49-5.08h-6.05c-.98,1.43-2.41,3.05-4.34,4.38l-.71-.54c2.77-1.74,4.56-4.33,5.28-5.87,.11-.23,.33-.7,.39-1.03l.97,.31c-.2,.34-.43,.79-.56,1.07Z"/><path class="bg" d="M770.7,245.13h9.08c.85,0,1.34-.03,1.67-.07v1.02c-.29-.02-.9-.05-1.66-.05h-9.1c-.9,0-1.64,.02-2.08,.05v-1.02c.43,.03,1.11,.07,2.08,.07Z"/></g><g><path class="bg" d="M482.23,557.53c-2.11,3.74-7.06,6.13-11.13,7.06-.07-.21-.23-.54-.39-.72,2.11-.43,4.51-1.29,6.54-2.52-.77-.69-2.1-1.52-3.26-2.11-.79,.46-1.66,.87-2.59,1.25-.11-.2-.38-.44-.56-.59,2.97-1.1,5.18-2.72,6.33-4.13l.93,.2c-.38,.43-.8,.85-1.28,1.28h4.75l.16-.03,.49,.33Zm2.57,5.56c-2.1,4.69-7.44,6.82-12.59,7.59-.05-.21-.21-.56-.34-.74,2.65-.34,5.38-1.1,7.64-2.36-.84-.8-2.25-1.8-3.54-2.49-.92,.46-1.92,.9-3,1.28-.1-.18-.33-.46-.49-.61,3.47-1.11,6.05-2.88,7.33-4.44l.9,.21c-.38,.43-.8,.85-1.29,1.28h4.74l.16-.03,.49,.31Zm-8.87-5.13c-.39,.29-.82,.59-1.26,.87,1.21,.59,2.52,1.41,3.28,2.08,1.26-.85,2.34-1.84,3.11-2.95h-5.13Zm2.56,5.57c-.54,.39-1.15,.79-1.8,1.16,1.29,.71,2.72,1.67,3.54,2.44,1.46-.93,2.67-2.13,3.47-3.61h-5.21Z"/><path class="bg" d="M500.66,560.3c-.82,2.21-2.31,4.8-3.72,6.59,1.02,.71,1.93,1.44,2.52,2.1l-.57,.67c-1.26-1.39-3.93-3.25-6.29-4.39l.52-.61c1.02,.49,2.11,1.11,3.13,1.77,1.25-1.52,2.51-3.79,3.26-5.62h-6.05c-.98,1.95-2.21,3.8-3.67,5.21-.16-.15-.49-.36-.7-.49,2.44-2.29,4.24-5.87,5.19-8.95l.87,.21c-.36,1.05-.79,2.15-1.29,3.23h6.05l.16-.05,.59,.33Z"/><path class="bg" d="M519.58,564.78c-1.23,.97-2.98,2.08-4.41,2.8,1.36,1.18,3.16,1.97,5.38,2.36-.18,.18-.39,.49-.49,.69-4.11-.82-6.77-2.95-8.05-6.49h-3.18v5.19c1.54-.25,3.31-.56,5.05-.85l.05,.72c-2.7,.49-5.56,.98-7.49,1.31l-.2-.75c.52-.08,1.13-.18,1.8-.29v-12.09h4.62v-1.61h.8v1.61h4.98v6.77h-5.65c.44,1.16,1.07,2.15,1.88,2.98,1.41-.77,3.2-1.93,4.29-2.83l.61,.49Zm-10.75-6.69v2.29h8.83v-2.29h-8.83Zm0,5.33h8.83v-2.34h-8.83v2.34Z"/><path class="bg" d="M526.1,556.73v5.49c0,3.1-.26,6.11-2.34,8.52-.15-.16-.46-.41-.62-.53,1.95-2.26,2.18-5.13,2.18-8v-5.49h.79Zm5.29,.64v11.9h-.79v-11.9h.79Zm5.8-.72v13.96h-.8v-13.96h.8Z"/></g><path class="bi" d="M661.77,470.15l-2.61-9.55c-.18-.67,.21-1.36,.88-1.54l4.89-1.34,2.21-.6c.67-.18,1.36,.21,1.54,.88l5.29,18.95-24.5,38.69h-19.57c-.69,0-1.26-.56-1.26-1.26v-6.57c0-.69,.56-1.26,1.26-1.26h12.95c.43,0,.83-.22,1.06-.58l19.02-30.05c.19-.3,.24-.66,.15-1,0,0-.59-2.14-1.31-4.77Z"/><g><path class="bg" d="M683.72,435.32l.93-.11c.08,.69,.43,1.92,.79,2.93,1.16-.15,2.69-.43,3.82-.84l.08,.84c-1.08,.31-2.56,.57-3.64,.7,.51,1.36,1.31,2.79,2.03,3.79,.18,.26,.41,.51,.62,.72l-.46,.62c-.72-.2-2.65-.36-3.72-.43l.07-.71c.98,.08,2.28,.2,2.92,.26-.74-1.03-1.67-2.69-2.25-4.16-1.97,.18-4.39,.16-6.82-.03l-.03-.85c2.36,.28,4.8,.31,6.59,.16-.26-.75-.46-1.33-.57-1.74-.1-.34-.21-.79-.36-1.16Zm-4.34,10.06c0,1.67,1.54,2.41,4.1,2.44,1.59,.02,2.98-.15,4.13-.41l-.03,.85c-1.08,.2-2.41,.36-4.15,.34-2.97-.03-4.85-1.05-4.85-3.2,0-.85,.33-1.66,.74-2.54l.84,.2c-.46,.8-.77,1.49-.77,2.31Z"/><path class="bg" d="M701.41,435.32l.93-.11c.08,.69,.43,1.92,.79,2.93,1.16-.15,2.69-.43,3.82-.84l.08,.84c-1.08,.31-2.56,.57-3.64,.7,.51,1.36,1.31,2.79,2.03,3.79,.18,.26,.41,.51,.62,.72l-.46,.62c-.72-.2-2.65-.36-3.72-.43l.07-.71c.98,.08,2.28,.2,2.92,.26-.74-1.03-1.67-2.69-2.25-4.16-1.97,.18-4.39,.16-6.82-.03l-.03-.85c2.36,.28,4.8,.31,6.59,.16-.26-.75-.46-1.33-.57-1.74-.1-.34-.21-.79-.36-1.16Zm-4.34,10.06c0,1.67,1.54,2.41,4.1,2.44,1.59,.02,2.98-.15,4.13-.41l-.03,.85c-1.08,.2-2.41,.36-4.15,.34-2.97-.03-4.85-1.05-4.85-3.2,0-.85,.33-1.66,.74-2.54l.84,.2c-.46,.8-.77,1.49-.77,2.31Z"/><path class="bg" d="M720.83,436.66c-1.16,1.05-3.64,3.03-4.92,4.08-1.05,.9-1.1,1.2,.07,2.15,1.65,1.33,4.42,3.61,6.19,5.42l-.72,.66c-.28-.31-.61-.66-.95-1-1.26-1.26-3.79-3.44-5.33-4.7-1.51-1.23-1.28-1.83,.1-3,1.21-1.03,3.83-3.08,4.95-4.23,.23-.25,.59-.67,.74-.92l.8,.71c-.25,.21-.74,.66-.93,.83Zm1.66,4.57l-.66,.28c-.34-.64-.98-1.75-1.39-2.38l.61-.28c.39,.59,1.08,1.75,1.44,2.38Zm1.92-.77l-.64,.28c-.39-.69-1.02-1.69-1.46-2.31l.61-.29c.43,.54,1.11,1.64,1.49,2.33Z"/><path class="bg" d="M732.93,440.53c.61-1.92,2.46-4.36,4.69-4.36,2.1,0,3.56,2.15,3.56,5.51,0,4.49-2.88,6.39-6.77,7.08l-.51-.75c3.51-.51,6.42-2.1,6.42-6.31,0-2.62-.88-4.77-2.82-4.77-2.13,0-4.15,3.03-4.41,5.18-.11,.72-.11,1.31,.02,2.18l-.84,.07c-.07-.61-.16-1.49-.16-2.52,0-1.57,.38-4.21,.54-5.33,.07-.43,.08-.79,.13-1.25l.95,.03c-.41,1.44-.7,3.97-.8,5.24Z"/><path class="bg" d="M749.95,441.35h9.08c.85,0,1.34-.03,1.67-.07v1.02c-.29-.02-.9-.05-1.66-.05h-9.1c-.9,0-1.64,.02-2.08,.05v-1.02c.43,.03,1.11,.07,2.08,.07Z"/><path class="bg" d="M771.93,436.74c-.67,1.12-2.39,4.2-3.26,5.87,.9-.92,1.88-1.31,2.77-1.31,1.02,0,1.82,.66,1.87,1.9,.03,1.11,0,2.33,.05,3.2,.03,.93,.67,1.33,1.48,1.33,2.06,0,3.26-2.49,3.65-4.08l.69,.56c-.87,2.54-2.16,4.36-4.46,4.36-1.72,0-2.13-1.11-2.16-1.97-.05-1-.02-2.21-.07-3.26-.03-.79-.51-1.28-1.34-1.28-1.44,0-2.85,1.46-3.52,2.74-.52,.98-1.31,2.98-1.51,3.75l-.88-.31c1.2-3.33,4.93-10.06,5.82-11.65,.2-.36,.34-.69,.48-1.05l.93,.39c-.11,.18-.33,.49-.52,.82Z"/><path class="bg" d="M796.9,439.79v.75h-6.83v4.21c0,.49-.11,.74-.56,.85-.39,.13-1.18,.13-2.47,.13-.05-.21-.16-.51-.28-.72,1.08,.03,1.93,.03,2.21,.02,.25-.02,.31-.07,.31-.28v-4.21h-6.8v-.75h2.52v-3.95h.79v3.95h3.47v-5.36h.8v2.13h5.28v.74h-5.28v2.49h6.83Zm-10.06,1.72c-.88,1.38-2.25,2.75-3.44,3.64-.15-.11-.49-.38-.69-.48,1.25-.87,2.54-2.13,3.34-3.41l.79,.25Zm7.28,2.33c-1.26,3.33-4.46,4.93-9.82,5.56-.08-.25-.23-.54-.41-.75,5.24-.49,8.24-1.97,9.46-5.08l.77,.28Zm-.67-2.56c1.26,.98,2.69,2.39,3.33,3.38l-.66,.47c-.61-1-2.03-2.44-3.28-3.44l.61-.41Z"/><path class="bg" d="M803.32,446.22c.84,1.29,2.41,1.9,4.42,1.98,1.69,.07,5.33,.02,7.1-.08-.1,.18-.23,.54-.26,.8-1.69,.05-5.11,.08-6.82,.03-2.23-.08-3.75-.72-4.8-2.03-.82,.74-1.7,1.49-2.59,2.23l-.46-.8c.79-.54,1.77-1.33,2.64-2.08v-4.59h-2.51v-.75h3.28v5.29Zm-.1-8.28c-.54-.8-1.8-1.9-2.9-2.62l.56-.47c1.13,.69,2.38,1.79,2.95,2.59l-.61,.51Zm5.33,1c.11-.46,.25-1.07,.34-1.56h-4.62v-.69h3.1c-.21-.56-.72-1.36-1.23-1.95l.62-.26c.54,.57,1.07,1.39,1.26,1.93l-.54,.28h3.06c.43-.62,1.02-1.61,1.29-2.26l.8,.23c-.39,.69-.85,1.46-1.28,2.03h3.25v.69h-4.88c-.13,.54-.29,1.08-.44,1.56h3.95v7.64h-7.56v-7.64h2.87Zm3.92,.67h-6.03v1.64h6.03v-1.64Zm0,2.29h-6.03v1.66h6.03v-1.66Zm0,2.31h-6.03v1.69h6.03v-1.69Z"/><path class="bg" d="M820.91,440.33c.48,.62,1.66,2.38,1.93,2.82l-.48,.62c-.25-.52-.95-1.71-1.46-2.51v7.98h-.74v-8.46c-.57,2.02-1.39,4.08-2.2,5.28-.11-.2-.34-.49-.49-.66,1.02-1.44,2.08-4.21,2.57-6.6h-2.25v-.74h2.36v-3.64h.74v3.64h1.93v.74h-1.93v1.52Zm8.49-2.41c.79,1.11,2.06,2.2,3.25,2.72-.18,.15-.43,.43-.54,.61-.66-.34-1.33-.85-1.95-1.46v2.23h-5.11v-2.16c-.56,.54-1.21,1.05-1.97,1.49-.1-.2-.33-.43-.52-.52,1.41-.77,2.44-1.82,3.15-2.9h-2.72v-.71h3.13c.23-.43,.39-.85,.51-1.28-1.05,.08-2.13,.13-3.1,.15-.02-.16-.11-.43-.21-.57,2.57-.1,5.83-.36,7.47-.77l.52,.57c-1,.25-2.39,.43-3.87,.56-.13,.44-.29,.9-.51,1.34h5.38v.71h-2.9Zm2.57,10.41c0,.44-.1,.67-.46,.8-.36,.11-1,.11-2.06,.11-.03-.2-.16-.47-.26-.69,.87,.02,1.56,.02,1.79,0,.2-.02,.26-.07,.26-.23v-4.75h-7.26v5.7h-.74v-6.38h8.73v5.42Zm-5.83-.75v.8h-.67v-3.75h4.26v2.95h-3.59Zm3.29-7.9h-3.67v1.72h3.67v-1.72Zm-2.88-1.75c-.21,.38-.48,.77-.77,1.13h3.67c-.31-.36-.61-.75-.84-1.13h-2.06Zm-.41,7.31v1.75h2.93v-1.75h-2.93Z"/></g><path class="bg" d="M695.33,53.27v-11.31h.99l6.38,9.53v-9.53h1v11.31h-.97l-6.41-9.63v9.63h-.99Z"/><polygon class="bb" points="707.25 90.51 691.77 90.51 699.51 58.79 707.25 90.51"/><polygon class="ba" points="691.77 90.51 707.25 90.51 699.51 122.23 691.77 90.51"/><circle class="az" cx="699.45" cy="82.64" r="50.72"/><rect class="bd" x="352.26" y="339.78" width="240.92" height="89.55" rx="2" ry="2"/><g><path class="bg" d="M421.12,382.87c-.33,.83-.75,1.72-1.25,2.59v8.52h-.72v-7.39c-.51,.72-1.05,1.38-1.64,1.93-.08-.16-.29-.44-.44-.59,1.44-1.36,2.69-3.51,3.29-5.29l.75,.23Zm-1.62-1.51c-.51,.82-1.08,1.54-1.66,2.1-.13-.1-.46-.33-.66-.43,1.08-.98,2.03-2.42,2.62-3.92l.72,.2c-.18,.48-.41,.93-.64,1.38h4.72v.67h-3.26c.34,.57,.66,1.25,.8,1.69l-.7,.28c-.16-.54-.52-1.33-.92-1.97h-1.03Zm1.9,3h.7v7.9h-.7v-7.9Zm6.9,5.57c.88,1.28,2.46,2.47,3.95,3.03-.18,.11-.41,.38-.52,.57-1.49-.64-3.06-1.95-4-3.34v3.85h-.75v-3.72c-1.08,1.39-2.8,2.64-4.33,3.28-.13-.18-.33-.43-.51-.56,1.57-.57,3.31-1.79,4.33-3.11h-3.47v-.67h3.98v-1.44h.75v1.44h4.11v.67h-3.54Zm1.9-5.39c-.48,.88-1.21,1.61-2.1,2.2,1.16,.51,2.54,.87,4.03,1.03-.18,.16-.36,.44-.48,.64-1.56-.23-3-.66-4.21-1.28-1.25,.69-2.72,1.18-4.23,1.52-.08-.16-.31-.46-.46-.62,1.46-.28,2.85-.69,4.02-1.28-.77-.48-1.43-1.07-1.92-1.75-.49,.48-1.05,.92-1.69,1.33-.15-.16-.39-.38-.56-.47,1.57-.9,2.67-2.2,3.23-3.25l.77,.1c-.21,.39-.48,.79-.77,1.18h6.1v.66h-1.74Zm-4.49-3.18c-.54,.82-1.18,1.52-1.84,2.08-.15-.12-.44-.38-.66-.48,1.2-.93,2.25-2.31,2.82-3.85l.75,.2c-.18,.48-.41,.93-.66,1.38h5.78v.67h-3.77c.48,.54,.92,1.15,1.15,1.61l-.67,.34c-.26-.54-.82-1.33-1.39-1.95h-1.52Zm-.39,3.18c.49,.74,1.21,1.36,2.11,1.85,.82-.49,1.49-1.12,1.97-1.85h-4.08Z"/><path class="bg" d="M443.61,389.13c1.44,1.79,3.93,3.29,6.26,4-.18,.18-.41,.47-.54,.67-2.44-.84-5.1-2.61-6.59-4.64v4.83h-.79v-4.87c-1.52,1.97-4.23,3.72-6.52,4.59-.13-.2-.38-.49-.54-.66,2.16-.72,4.65-2.25,6.15-3.93h-5.88v-.72h6.8v-1.67h-5.6v-4.2h3.72v-1.74h-4.77v-.72h14.14v.72h-4.87v1.74h3.82v4.2h-5.65v1.67h6.88v.72h-6.01Zm-6.51-3.1h2.97v-2.79h-2.97v2.79Zm3.72-3.49h3v-1.74h-3v1.74Zm3,3.49v-2.79h-3v2.79h3Zm.75-2.79v2.79h3.05v-2.79h-3.05Z"/><path class="bg" d="M466.37,392.98c.51,0,.57-.39,.62-2.31,.21,.15,.52,.3,.75,.36-.07,2.1-.29,2.72-1.34,2.72h-2.11c-1.07,0-1.41-.28-1.41-1.43v-8.08h-4.2c-.33,4.16-1.44,7.77-5.51,9.75-.11-.18-.41-.46-.61-.62,3.9-1.8,4.98-5.21,5.29-9.13h-4.59v-.8h4.64c.08-1.34,.08-2.74,.08-4.13h.82c0,1.41-.02,2.79-.08,4.13h4.95v8.9c0,.52,.1,.64,.67,.64h2.02Z"/><path class="bg" d="M478.5,384.8c1.18,3.87,3.44,7.05,6.65,8.44-.21,.18-.44,.51-.59,.74-3.29-1.57-5.56-4.83-6.82-8.95-.69,3.41-2.43,7.01-6.78,8.96-.13-.21-.38-.49-.59-.64,4.26-1.82,5.93-5.29,6.62-8.55h-6.33v-.79h6.46c.29-1.87,.29-3.61,.31-4.85h.82c-.02,1.28-.03,3-.31,4.85h6.98v.79h-6.42Z"/><path class="bg" d="M495.87,393.16l-.48-.8c.44-.02,.97-.1,1.33-.16,2.1-.46,4.42-2.06,4.42-5.15,0-2.59-1.82-4.87-4.97-5.01-.2,1.62-.51,3.39-.97,4.9-1,3.39-2.25,4.95-3.61,4.95-1.25,0-2.67-1.47-2.67-4.15,0-3.44,3.08-6.46,6.95-6.46s6.08,2.64,6.08,5.8c0,3.44-2.34,5.64-6.1,6.08Zm-4.21-2.2c.8,0,1.84-1.13,2.75-4.23,.44-1.46,.77-3.11,.93-4.69-3.39,.3-5.6,3.15-5.6,5.62,0,2.31,1.11,3.29,1.92,3.29Z"/><path class="bg" d="M511.84,391.49c-.38-.38-1.36-1.21-2.08-1.77v4.29h-.75v-4.87c-.8,1.54-1.95,3.05-3.13,3.85-.08-.21-.26-.51-.38-.69,1.15-.77,2.38-2.28,3.11-3.8h-2.7v-.72h3.1v-2.11h.75v2.11h2.59v.72h-2.59v.49c.64,.43,2.2,1.57,2.56,1.87l-.48,.62Zm.87-9.49c-1.44,1.74-3.85,3.25-5.98,4-.11-.18-.34-.48-.51-.62,2.06-.66,4.36-2.02,5.74-3.57h-5.19v-.75h5.95v-1.92h.77v1.92h6.08v.75h-5.33c1.46,1.52,3.8,2.82,5.98,3.44-.18,.15-.41,.46-.54,.66-2.23-.72-4.7-2.21-6.19-3.92v4.23h-.77v-4.21Zm4.7,6.51c.89,1.61,2.29,3.26,3.52,4.08-.16,.15-.43,.43-.56,.61-1.21-.93-2.62-2.7-3.51-4.41v5.23h-.75v-5.15c-.92,1.8-2.34,3.49-3.74,4.38-.11-.18-.34-.43-.51-.57,1.38-.8,2.84-2.46,3.72-4.16h-2.43v-.72h2.95v-2.11h.75v2.11h3.62v.72h-3.08Z"/></g><g><path class="bg" d="M69.02,429.71c-.49,1.23-1.21,2.43-2.03,3.51,.56,.49,1.85,1.7,2.2,2.05l-.46,.66c-.38-.44-1.36-1.46-2-2.06v7.29h-.77v-6.7c-.82,.88-1.69,1.67-2.52,2.26-.1-.2-.31-.51-.46-.64,1.88-1.29,3.97-3.54,5.05-5.88h-4.47v-.74h2.41v-3.1h.77v3.1h1.69l.16-.05,.44,.31Zm8.88-2.49v.7h-8.59v-.7h8.59Zm-8.52,6.9h8.39v7.01h-.75v-.77h-6.9v.84h-.74v-7.08Zm.74,.7v2.05h2.98v-2.05h-2.98Zm2.98,4.83v-2.1h-2.98v2.1h2.98Zm3.9-10.37v3.57h-6.75v-3.57h6.75Zm-.75,.69h-5.26v2.21h5.26v-2.21Zm.77,4.85h-3.18v2.05h3.18v-2.05Zm0,4.83v-2.1h-3.18v2.1h3.18Z"/><path class="bg" d="M94.65,440.1c0,.57-.18,.85-.61,.98-.41,.13-1.16,.15-2.56,.13-.05-.2-.18-.52-.29-.74,1.08,.03,2.02,.03,2.28,.02,.29-.02,.41-.1,.41-.39v-12.09h-11.77v13.18h-.77v-13.93h13.31v12.85Zm-3.65-.88v-1h-6.15v1.23h-.72v-5.51h.72v3.57h2.67v-5.03h-4.47v-.7h10.06v.7h-4.85v5.03h2.74v-3.57h.72v5.28h-.72Zm-5.95-10.67c.66,.8,1.2,1.92,1.38,2.67l-.67,.25c-.2-.75-.74-1.87-1.34-2.69l.64-.23Zm6.47,.18c-.48,.95-1.05,2.08-1.54,2.82l-.61-.23c.48-.75,1.07-2.02,1.38-2.85l.77,.26Z"/><path class="bg" d="M102.79,428.06h.98v11.95h-.98v-11.95Z"/><path class="bg" d="M107.31,434.02c0-3.82,2.11-6.18,5.15-6.18,1.41,0,2.51,.69,3.15,1.44l-.56,.64c-.64-.72-1.49-1.2-2.59-1.2-2.52,0-4.11,2.03-4.11,5.26s1.56,5.34,4.06,5.34c1.21,0,2.11-.51,2.97-1.44l.56,.62c-.92,1.07-2.03,1.7-3.57,1.7-2.95,0-5.05-2.38-5.05-6.19Z"/></g><g><path class="bg" d="M52.26,514.78v.75h-14.45v-.75h6.77v-3.59h-5.36v-.75h5.36v-2.28h.79v2.28h5.62v.75h-5.62v3.59h6.9Zm-13.77-7.75c.72-.02,1.54-.05,2.47-.08,.66-1,1.48-2.47,2.02-3.64h-4.83v-.75h13.88v.75h-8.06c-.61,1.18-1.39,2.57-2.1,3.61,2.2-.07,4.8-.18,7.39-.29-.84-.74-1.77-1.47-2.64-2.07l.66-.44c1.69,1.15,3.75,2.85,4.74,4.02l-.7,.52c-.33-.39-.75-.84-1.26-1.33-4.26,.2-8.72,.41-11.52,.52l-.03-.82Z"/><path class="bg" d="M43.28,527.42c-.49,1.23-1.21,2.43-2.03,3.51,.56,.49,1.85,1.7,2.2,2.05l-.46,.66c-.38-.44-1.36-1.46-2-2.06v7.29h-.77v-6.7c-.82,.88-1.69,1.67-2.52,2.26-.1-.2-.31-.51-.46-.64,1.88-1.29,3.97-3.54,5.05-5.88h-4.47v-.74h2.41v-3.1h.77v3.1h1.69l.16-.05,.44,.31Zm8.88-2.49v.7h-8.59v-.7h8.59Zm-8.52,6.9h8.39v7.01h-.75v-.77h-6.9v.84h-.74v-7.08Zm.74,.7v2.05h2.98v-2.05h-2.98Zm2.98,4.83v-2.1h-2.98v2.1h2.98Zm3.9-10.37v3.57h-6.75v-3.57h6.75Zm-.75,.69h-5.26v2.21h5.26v-2.21Zm.77,4.85h-3.18v2.05h3.18v-2.05Zm0,4.83v-2.1h-3.18v2.1h3.18Z"/><path class="bg" d="M51.72,555.5c0,.57-.18,.85-.61,.98-.41,.13-1.16,.15-2.56,.13-.05-.2-.18-.52-.29-.74,1.08,.03,2.02,.03,2.28,.02,.29-.02,.41-.1,.41-.39v-12.09h-11.77v13.18h-.77v-13.93h13.31v12.85Zm-3.65-.88v-1h-6.15v1.23h-.72v-5.51h.72v3.57h2.67v-5.03h-4.47v-.7h10.06v.7h-4.85v5.03h2.74v-3.57h.72v5.28h-.72Zm-5.95-10.67c.66,.8,1.2,1.92,1.38,2.67l-.67,.25c-.2-.75-.74-1.87-1.34-2.69l.64-.23Zm6.47,.18c-.48,.95-1.05,2.08-1.54,2.82l-.61-.23c.48-.75,1.07-2.02,1.38-2.85l.77,.26Z"/><path class="bg" d="M45.38,562.59v2.54h5.31v5.88c0,.56-.13,.82-.59,.97-.49,.15-1.39,.15-2.87,.15-.05-.25-.18-.54-.29-.79,1.29,.03,2.28,.03,2.59,.02s.38-.1,.38-.34v-5.11h-4.52v8.44h-.8v-8.44h-4.29v6.31h-.77v-7.08h5.06v-2.54h-6.82v-.77h6.82v-2.46h.8v2.46h6.92v.77h-6.92Z"/></g><g><path class="bg" d="M761.56,514.78v.75h-14.45v-.75h6.77v-3.59h-5.36v-.75h5.36v-2.28h.79v2.28h5.62v.75h-5.62v3.59h6.9Zm-13.77-7.75c.72-.02,1.54-.05,2.47-.08,.66-1,1.48-2.47,2.02-3.64h-4.83v-.75h13.88v.75h-8.06c-.61,1.18-1.39,2.57-2.1,3.61,2.2-.07,4.8-.18,7.39-.29-.84-.74-1.77-1.47-2.64-2.07l.66-.44c1.69,1.15,3.75,2.85,4.74,4.02l-.7,.52c-.33-.39-.75-.84-1.26-1.33-4.26,.2-8.72,.41-11.52,.52l-.03-.82Z"/><path class="bg" d="M753.14,527.53c-.54-.75-1.62-1.97-2.57-2.82-.72,1.23-1.88,2.82-3.54,4.1-.15-.16-.36-.38-.54-.46,1.69-1.28,2.9-2.97,3.56-4.29h.84c1.02,.87,2.23,2.11,2.83,2.92l-.57,.56Zm8.28,1.88c-.49,2.61-1.39,4.67-2.57,6.26,.87,1.1,1.93,1.98,3.15,2.56-.18,.15-.43,.44-.56,.64-1.18-.62-2.21-1.51-3.08-2.59-.93,1.11-2.02,1.95-3.18,2.57-.11-.16-.38-.48-.54-.61,1.21-.61,2.31-1.46,3.24-2.59-1.11-1.56-1.93-3.49-2.49-5.67h-.2v.71c0,2.52-.25,5.93-2.11,8.23-.13-.15-.44-.36-.62-.46,.28-.34,.52-.72,.74-1.1l-.52,.26c-.11-.31-.28-.69-.48-1.08-1.77,.62-3.57,1.21-4.98,1.67l-.33-.75c.36-.1,.77-.21,1.2-.34v-8.83h2.18v-1.66h.7v1.66h2.08v5.15h-4.23v3.47c.95-.29,2.02-.62,3.06-.97-.28-.51-.61-1.05-.92-1.51l.64-.28c.67,.93,1.38,2.18,1.69,3,1.03-2.03,1.15-4.46,1.15-6.46v-5.82h7.03v.74h-6.28v3.64h5.6l.15-.05,.48,.21Zm-12.6-.48v1.56h3.49v-1.56h-3.49Zm3.49,3.85v-1.66h-3.49v1.66h3.49Zm3.82-2.8c.49,1.9,1.25,3.64,2.25,5.06,.95-1.34,1.7-3.03,2.15-5.06h-4.39Z"/><path class="bg" d="M751.65,551.47c-1.62,.83-3.36,1.72-4.67,2.38l-.29-.75c.62-.29,1.41-.67,2.28-1.08v-5.49h-1.98v-.75h1.98v-3.8h.75v3.8h1.79v.75h-1.79v5.13l1.77-.87,.16,.69Zm10.06-4.06c-.82,.77-1.92,1.66-2.77,2.26,.75,1.95,1.79,3.59,3.05,4.47-.18,.16-.46,.44-.61,.67-2.1-1.61-3.47-5.13-4.21-8.85h-.25c-.56,.51-1.2,1-1.87,1.47,3.33,2.83,3.47,7.47,1.95,8.64-.48,.39-.9,.51-1.54,.51-.33,0-.84-.02-1.34-.03-.02-.21-.08-.54-.21-.75,.56,.05,1.1,.07,1.41,.07,.41,0,.77-.02,1.08-.31,.74-.54,1.02-2.2,.49-4.01-1.48,1.59-3.88,3.31-5.8,4.24-.11-.2-.31-.48-.48-.64,2.05-.87,4.67-2.7,6.03-4.33-.18-.46-.41-.9-.7-1.34-1.02,.92-2.62,1.97-3.82,2.59-.11-.18-.33-.41-.51-.54,1.28-.56,3.02-1.62,3.98-2.54-.33-.41-.69-.8-1.11-1.18-.87,.57-1.79,1.07-2.64,1.46-.11-.13-.36-.43-.52-.56,1.59-.66,3.36-1.65,4.65-2.74h-3.24v-.72h7.6v.72h-2.47c.21,1.07,.51,2.1,.84,3.08,.85-.64,1.84-1.52,2.44-2.18l.57,.54Zm-9.26-2.13h-.75v-2.72h9.69v2.72h-.77v-1.98h-8.16v1.98Z"/><path class="bg" d="M754.68,562.59v2.54h5.31v5.88c0,.56-.13,.82-.59,.97-.49,.15-1.39,.15-2.87,.15-.05-.25-.18-.54-.29-.79,1.29,.03,2.28,.03,2.59,.02s.38-.1,.38-.34v-5.11h-4.52v8.44h-.8v-8.44h-4.29v6.31h-.77v-7.08h5.06v-2.54h-6.82v-.77h6.82v-2.46h.8v2.46h6.92v.77h-6.92Z"/></g><g><path class="bg" d="M119.4,210.92c.51,0,.57-.39,.62-2.31,.21,.15,.52,.3,.75,.36-.07,2.1-.3,2.72-1.34,2.72h-2.11c-1.07,0-1.41-.28-1.41-1.43v-8.08h-4.2c-.33,4.16-1.44,7.77-5.51,9.75-.11-.18-.41-.46-.61-.62,3.9-1.8,4.98-5.21,5.29-9.13h-4.59v-.8h4.64c.08-1.34,.08-2.74,.08-4.13h.82c0,1.41-.02,2.79-.08,4.13h4.95v8.9c0,.52,.1,.64,.67,.64h2.02Z"/><path class="bg" d="M107.88,219.04c-.33,1.36-.9,3.18-1.7,4.31l-.66-.33c.8-1.1,1.39-2.85,1.7-4.18l.66,.2Zm1.8-3.98v5c0,3.34-.33,6.82-3.13,9.54-.11-.2-.39-.43-.57-.56,2.65-2.59,2.92-5.87,2.92-8.96v-5.01h.79Zm1.49,4.03c.59,1.29,1.15,2.98,1.29,4l-.74,.28c-.13-1.05-.67-2.77-1.25-4.05l.69-.23Zm3.23-3.67v13.06h-.77v-13.06h.77Zm1.39,3.49c.8,1.28,1.64,2.95,1.95,3.98l-.7,.36c-.29-1.07-1.1-2.79-1.9-4.05l.66-.29Zm3.57-3.9v14.39h-.77v-14.39h.77Z"/><path class="bg" d="M118.69,234.77v12.49h-.8v-.88h-9.31v1h-.79v-12.6h4.08c.28-.72,.61-1.67,.79-2.33l.84,.15c-.26,.72-.57,1.54-.85,2.18h6.05Zm-10.11,.77v2.9h9.31v-2.9h-9.31Zm0,3.66v2.82h9.31v-2.82h-9.31Zm9.31,6.44v-2.87h-9.31v2.87h9.31Z"/><path class="bg" d="M120.17,254.53c-.21,7-.39,9.23-.93,9.9-.25,.36-.54,.46-1.02,.49-.43,.03-1.21,.02-1.97-.03-.02-.21-.11-.54-.23-.75,.85,.07,1.64,.07,1.95,.07,.29,0,.44-.03,.59-.21,.43-.52,.62-2.79,.82-9.18h-2.82c-.2,4.36-.93,8.1-3.95,10.26-.13-.16-.43-.41-.64-.52,.44-.31,.85-.66,1.2-1.03-2.64,.33-5.38,.66-7.31,.88l-.13-.74c1-.1,2.29-.23,3.69-.39v-1.69h-3.25v-.67h3.25v-1.21h-3.21v-4.79h3.21v-1.26h-3.72v-.67h3.72v-1.38c-1.1,.12-2.25,.18-3.26,.23-.03-.18-.13-.46-.21-.62,2.41-.15,5.46-.43,7.1-.8l.46,.61c-.89,.21-2.06,.38-3.33,.52v1.44h3.67v.67h-3.67v1.26h3.33v4.79h-3.33v1.21h3.34v.67h-3.34v1.61c1.11-.12,2.29-.26,3.44-.39v.18c1.57-2.06,2.05-4.93,2.21-8.16h-2.18v-.74h2.2c.05-1.21,.05-2.46,.05-3.74h.75c0,1.28-.02,2.52-.05,3.74h3.57v.46Zm-13.26,2.44h2.51v-1.43h-2.51v1.43Zm2.51,2.1v-1.47h-2.51v1.47h2.51Zm.75-3.52v1.43h2.62v-1.43h-2.62Zm2.62,2.05h-2.62v1.47h2.62v-1.47Z"/><path class="bg" d="M120.4,280.2h-6.92v2.57h-.79v-2.57h-6.83v-.74h6.83v-1.61h-5.06v-6.23h5.06v-1.44h-6.26v-.75h6.26v-1.56h.79v1.56h6.33v.75h-6.33v1.44h5.18v6.23h-5.18v1.61h6.92v.74Zm-12-5.8h4.29v-2.08h-4.29v2.08Zm4.29,2.77v-2.1h-4.29v2.1h4.29Zm.79-4.85v2.08h4.41v-2.08h-4.41Zm4.41,2.75h-4.41v2.1h4.41v-2.1Z"/><path class="bg" d="M109.06,297.34c.84,1.29,2.41,1.9,4.42,1.98,1.69,.07,5.33,.02,7.1-.08-.1,.18-.23,.54-.26,.8-1.69,.05-5.11,.08-6.82,.03-2.23-.08-3.75-.72-4.8-2.03-.82,.74-1.7,1.49-2.59,2.23l-.46-.8c.79-.54,1.77-1.33,2.64-2.08v-4.59h-2.51v-.75h3.28v5.29Zm-.1-8.28c-.54-.8-1.8-1.9-2.9-2.62l.56-.47c1.13,.69,2.38,1.79,2.95,2.59l-.61,.51Zm5.33,1c.11-.46,.25-1.07,.34-1.56h-4.62v-.69h3.1c-.21-.56-.72-1.36-1.23-1.95l.62-.26c.54,.57,1.07,1.39,1.26,1.93l-.54,.28h3.06c.43-.62,1.02-1.61,1.29-2.26l.8,.23c-.39,.69-.85,1.46-1.28,2.03h3.24v.69h-4.88c-.13,.54-.29,1.08-.44,1.56h3.95v7.64h-7.56v-7.64h2.87Zm3.92,.67h-6.03v1.64h6.03v-1.64Zm0,2.29h-6.03v1.66h6.03v-1.66Zm0,2.31h-6.03v1.69h6.03v-1.69Z"/></g><rect class="aq" x="619.32" y="287.08" width="39.21" height="29.21"/><polygon class="bh" points="58.68 478.54 58.68 495.07 36.32 495.07 58.68 478.54"/><polygon class="bh" points="745.38 478.54 745.38 495.07 767.75 495.07 745.38 478.54"/><g id="af"><path class="aw" d="M541.49,518.16c19.34,0,30.13-33.65,24.29-42.07-6.97-10.04-41.63-9.5-48.58,0-5.92,8.1,4.95,42.07,24.29,42.07Z"/><g><path class="be" d="M534.77,497.49h-10.98l3.38-3.51c.89-.93,1.59-1.71,2.1-2.36,.51-.64,.88-1.19,1.13-1.64s.4-.81,.46-1.09c.06-.28,.09-.51,.09-.71,0-.21-.03-.4-.1-.6-.07-.19-.17-.36-.3-.51-.13-.15-.29-.27-.48-.36s-.41-.14-.66-.14c-.48,0-.86,.16-1.13,.47-.27,.31-.41,.71-.41,1.18,0,.13,.02,.33,.05,.58h-3.87c0-.8,.13-1.52,.39-2.17,.26-.65,.62-1.21,1.09-1.68s1.03-.83,1.67-1.08c.65-.25,1.35-.38,2.13-.38s1.46,.12,2.11,.36,1.2,.58,1.67,1.01c.47,.43,.84,.95,1.1,1.55,.27,.6,.4,1.25,.4,1.94,0,.75-.16,1.44-.48,2.07-.32,.63-.83,1.28-1.53,1.95l-2.26,2.12h4.41v3Z"/><path class="be" d="M536.85,490.65c0-1.08,.14-2.07,.43-2.96,.28-.89,.68-1.64,1.19-2.27,.51-.63,1.12-1.11,1.83-1.46,.71-.34,1.49-.52,2.34-.52s1.62,.17,2.33,.52,1.32,.83,1.83,1.46c.51,.63,.9,1.38,1.19,2.27,.28,.89,.42,1.87,.42,2.96s-.14,2.07-.42,2.96c-.28,.89-.68,1.65-1.19,2.28-.51,.63-1.12,1.12-1.83,1.46s-1.49,.52-2.33,.52-1.64-.17-2.34-.52c-.71-.34-1.31-.83-1.83-1.46-.51-.63-.91-1.39-1.19-2.28-.28-.89-.43-1.87-.43-2.96Zm3.51,0c0,.6,.05,1.15,.16,1.65,.11,.49,.26,.92,.46,1.28,.2,.36,.44,.64,.71,.84,.28,.2,.59,.3,.94,.3s.65-.1,.93-.3,.52-.48,.71-.84c.19-.36,.34-.79,.45-1.28,.11-.5,.16-1.04,.16-1.65s-.05-1.14-.16-1.64c-.11-.5-.26-.93-.45-1.29-.19-.36-.43-.63-.71-.83-.28-.2-.59-.3-.93-.3s-.66,.1-.94,.3c-.28,.2-.52,.48-.71,.83-.2,.36-.35,.78-.46,1.29-.11,.5-.16,1.05-.16,1.64Z"/><path class="be" d="M553.95,486.85h-1.99v-3h5.54v13.64h-3.55v-10.64Z"/></g></g><g><polygon class="ap" points="372.51 280.78 342.15 280.78 332.84 296.3 342.15 311.82 372.51 311.82 381.08 296.3 372.51 280.78"/><g><path class="be" d="M355.87,301.52h-9.44l2.91-3.02c.77-.8,1.37-1.47,1.8-2.03,.44-.55,.76-1.02,.97-1.41s.34-.69,.4-.93c.05-.24,.08-.44,.08-.61,0-.18-.03-.35-.09-.51-.06-.17-.14-.31-.26-.44-.11-.13-.25-.23-.41-.31-.16-.08-.35-.12-.57-.12-.42,0-.74,.13-.97,.4s-.35,.61-.35,1.01c0,.11,.02,.28,.05,.5h-3.33c0-.68,.11-1.31,.33-1.87,.22-.56,.54-1.04,.94-1.45s.88-.72,1.44-.93c.55-.22,1.16-.33,1.83-.33s1.26,.1,1.81,.31c.55,.21,1.03,.5,1.44,.87,.4,.37,.72,.82,.95,1.33,.23,.51,.34,1.07,.34,1.67,0,.64-.14,1.24-.41,1.78-.27,.54-.71,1.1-1.31,1.67l-1.94,1.82h3.79v2.58Z"/><path class="be" d="M361.47,292.37h-1.71v-2.58h4.76v11.73h-3.05v-9.15Z"/></g></g><g><polygon class="ap" points="266.34 361.14 234.11 361.14 224.23 377.61 234.11 394.08 266.34 394.08 275.42 377.61 266.34 361.14"/><g><path class="be" d="M243.24,375.69c.09,.01,.16,.02,.22,.02h.15c.4,0,.72-.12,.97-.36,.25-.24,.37-.54,.37-.92s-.12-.67-.35-.89c-.23-.23-.53-.34-.9-.34-.39,0-.7,.13-.94,.39-.24,.26-.36,.59-.36,1h-2.94c.08-.64,.23-1.21,.48-1.7,.24-.5,.55-.92,.93-1.26s.82-.6,1.33-.78c.51-.18,1.07-.27,1.69-.27s1.15,.08,1.65,.25c.49,.17,.91,.41,1.27,.71,.35,.31,.62,.68,.81,1.12,.19,.44,.28,.93,.28,1.47,0,.58-.11,1.06-.33,1.44s-.54,.69-.95,.96c.63,.19,1.12,.54,1.47,1.05,.35,.5,.53,1.12,.53,1.86,0,.61-.12,1.16-.36,1.65-.24,.5-.57,.92-1,1.28-.43,.36-.94,.63-1.52,.83-.59,.19-1.24,.29-1.94,.29-.94,0-1.79-.18-2.55-.55-.76-.37-1.36-.95-1.82-1.75-.21-.36-.34-.71-.41-1.07-.07-.36-.11-.72-.11-1.09h3.15c.02,.57,.19,1.01,.5,1.3,.31,.3,.73,.45,1.26,.45,.56,0,.97-.15,1.23-.45,.26-.3,.39-.68,.39-1.12,0-.53-.16-.93-.47-1.2-.31-.27-.69-.41-1.12-.41-.11,0-.21,0-.31,.02-.1,.02-.21,.04-.32,.06v-1.99Z"/><path class="be" d="M259.31,373.61h-4.23l-.21,1.35c.19-.02,.37-.04,.54-.06,.16-.02,.33-.02,.5-.02,.62,0,1.19,.11,1.72,.32,.53,.22,.98,.51,1.36,.89,.38,.38,.68,.83,.89,1.36,.22,.53,.32,1.11,.32,1.74,0,.66-.12,1.25-.36,1.78-.24,.53-.59,.98-1.03,1.35-.44,.37-.98,.66-1.62,.86-.64,.2-1.35,.3-2.12,.3-.74,0-1.44-.09-2.1-.27-.67-.18-1.29-.45-1.87-.82l.47-2.98c.54,.46,1.09,.82,1.65,1.06s1.1,.36,1.61,.36c.65,0,1.16-.18,1.54-.53,.38-.35,.57-.79,.57-1.31,0-.61-.25-1.09-.76-1.47-.51-.37-1.17-.56-1.99-.56-.37,0-.75,.04-1.14,.12s-.77,.21-1.15,.38l1.02-6.57h6.4v2.69Z"/></g></g><g id="ag"><path class="bc" d="M759.87,322.02c-1.28-.87-2.56-2.24-2.34-6.09,0,0,0-.1,0-.15-.6-2.04-3.06-4.26-6.36-4.23,0,0,2.31,16.39-11.27,20.76-.07,.02-.08,.11-.02,.14l2.06,1.27c.2,.12,.43,.16,.66,.1,2.83-.69,10.77-2.36,13.86-10.75,.68,.59,1.87,1.05,3.86,1.24,.57,.05,1.14,.01,1.7-.13l.38-.1c.64-.16,1.15-.64,1.35-1.27,.05-.17,.1-.32,.14-.45s-.08-.25-.2-.22c-.23,.06-.59,.14-1.12,.23-.78,.14-2.31-.1-2.69-.36h0Z"/><path class="bc" d="M702.81,297.88v.89h0v9.03h0v16.5c0,.44,.1,.89,.32,1.27,1.4,2.53,3.68,4.83,6.55,5.46v-25.08c5.43,2.61,8.45,8.91,9.83,11.78v-4.06c-1.48-7.12-8.19-15-16.7-15.79h0Z"/><path class="bc" d="M792.15,323.7s-1.16-.25-1.84-1.27c-1.55-2.32-1.33-4.34-1.37-6.97,0-.34,0-.79-.02-1.31v-.04c0-.12-.01-.25-.03-.37,0-.06,0-.12-.01-.18,0-.05-.01-.1-.01-.15,0-.08-.02-.16-.03-.24,0-.04,0-.07-.01-.11-.02-.12-.04-.24-.06-.37,0-.02,0-.04-.01-.07-.02-.11-.04-.22-.07-.34,0-.02-.01-.05-.01-.07-.06-.27-.14-.54-.23-.81,0-.01,0-.03-.01-.04-.14-.41-.32-.82-.55-1.21,0,0,0-.02-.01-.03-.15-.26-.33-.5-.53-.73-.71-.82-1.73-1.46-3.19-1.7-.37-.06-1.12-.08-1.12-.08h-11.2v-3.48c0-.48-.12-.96-.38-1.37-1.48-2.36-3.86-3.62-6.49-4.55v9.41h-37.36v-7.66c0-.44-.11-.87-.34-1.24-1.48-2.4-3.87-3.67-6.53-4.61v25.48c0,.44,.1,.89,.32,1.27,1.4,2.53,3.68,4.83,6.55,5.46v-16.94h6.4c4.42,.27,5.54,2.7,5.41,4.64h0c-.13,.01-2.34-.07-3.23,.01-7.7,.69-8.01,9.76-1.49,11.53l3.38-2.85c-3.51-3.06-3.96-4.8-2.6-6.46,.77-.94,3.74-.64,3.95-.64,.33,5.03,2.41,8.9,7.79,9.95l.92-1.86s-1.16-.25-1.84-1.27c-1.55-2.32-1.33-4.34-1.37-6.97,0-1.26,.03-4.17-1.63-6.08h21.68v10.5c0,.44,.1,.89,.32,1.27,1.4,2.53,3.68,4.83,6.55,5.46v-17.23h6.22c4.42,.27,5.54,2.7,5.41,4.64h0c-.13,.01-2.34-.07-3.23,.01-7.7,.69-8.01,9.76-1.49,11.53l3.38-2.85c-3.51-3.06-3.96-4.8-2.6-6.46,.77-.94,3.74-.64,3.95-.64,.33,5.03,2.41,8.9,7.79,9.95l.92-1.86h0Z"/></g></g></g></svg>