<svg xmlns="http://www.w3.org/2000/svg" width="27.05" height="41.868" viewBox="0 0 27.05 41.868">
  <g id="グループ_422" data-name="グループ 422" transform="translate(-7.53 -1.891)">
    <path id="パス_2287" data-name="パス 2287" d="M16.54,3.1h-.99l.035.023L15.55,3.1V28.676L31.9,39.961a.658.658,0,0,0,.472.161.865.865,0,0,0,.518-.161l.472-26.048Z" transform="translate(1.216 0.183)" fill="#050c22"/>
    <path id="パス_2288" data-name="パス 2288" d="M9.59,6.1H8.6l.035.023L8.6,6.1V31.676L24.952,42.961a.658.658,0,0,0,.472.161.865.865,0,0,0,.518-.161l.472-26.048Z" transform="translate(0.162 0.637)" fill="#050c22"/>
    <path id="パス_2289" data-name="パス 2289" d="M24.126,15.878l6.76-2.948-.645,24.643L23.7,40.659Z" transform="translate(2.451 1.672)" fill="#bababa"/>
    <path id="パス_2290" data-name="パス 2290" d="M16.649,2.7a7.906,7.906,0,0,0-7.163.115C7.966,3.652,7.609,4.4,7.54,5.08a11.5,11.5,0,0,1,.069,1.175l1.7.138s-1.474-1.232,1.232-2.8a6.769,6.769,0,0,1,3.812-.656,9.845,9.845,0,0,1,2.361,1.152c1.3.841,1.175-.737,1.048-.806s-.253-.138-1.105-.587Z" transform="translate(0.002)" fill="#050c22"/>
    <path id="パス_2291" data-name="パス 2291" d="M9.46,6.449,16.415,3.8,33.044,14.314l-6.76,2.948Z" transform="translate(0.293 0.289)" fill="#fff"/>
    <path id="パス_2292" data-name="パス 2292" d="M9.752,32.585,7.53,30.961V4.66L9.752,6.307Z" transform="translate(0 0.419)" fill="#050c22"/>
    <path id="パス_2293" data-name="パス 2293" d="M9.476,2.69C7.956,3.531,7.6,4.279,7.53,4.959c.035.6.069,1.175.069,1.175" transform="translate(0 0.121)" fill="#050c22"/>
  </g>
</svg>
