<svg xmlns="http://www.w3.org/2000/svg" width="45.368" height="41.554" viewBox="0 0 45.368 41.554">
  <g id="グループ_423" data-name="グループ 423" transform="translate(-0.8 -3.308)">
    <path id="パス_2294" data-name="パス 2294" d="M22.49,39.477l17.458-7.941L22.573,23.43Z" transform="translate(4.017 3.726)" fill="#a5a5a5"/>
    <path id="パス_2295" data-name="パス 2295" d="M17.526,37.122,8.91,33.1l.047-6.412,8.616-3.923Z" transform="translate(1.502 3.604)" fill="#a5a5a5"/>
    <path id="パス_2296" data-name="パス 2296" d="M46.168,34.871V14.5a.89.89,0,0,0-.059-.308c0-.024-.024-.047-.036-.083a1.174,1.174,0,0,0-.13-.2c-.012-.024-.036-.036-.047-.059a.783.783,0,0,0-.237-.166s-22.566-10.3-22.577-10.3a.771.771,0,0,0-.391-.071.893.893,0,0,0-.344.071s-1.209.569-3.022,1.41C13.908,7.316,3.111,12.33,3.111,12.33c-.024.012-.047.036-.071.047H3s-.012.024-.024.024a.754.754,0,0,0-.261.284.09.09,0,0,1-.024.047.866.866,0,0,0-.095.391v9.612l1.778-.806V14.5L25.167,23.98V29.6L25.1,42.374l-5.132-2.347V24.643a.883.883,0,0,0-.521-.806l-8.616-3.958s-.107-.012-.154-.024a.748.748,0,0,1,.273.095.874.874,0,0,0-.853-.059S6.88,21.337,2.85,23.162a2.322,2.322,0,0,1-.273.119l-1.256.569a.883.883,0,0,0-.521.806V40.264a.907.907,0,0,0,.4.747.865.865,0,0,0,.486.142.828.828,0,0,0,.367-.083l7.917-3.579c6.542,3.046,15.431,7.182,15.514,7.23a.865.865,0,0,0,.486.142.794.794,0,0,0,.367-.083L45.647,36a.883.883,0,0,0,.521-.806v-.356ZM21.825,20.543,5.6,13.147,21.825,5.6ZM18.186,25.26v.557l-6.838,3.117v-6.8l6.838,3.141Zm-.036,13.961-6.8-3.129V30.877l6.838-3.105ZM2.578,25.26l6.981-3.153V30.3l-.036,5.487L2.578,38.925V25.272Zm23.466-2.8L23.6,21.349V5.586L43.158,14.51,26.044,22.475ZM26.933,42.6V27.654l16.225,7.561Zm17.458-8.77L26.933,25.686V24l17.458-8.118Z" fill="#050c22"/>
    <circle id="楕円形_97" data-name="楕円形 97" cx="0.948" cy="0.948" r="0.948" transform="translate(2.756 29.965)" fill="#050c22"/>
  </g>
</svg>
