<svg xmlns="http://www.w3.org/2000/svg" width="37.593" height="43.208" viewBox="0 0 37.593 43.208">
  <g id="グループ_421" data-name="グループ 421" transform="translate(-3.978 -1.16)">
    <path id="パス_2279" data-name="パス 2279" d="M35,26.672l-6.9-1.466-.045-.18a.647.647,0,0,0-.756-.451L20.55,26.3l-4.511-1.308a.6.6,0,0,0-.372.023L14.8,23.672a.617.617,0,0,0-.857-.18l-5.989,3.88a.621.621,0,0,0-.18.857l2.56,3.959a.617.617,0,0,0,.857.18l2.9-1.872a.584.584,0,0,0,.3.214l6.857,1.985a.871.871,0,0,0,.169.023.626.626,0,0,0,.6-.451l.068-.214,4.489-1.15a.516.516,0,0,0,.226.1L33.78,32.48s.09.011.124.011a.6.6,0,0,0,.338-.1A.619.619,0,0,0,34.513,32l.981-4.613a.62.62,0,0,0-.474-.733Zm-23.967,4.32L9.147,28.071l4.951-3.2,1.884,2.921Zm4.737-1.162,1.489-1.4a.04.04,0,0,1,.023-.034.542.542,0,0,0,.158-.282h0a.653.653,0,0,0-.034-.327v-.045l-.485-1.2,3.451,1h.068L21.949,28l-.97,3.338L15.768,29.83Zm7.647-2.177a.615.615,0,0,0-.068-.485.627.627,0,0,0-.248-.237l3.9-.993.857,3.372L22.58,30.665l.823-3Zm10,3.508-4.4-.936a.162.162,0,0,1,.023-.034.591.591,0,0,0,.113-.124c.011-.023.011-.045.023-.068s.023-.056.034-.079a.566.566,0,0,0,.023-.237v-.045L28.671,26.6l5.47,1.162-.722,3.395Z" transform="translate(0.472 2.842)" fill="#050c22"/>
    <path id="パス_2280" data-name="パス 2280" d="M6.112,28.339c1.207-2.053,2.628-5.278,1.816-7.624-1.071-3.135-3.609-2.5-3.914-5.921C3.6,10.079,6.89,6.616,9.834,5.15a8.069,8.069,0,0,0-2.673,7.026c.609,3.226,3.384,2.256,4.94,6.147s-4.286,9.023-6,10.015Z" transform="translate(0 0.51)" fill="#050c22"/>
    <path id="パス_2281" data-name="パス 2281" d="M12.3,14.615C11.2,13.578,9.957,13.126,9.754,10.8c-.417-4.714,2.876-8.177,5.82-9.643-2.29,2.233-3.1,4.985-2.5,7,.553,1.861,1.635,2.132,2.978,3.259A6.516,6.516,0,0,0,12.314,14.6Z" transform="translate(0.733)" fill="#050c22"/>
    <path id="パス_2282" data-name="パス 2282" d="M38.7,14.087H26.072c-.9-2.075-3.474-3.587-6.564-3.587-3.835,0-6.948,2.312-6.948,5.166s3.113,5.166,6.948,5.166a7.206,7.206,0,0,0,6.372-3.192H38.692a1.782,1.782,0,1,0,0-3.564Zm-.169,2.391H23.94c-.5,1.489-2.278,2.594-4.432,2.594-2.526,0-4.579-1.523-4.579-3.406s2.053-3.406,4.579-3.406c2.335,0,4.241,1.308,4.523,2.989h14.5a.614.614,0,0,1,.609.609.621.621,0,0,1-.609.609Z" transform="translate(1.097 1.194)" fill="#050c22"/>
    <path id="パス_2283" data-name="パス 2283" d="M30.509,36.773a.682.682,0,0,1-.722-.62.675.675,0,0,1,.722-.62H39.9V34.28H30.509a.682.682,0,0,1-.722-.62.675.675,0,0,1,.722-.62H39.9V30.761a2.041,2.041,0,0,0-2.041-2.041H6.181A2.041,2.041,0,0,0,4.14,30.761V33.04H13a.682.682,0,0,1,.722.62.675.675,0,0,1-.722.62H4.14v1.252H13a.682.682,0,0,1,.722.62.675.675,0,0,1-.722.62H4.14V38.8a2.041,2.041,0,0,0,2.041,2.041H37.874A2.041,2.041,0,0,0,39.915,38.8v-2.03H30.52Z" transform="translate(0.021 3.523)" fill="#050c22"/>
    <path id="パス_2284" data-name="パス 2284" d="M20.738,25.573a.869.869,0,0,1-.868-.868V17.328a.868.868,0,0,1,1.737,0V24.7A.862.862,0,0,1,20.738,25.573Z" transform="translate(2.031 1.956)" fill="#050c22"/>
    <path id="パス_2285" data-name="パス 2285" d="M18.478,23.486a.869.869,0,0,1-.868-.868v-5.29a.868.868,0,0,1,1.737,0v5.29A.869.869,0,0,1,18.478,23.486Z" transform="translate(1.742 1.956)" fill="#050c22"/>
    <path id="パス_2286" data-name="パス 2286" d="M16.228,22.257a.862.862,0,0,1-.868-.868v-4.06a.868.868,0,0,1,1.737,0v4.06A.869.869,0,0,1,16.228,22.257Z" transform="translate(1.455 1.956)" fill="#050c22"/>
  </g>
</svg>
