<svg xmlns="http://www.w3.org/2000/svg" width="14.824" height="34.207" viewBox="0 0 14.824 34.207">
  <g id="walk_man_svg" transform="translate(-18.28 -6.48)">
    <circle id="楕円形_74" data-name="楕円形 74" cx="2.645" cy="2.645" r="2.645" transform="translate(22.777 6.48)" fill="#02131d"/>
    <path id="パス_1980" data-name="パス 1980" d="M33.013,40.747l-3.1-7.223-.507-5a1.2,1.2,0,0,1-.162.015h-.764a1.16,1.16,0,0,1-1.154-1.154V22.216l-2.079-4.592a1.456,1.456,0,0,1,.242-1.543l.382-.22a1.044,1.044,0,0,1,.544-.147l-.242.162a1.208,1.208,0,0,0-.345,1.514l2.094,4.218v4.96a1.042,1.042,0,0,0,.955,1.11h.632a1.047,1.047,0,0,0,.955-1.11V21.429a1.432,1.432,0,0,0-.015-.184,1.257,1.257,0,0,0-.118-.691L28.6,17.072c-.162-.8-1.19-2.432-2.359-2.432l-.985.059a2.6,2.6,0,0,0-2.44,2.741l.051.838-.36,1.962a1.141,1.141,0,0,0-.36.265l-3.578,3.99a1.159,1.159,0,0,0,.088,1.631l.566.507a1.159,1.159,0,0,0,1.631-.088L23.2,23.935l.14,2.41L21.954,33a.55.55,0,0,0-.037.118l-1.543,8.34a1.061,1.061,0,0,0,.845,1.227l.838.154a1.061,1.061,0,0,0,1.227-.845l1.506-8.142,1.168-2.381.948,2.447a1.452,1.452,0,0,0,.059.191l.14.331.015.044a.623.623,0,0,0,.11.257L30.3,41.893a1.058,1.058,0,0,0,1.381.551l.786-.338a1.058,1.058,0,0,0,.551-1.381Z" transform="translate(0 -2.164)" fill="#02131d"/>
  </g>
</svg>
