<svg xmlns="http://www.w3.org/2000/svg" width="40" height="41.585" viewBox="0 0 40 41.585">
  <g id="bsket_svg" data-name="bsket svg" transform="translate(0 0.5)">
    <path id="パス_1080" data-name="パス 1080" d="M40.544,48.892H11.785L10.24,29.53H42.09Z" transform="translate(-6.165 -8.92)" fill="none" stroke="#0c1937" stroke-linecap="round" stroke-linejoin="round" stroke-width="2"/>
    <path id="パス_1081" data-name="パス 1081" d="M14.31,21.338,15.51,9.95H37.923l1.209,11.388" transform="translate(-6.721 -7.708)" fill="none" stroke="#0c1937" stroke-linecap="round" stroke-linejoin="round" stroke-width="2"/>
    <line id="線_117" data-name="線 117" x2="30.71" transform="translate(4.645 27.739)" fill="none" stroke="#0c1836" stroke-linecap="round" stroke-linejoin="round" stroke-width="2"/>
    <line id="線_118" data-name="線 118" x2="29.76" transform="translate(5.12 33.724)" fill="none" stroke="#0c1836" stroke-linecap="round" stroke-linejoin="round" stroke-width="2"/>
    <line id="線_119" data-name="線 119" x2="1.77" y2="19.925" transform="translate(13.512 20.075)" fill="none" stroke="#0c1836" stroke-linecap="round" stroke-linejoin="round" stroke-width="2"/>
    <line id="線_120" data-name="線 120" x1="1.77" y2="19.925" transform="translate(23.475 20.047)" fill="none" stroke="#0c1836" stroke-linecap="round" stroke-linejoin="round" stroke-width="2"/>
    <path id="パス_1082" data-name="パス 1082" d="M44.631,20.909H41.307c0-.084.026-.169.026-.253a3.413,3.413,0,1,0-6.8,0,2.519,2.519,0,0,0,.026.253H16.675c0-.084.026-.169.026-.253a3.553,3.553,0,0,0-3.4-3.7,3.553,3.553,0,0,0-3.4,3.7,2.518,2.518,0,0,0,.026.253H6.409a.929.929,0,0,0-.889.966v5.91a.929.929,0,0,0,.889.966H44.631a.929.929,0,0,0,.889-.966v-5.91A.929.929,0,0,0,44.631,20.909Z" transform="translate(-5.52 -8.142)" fill="#0c1937"/>
    <rect id="長方形_173" data-name="長方形 173" width="16.508" height="4.503" rx="1.1" transform="translate(11.75 0)" fill="#fff" stroke="#0c1937" stroke-miterlimit="10" stroke-width="1"/>
  </g>
</svg>
