<svg xmlns="http://www.w3.org/2000/svg" width="30" height="40" viewBox="0 0 30 40">
  <g id="knife_svg" data-name="knife svg" transform="translate(0)">
    <path id="パス_1083" data-name="パス 1083" d="M26.5,17.426c0-2.02-1.894-9.962-1.894-9.962a1.988,1.988,0,0,0-2.086-1.875h-.435v9.648a.92.92,0,0,1-.982.823h-.273a.92.92,0,0,1-.982-.823V5.58H17.233v9.648a.92.92,0,0,1-.982.823h-.273a.92.92,0,0,1-.982-.823V5.58h-.425a1.988,1.988,0,0,0-2.086,1.875s-1.793,8.6-1.793,10.14c0,1.281,1.945,3.42,5.509,4.115a1.112,1.112,0,0,0-.03.263v22.2A1.559,1.559,0,0,0,17.85,45.58h1.489a1.559,1.559,0,0,0,1.681-1.409v-22.2a.907.907,0,0,0-.03-.238C24.555,21.1,26.5,19.106,26.5,17.426Z" transform="translate(-10.69 -5.58)" fill="#0c1937"/>
    <path id="パス_1084" data-name="パス 1084" d="M40.449,5.58c-.942.212-2.107,0-3.869,2.893s-5.125,12.711-5.53,16.419c-.213,1.96.557,2.393,1.124,2.749.7.45,3.008.6,5.246.628V44.161A1.559,1.559,0,0,0,39.1,45.57h1.489a1.559,1.559,0,0,0,1.681-1.409V5.58H40.459Z" transform="translate(-12.272 -5.58)" fill="#0c1937"/>
  </g>
</svg>
