<?xml version="1.0" encoding="utf-8"?>
<!-- Generator: Adobe Illustrator 27.2.0, SVG Export Plug-In . SVG Version: 6.00 Build 0)  -->
<svg version="1.1" id="レイヤー_1" xmlns="http://www.w3.org/2000/svg" xmlns:xlink="http://www.w3.org/1999/xlink" x="0px"
	 y="0px" viewBox="0 0 534 274.7" style="enable-background:new 0 0 534 274.7;" xml:space="preserve">
<style type="text/css">
	.st0{fill:#C8D7EC;}
	.st1{fill:#233441;}
	.st2{fill:none;stroke:#0C1937;stroke-linecap:round;stroke-linejoin:round;}
	.st3{fill:none;stroke:#0C1937;stroke-width:0.5;stroke-linecap:round;stroke-linejoin:round;}
	.st4{fill:#0C1937;}
	.st5{fill:none;stroke:#0C1937;stroke-linecap:round;}
	.st6{fill:#FFFFFF;stroke:#0C1937;stroke-width:1.25;stroke-linecap:round;stroke-linejoin:round;}
	.st7{fill:none;stroke:#0C1937;stroke-width:1.5;}
	.st8{fill:#050C22;}
	.st9{fill:#FFFFFF;}
	.st10{enable-background:new    ;}
</style>
<g id="_2F_floor_SVG" transform="translate(0.5 0.5)">
	<rect id="長方形_136" x="439.1" y="0" class="st0" width="93.9" height="141.8"/>
	<g id="グループ_169" transform="translate(457.577 65.905)">
		<path id="パス_1045" class="st1" d="M0,1.2h1.1v7.1h0l6.1-7.1h1.3L4.4,6l4.8,8.2H7.9L3.7,6.9l-2.6,3v4.4H0.1L0,1.2L0,1.2z"/>
		<path id="パス_1046" class="st1" d="M10.7,1.6c0-0.5,0.4-0.8,0.9-0.8c0.4,0,0.8,0.4,0.8,0.8c0,0.4-0.3,0.8-0.7,0.9
			c0,0-0.1,0-0.1,0C11.1,2.5,10.8,2.1,10.7,1.6C10.7,1.6,10.7,1.6,10.7,1.6z M11.1,4.7h1v9.5h-1L11.1,4.7z"/>
		<path id="パス_1047" class="st1" d="M15.9,11.5v-6h-1.5V4.8l1.5-0.1l0.1-2.8h0.9v2.8h2.7v0.9h-2.7v6c0,1.2,0.3,2,1.6,2
			c0.4,0,0.8-0.1,1.2-0.3l0.3,0.8c-0.5,0.2-1,0.3-1.6,0.4C16.5,14.5,15.9,13.3,15.9,11.5L15.9,11.5z"/>
		<path id="パス_1048" class="st1" d="M21.2,9.5c0-3.2,2-5,4.4-5c1,0,2.1,0.4,2.8,1.2l-0.6,0.7c-0.6-0.6-1.3-1-2.2-1
			c-1.9,0-3.4,1.7-3.4,4.1s1.3,4.1,3.3,4.1c0.9,0,1.8-0.4,2.5-1l0.5,0.7c-0.8,0.8-1.9,1.2-3.1,1.2C23,14.5,21.1,12.7,21.2,9.5
			L21.2,9.5z"/>
		<path id="パス_1049" class="st1" d="M30.9,0h1v6.2c0.8-1,2-1.6,3.2-1.7c2,0,2.9,1.2,2.9,3.7v6.1h-1v-6c0-2-0.6-2.9-2.1-2.9
			c-1.1,0-1.9,0.6-3,1.7v7.1h-1L30.9,0L30.9,0z"/>
		<path id="パス_1050" class="st1" d="M40.7,9.5c0-3.1,2-5,4.2-5c2.3,0,3.7,1.6,3.7,4.5c0,0.2,0,0.5-0.1,0.7h-6.8
			c0.1,2.3,1.4,4,3.5,4c0.9,0,1.8-0.3,2.6-0.8l0.4,0.8c-0.9,0.6-2,0.9-3,0.9C42.7,14.5,40.7,12.6,40.7,9.5L40.7,9.5z M47.6,8.8
			c0-2.3-1-3.5-2.7-3.5c-1.6,0-3,1.3-3.1,3.5H47.6L47.6,8.8z"/>
		<path id="パス_1051" class="st1" d="M51.1,4.7h0.9l0.1,1.5h0c0.8-1,2-1.6,3.2-1.7c2,0,2.9,1.2,2.9,3.7v6.1h-1v-6
			c0-2-0.6-2.9-2.1-2.9c-1.1,0-1.9,0.6-3,1.7v7.1H51L51.1,4.7L51.1,4.7z"/>
	</g>
	<path id="パス_1052" class="st2" d="M533,273.7H0V68.4l25.8-52.8h266.3V0.1L498.4,0L533,0.1V273.7z"/>
	<g id="グループ_170" transform="translate(458.984 161.438)">
		<rect id="長方形_137" x="3.2" y="1.9" class="st3" width="31.6" height="21.4"/>
		<rect id="長方形_138" x="6" y="1.9" class="st3" width="2.3" height="21.4"/>
		<rect id="長方形_139" x="10.8" y="1.9" class="st3" width="2.3" height="21.4"/>
		<rect id="長方形_140" x="15.6" y="1.9" class="st3" width="2.3" height="21.4"/>
		<rect id="長方形_141" x="20.5" y="1.9" class="st3" width="2.3" height="21.4"/>
		<rect id="長方形_142" x="25.3" y="1.9" class="st3" width="2.3" height="21.4"/>
		<rect id="長方形_143" x="30.1" y="1.9" class="st3" width="2.3" height="21.4"/>
		<rect id="長方形_144" x="30.3" y="25" class="st3" width="2.3" height="22.1"/>
		<rect id="長方形_145" x="32.5" y="25" class="st3" width="2.3" height="22.1"/>
		<rect id="長方形_146" x="28" y="25" class="st3" width="2.3" height="22.1"/>
		<rect id="長方形_147" x="25.7" y="25" class="st3" width="2.3" height="22.1"/>
		<rect id="長方形_148" x="2.8" y="23.3" class="st3" width="35.2" height="1.6"/>
		<path id="パス_1053" class="st3" d="M58.4,1.1V0H0v1.7h56.8v45.5H0.4v1.6h58.1L58.4,1.1L58.4,1.1z"/>
		<line id="線_98" class="st3" x1="39" y1="36.2" x2="48.1" y2="36.2"/>
		<line id="線_99" class="st3" x1="41.6" y1="13.8" x2="48.1" y2="13.8"/>
		<line id="線_100" class="st3" x1="48.2" y1="36.2" x2="48.2" y2="13.8"/>
		<path id="パス_1054" class="st4" d="M36.5,36.2l5,1.8v-3.6L36.5,36.2z"/>
	</g>
	<path id="パス_1055" class="st2" d="M103.4,173.3v41.1h-31v-41.1H77"/>
	<line id="線_101" class="st2" x1="89" y1="173.3" x2="90.1" y2="173.3"/>
	<line id="線_102" class="st2" x1="77" y1="173.3" x2="77" y2="214.4"/>
	<g id="グループ_171" transform="translate(77.035 173.309)">
		<rect id="長方形_149" x="0" y="0" class="st3" width="11.9" height="26.3"/>
		<rect id="長方形_150" x="0" y="2.1" class="st3" width="11.9" height="2.3"/>
		<rect id="長方形_151" x="0" y="6.5" class="st3" width="11.9" height="2.3"/>
		<rect id="長方形_152" x="13" y="0" class="st3" width="13.4" height="10.9"/>
		<rect id="長方形_153" x="13" y="2.1" class="st3" width="13.4" height="2.3"/>
		<rect id="長方形_154" x="13" y="6.5" class="st3" width="13.4" height="2.3"/>
		<rect id="長方形_155" x="0" y="10.9" class="st3" width="11.9" height="2.3"/>
		<rect id="長方形_156" x="0" y="15.2" class="st3" width="11.9" height="2.3"/>
		<rect id="長方形_157" x="0" y="19.6" class="st3" width="11.9" height="2.3"/>
		<rect id="長方形_158" x="0" y="24" class="st3" width="11.9" height="2.3"/>
		<rect id="長方形_159" x="13" y="24" class="st3" width="13.4" height="2.3"/>
		<rect id="長方形_160" x="13" y="21.7" class="st3" width="13.4" height="2.3"/>
		<rect id="長方形_161" x="13" y="19.5" class="st3" width="13.4" height="2.3"/>
		<line id="線_183" class="st5" x1="26.4" y1="0.3" x2="26.4" y2="-14.7"/>
	</g>
	<g id="グループ_344" transform="translate(83.035 165.219)">
		<circle id="楕円形_89" class="st6" cx="5.9" cy="-0.5" r="3.7"/>
		<line id="線_182" class="st7" x1="3.4" y1="-0.5" x2="8.4" y2="-0.5"/>
	</g>
	<g id="グループ_345" transform="translate(64.275 151.259)">
		<circle id="楕円形_89-2" class="st6" cx="5.9" cy="-0.5" r="3.7"/>
		<line id="線_182-2" class="st7" x1="3.4" y1="-0.5" x2="8.4" y2="-0.5"/>
	</g>
	<rect id="長方形_162" x="77" y="199.6" class="st3" width="11.9" height="14.8"/>
	<rect id="長方形_163" x="89" y="173.3" class="st3" width="1" height="26.7"/>
	<path id="パス_1057" class="st3" d="M90.1,199.6h13.4v14.8H89V200"/>
	<rect id="長方形_164" x="107.5" y="175" class="st3" width="6.7" height="2"/>
	<rect id="長方形_165" x="114.2" y="175" class="st3" width="6.7" height="2"/>
	<path id="パス_1058" class="st2" d="M106.8,176h-3.4v20.6h21.5V176h-3.4"/>
	<path id="パス_1059" class="st2" d="M142.6,214.4h7.1v59.3H0v-59.3h61.1"/>
	<line id="線_106" class="st2" x1="69" y1="214.4" x2="127.6" y2="214.4"/>
	<rect id="長方形_166" x="215.8" y="208.1" class="st2" width="9.7" height="9.7"/>
	<rect id="長方形_167" x="289.9" y="208.1" class="st2" width="9.7" height="9.7"/>
	<rect id="長方形_168" x="363.9" y="208.1" class="st2" width="9.7" height="9.7"/>
	<rect id="長方形_169" x="125.4" y="174.7" class="st2" width="1.7" height="39.7"/>
	<rect id="長方形_170" x="368.8" y="217.7" class="st3" width="3.2" height="56"/>
	<circle id="楕円形_49" class="st2" cx="442.8" cy="213" r="5.2"/>
	<path id="パス_1060" class="st2" d="M61.1,214.4L0,214.4v-43.6h21.4v-11.3h10.9"/>
	<path id="パス_1061" class="st2" d="M47.6,159.5h27.2v13.8h-2.4l0.2,41.1H69"/>
	<path id="パス_1062" class="st2" d="M29.9,170.8h1.2v43.6H0v-43.6h23.1"/>
	<path id="パス_1063" class="st2" d="M56.2,170.8h0.9v43.7h-26v-43.7h17.8"/>
	<path id="パス_1064" class="st2" d="M26.1,141.8H0V68.4h34.6v73.3h-1.1"/>
	<path id="パス_1065" class="st2" d="M35.9,141.8h-1.3V68.4h34.6v73.3H44.5"/>
	<line id="線_107" class="st2" x1="95.9" y1="141.8" x2="95.9" y2="134.2"/>
	<line id="線_108" class="st2" x1="95.9" y1="127.6" x2="95.9" y2="100.2"/>
	<line id="線_109" class="st2" x1="69.2" y1="100.2" x2="95.9" y2="100.2"/>
	<line id="線_110" class="st2" x1="92.5" y1="90.5" x2="109.4" y2="90.5"/>
	<path id="パス_1066" class="st2" d="M96.2,141.8h-27V68.4h40.2v73.3h-1.7"/>
	<circle id="楕円形_50" class="st4" cx="82.5" cy="113.9" r="2.2"/>
	<path id="パス_1067" class="st4" d="M84.7,124.1h-4.4l-0.6-7.5h5.5L84.7,124.1z"/>
	<path id="パス_1068" class="st4" d="M83.6,130.2h-2.1l-0.3-6.1h2.7L83.6,130.2z"/>
	<circle id="楕円形_52" class="st4" cx="82.6" cy="76.3" r="2.2"/>
	<path id="パス_1071" class="st4" d="M86.3,88.9h-7.6l1.8-9.8h3.9L86.3,88.9z"/>
	<path id="パス_1072" class="st4" d="M83.6,92.6h-2.1l-0.3-6.1h2.7L83.6,92.6z"/>
	<rect id="長方形_171" x="109.4" y="126.7" class="st2" width="40.9" height="15.1"/>
	<line id="線_111" class="st2" x1="262.6" y1="141.8" x2="239.3" y2="141.8"/>
	<line id="線_112" class="st3" x1="261.3" y1="76.8" x2="261.3" y2="112.3"/>
	<line id="線_113" class="st3" x1="259.5" y1="99.8" x2="259.5" y2="134.8"/>
	<path id="パス_1075" class="st2" d="M226.4,141.8h-3.1V68.4h74.9v73.3h-22.1"/>
	<path id="パス_1076" class="st2" d="M217.3,141.8h6V68.4H109.4v58.1h40.9v15.2h2.9"/>
	<line id="線_114" class="st2" x1="183.6" y1="141.8" x2="189.2" y2="141.8"/>
	<path id="パス_1077" class="st2" d="M432.6,141.8h6.5V0.1h-147v68.4h6v73.3h79.5"/>
	<rect id="長方形_172" x="439.1" y="0" class="st2" width="93.9" height="141.8"/>
	<g id="maru7">
		<circle id="path7" class="st8" cx="417.4" cy="40.5" r="25.4"/>
		<path id="_x37_" class="st9" d="M413.6,53.1h5.2c0.4-9.8,1.4-14.9,7.2-22.1v-3.1h-17.2v4.3h11.7C415.7,38.9,414,44.4,413.6,53.1z"
			/>
	</g>
	<g id="maru8">
		<circle id="path8" class="st8" cx="417.4" cy="105.8" r="25.4"/>
		<path id="_x38_" class="st9" d="M417.4,118.9c5.2,0,8.7-3,8.7-6.9c0-3.4-2-5.2-4.3-6.6v-0.2c1.9-1.3,3.2-3.4,3.3-5.7
			c0-4.1-2.9-6.9-7.5-6.9c-4.5,0-7.8,2.7-7.8,6.8c0,2.7,1.5,4.5,3.4,6v0.1c-2.4,1.3-4.4,3.3-4.4,6.4
			C408.8,116,412.5,118.9,417.4,118.9z M419,103.9c-2.7-1-4.7-2.1-4.7-4.4c-0.1-1.6,1.1-3.1,2.8-3.2c0.1,0,0.3,0,0.4,0
			c1.8-0.1,3.3,1.3,3.4,3.1c0,0.2,0,0.3,0,0.5C420.8,101.4,420.2,102.9,419,103.9z M417.5,115.2c-2.4,0-4.3-1.5-4.3-3.8
			c0.1-1.8,1-3.4,2.4-4.4c3.3,1.4,5.7,2.3,5.7,4.8C421.3,114,419.7,115.2,417.5,115.2L417.5,115.2z"/>
	</g>
	<g id="maru9">
		<circle id="path9" class="st8" cx="256.7" cy="239.8" r="25.4"/>
		<path id="_x39_" class="st9" d="M252.7,235c0-3,1.6-4.5,3.5-4.5c2.1,0,3.9,1.6,4.4,5.8c-0.8,1.6-2.4,2.6-4.2,2.8
			C254.1,239.1,252.7,237.8,252.7,235z M255.4,252.9c5.2,0,10-4.2,10-13.8c0-8.7-4.4-12.4-9.3-12.4c-4.4-0.1-8.1,3.4-8.2,7.8
			c0,0.2,0,0.4,0,0.6c0,5.3,3.1,7.8,7.5,7.8c2.1-0.2,4-1.2,5.3-2.8c-0.2,6.5-2.7,8.7-5.6,8.7c-1.5,0-3-0.7-4-1.9l-2.7,3.1
			C250.2,251.8,252.8,252.9,255.4,252.9z"/>
	</g>
	<g id="maru10">
		<circle id="path10" class="st8" cx="191.7" cy="181.6" r="25.4"/>
		<g id="_x31_0" class="st10">
			<path id="_x31_" class="st9" d="M175.5,188.9h4.8v-13.5h-4v-2.7c2.2-0.4,3.8-1,5.2-1.9h3.3v18.1h4.2v3.6h-13.3V188.9z"/>
			<path id="_x30_" class="st9" d="M192.9,181.5c0-7.3,3-11.1,7.5-11.1c4.6,0,7.5,3.8,7.5,11.1c0,7.3-2.9,11.3-7.5,11.3
				C195.9,192.9,192.9,188.9,192.9,181.5z M203.8,181.5c0-6-1.4-7.7-3.3-7.7s-3.4,1.7-3.4,7.7c0,6,1.4,7.9,3.4,7.9
				S203.8,187.5,203.8,181.5z"/>
		</g>
	</g>
</g>
</svg>
