<svg xmlns="http://www.w3.org/2000/svg" width="305.165" height="245.988" viewBox="0 0 305.165 245.988">
  <g id="AccessMap__mobile__svg" transform="translate(0 1.16)">
    <path id="パス_2092" data-name="パス 2092" d="M272.394,80.17v2.971H18.434V80.17L8.84,87.183H282.012Z" transform="translate(3.311 105.07)" fill="#707070"/>
    <line id="m" x1="259.877" transform="translate(19.237 221.109)" fill="none" stroke="#707070" stroke-linecap="round" stroke-miterlimit="10" stroke-width="1.66"/>
    <g id="n" transform="translate(27.03 221.109)">
      <g id="グループ_301" data-name="グループ 301">
        <line id="線_157" data-name="線 157" x1="4.846" transform="translate(243.269)" fill="none" stroke="#fff" stroke-linecap="square" stroke-miterlimit="10" stroke-width="1"/>
        <line id="線_158" data-name="線 158" x1="224.105" transform="translate(9.619)" fill="none" stroke="#fff" stroke-linecap="square" stroke-miterlimit="10" stroke-width="1" stroke-dasharray="0 0 3.92 3.92"/>
        <line id="線_159" data-name="線 159" x1="4.846" fill="none" stroke="#fff" stroke-linecap="square" stroke-miterlimit="10" stroke-width="1"/>
      </g>
    </g>
    <path id="パス_2093" data-name="パス 2093" d="M18.37,90.185A13.563,13.563,0,0,1,31.885,76.67" transform="translate(16.988 100.047)" fill="none" stroke="#707070" stroke-linecap="round" stroke-miterlimit="10" stroke-width="1.66"/>
    <line id="o" y2="56.495" transform="translate(226.929 133.737)" fill="none" stroke="#707070" stroke-linecap="round" stroke-miterlimit="10" stroke-width="1.33"/>
    <line id="p" y2="230.193" transform="translate(86.082)" fill="none" stroke="#707070" stroke-linecap="round" stroke-miterlimit="10" stroke-width="1.66"/>
    <line id="q" y2="230.193" transform="translate(48.873)" fill="none" stroke="#707070" stroke-linecap="round" stroke-miterlimit="10" stroke-width="2.32"/>
    <line id="r" y2="230.193" transform="translate(48.873)" fill="none" stroke="#a5a5a5" stroke-linecap="round" stroke-miterlimit="10" stroke-width="1"/>
    <line id="s" y2="14.075" transform="translate(207.448 100.254)" fill="none" stroke="#707070" stroke-linecap="round" stroke-miterlimit="10" stroke-width="1.33"/>
    <line id="t" y2="80.895" transform="translate(188.089)" fill="none" stroke="#707070" stroke-linecap="round" stroke-miterlimit="10" stroke-width="1.33"/>
    <line id="u" y2="88.736" transform="translate(163.397)" fill="none" stroke="#707070" stroke-linecap="round" stroke-miterlimit="10" stroke-width="1.33"/>
    <line id="v" y2="42.371" transform="translate(139.192)" fill="none" stroke="#707070" stroke-linecap="round" stroke-miterlimit="10" stroke-width="1.33"/>
    <line id="w" y2="20.65" transform="translate(226.929 190.232)" fill="none" stroke="#707070" stroke-linecap="round" stroke-miterlimit="10" stroke-width="1"/>
    <rect id="長方形_215" data-name="長方形 215" width="20.772" height="10.568" rx="0.74" transform="translate(216.093 215.825)" fill="#fff" stroke="#555656" stroke-miterlimit="10" stroke-width="0.58"/>
    <rect id="長方形_216" data-name="長方形 216" width="20.138" height="10.568" rx="0.73" transform="translate(58.784 215.825)" fill="#fff" stroke="#555656" stroke-miterlimit="10" stroke-width="0.57"/>
    <g id="グループ_302" data-name="グループ 302" transform="translate(205.866 236.67)">
      <path id="パス_2094" data-name="パス 2094" d="M90.265,108.121a1.772,1.772,0,0,1-1.437-.536,2.271,2.271,0,0,1-.438-1.461h.536c0,.974.438,1.461,1.339,1.461s1.315-.487,1.315-1.461V101.79h.56v4.335a2.226,2.226,0,0,1-.438,1.461,1.718,1.718,0,0,1-1.412.536Z" transform="translate(-88.39 -100.572)" fill="#231815"/>
      <path id="パス_2095" data-name="パス 2095" d="M90.69,108.024V101.79h2.7a2,2,0,0,1,1.339.414,1.594,1.594,0,0,1,.463,1.218,1.49,1.49,0,0,1-1.607,1.632l1.583,3h-.633l-1.558-2.971H91.226v2.971H90.69Zm.536-3.507h2.119a1.426,1.426,0,0,0,.95-.268,1.241,1.241,0,0,0,0-1.656,1.52,1.52,0,0,0-.95-.268H91.226v2.216Z" transform="translate(-85.089 -100.572)" fill="#231815"/>
      <path id="パス_2096" data-name="パス 2096" d="M95.515,109.4v-3.774a7.394,7.394,0,0,1-.877,1.047.879.879,0,0,0-.122-.1c-.073-.049-.122-.1-.195-.146a.666.666,0,0,1-.122-.1,6.619,6.619,0,0,0,.779-.852c.243-.341.463-.682.682-1.047a10.533,10.533,0,0,0,.536-1.023l.487.17c-.1.195-.195.414-.292.609s-.219.414-.341.609v4.578h-.536Zm-.779-5.7a.88.88,0,0,0-.122-.1.855.855,0,0,0-.195-.122c-.073-.049-.1-.073-.122-.073a3.23,3.23,0,0,0,.657-.633,5.964,5.964,0,0,0,.95-1.485l.536.146s-.122.244-.195.365-.146.244-.219.39H98.51v.463H97.025c.073.146.122.292.195.438a4.309,4.309,0,0,1,.146.414.29.29,0,0,0-.146.049c-.073,0-.146.049-.219.049a.206.206,0,0,0-.146.049c-.049-.146-.1-.317-.17-.511s-.122-.365-.195-.511H95.71a5.136,5.136,0,0,1-.463.56c-.17.17-.317.341-.463.463Zm1.924,4.578v-3.726h.487v3.726Zm2.922,1.145v-1.778a8.583,8.583,0,0,1-1,.828,11.128,11.128,0,0,1-1.145.706.357.357,0,0,0-.073-.122.855.855,0,0,1-.122-.195c-.049-.049-.073-.1-.1-.122a6.392,6.392,0,0,0,1.193-.657,7.258,7.258,0,0,0,1.047-.852H97.634v-.438h2v-.8h.536v.8h2.119v.438H100.41a7.257,7.257,0,0,0,1.047.852,9.422,9.422,0,0,0,1.169.657.878.878,0,0,0-.1.122.854.854,0,0,0-.122.195c-.024.073-.073.1-.073.122a8.056,8.056,0,0,1-1.145-.706,8.718,8.718,0,0,1-1-.852v1.826h-.536Zm-1.9-3a.356.356,0,0,0-.073-.122,1.446,1.446,0,0,1-.1-.195.26.26,0,0,0-.073-.122,6.814,6.814,0,0,0,1.12-.292,5.654,5.654,0,0,0,.95-.438c-.146-.1-.292-.219-.438-.317s-.268-.244-.414-.365c-.122.122-.268.268-.414.39l-.438.365-.1-.1-.146-.146c-.049-.049-.1-.073-.122-.1a4.856,4.856,0,0,0,1-.852,7.169,7.169,0,0,0,.755-1l.438.219s-.122.195-.195.292a2.578,2.578,0,0,1-.243.292h2.922v.438h-.925a5.594,5.594,0,0,1-.877.877,5.458,5.458,0,0,0,.95.341c.341.1.706.17,1.1.243,0,0-.049.073-.073.122a.73.73,0,0,0-.1.195.26.26,0,0,1-.073.122c-.39-.073-.779-.195-1.145-.292a5.932,5.932,0,0,1-1.071-.463,6.68,6.68,0,0,1-1.023.511,10.768,10.768,0,0,1-1.242.39Zm.731-2.7a1.269,1.269,0,0,1-.122-.073,1.361,1.361,0,0,1-.195-.122.377.377,0,0,0-.146-.073,4.991,4.991,0,0,0,.584-.633,5.2,5.2,0,0,0,.487-.779,4.591,4.591,0,0,0,.317-.755l.536.122c-.049.122-.1.268-.146.39-.073.122-.122.268-.219.414h2.8v.463H100.58c.049.146.122.292.17.438s.1.292.122.39a.522.522,0,0,0-.146.024,1.311,1.311,0,0,0-.243.073.206.206,0,0,0-.146.049c-.049-.146-.1-.292-.146-.487a2.255,2.255,0,0,0-.195-.487h-.8a5.238,5.238,0,0,1-.828,1.047Zm1.485,1.266a2.459,2.459,0,0,0,.39-.317,2.255,2.255,0,0,0,.341-.341H99.046A4.656,4.656,0,0,0,99.9,104.991Z" transform="translate(-80.052 -101.29)" fill="#231815"/>
      <path id="パス_2097" data-name="パス 2097" d="M101.86,109.174v-2.435a7.035,7.035,0,0,1-1.023.779,12.167,12.167,0,0,1-1.218.706,7.238,7.238,0,0,1-1.218.511c0-.024-.049-.073-.073-.146-.049-.073-.073-.122-.122-.195a1.437,1.437,0,0,0-.1-.146,8.066,8.066,0,0,0,.877-.341c.317-.146.609-.292.925-.463a7.628,7.628,0,0,0,.877-.536c.268-.195.511-.365.731-.536H98.232v-.487h3.6v-.8H99.06v-2.265h1.851v-.9H98.354v-.487h7.525v.487H103.3v.9h1.851v2.265H102.4v.8H106v.487h-3.263a6.317,6.317,0,0,0,.731.511c.292.17.56.341.877.511s.609.317.925.463.609.244.877.341l-.1.146a.988.988,0,0,0-.122.219.377.377,0,0,0-.073.146,10.06,10.06,0,0,1-1.193-.536,11.807,11.807,0,0,1-1.193-.706,9.325,9.325,0,0,1-1.023-.779v2.435h-.56Zm-2.216-4.554h1.291v-1.291H99.644Zm1.826-1.778h1.315v-.9H101.47Zm0,1.778h1.315v-1.291H101.47Zm1.851,0h1.315v-1.291h-1.315Z" transform="translate(-74.441 -101.089)" fill="#231815"/>
      <path id="パス_2098" data-name="パス 2098" d="M101.98,108.23s.024-.292.049-.487,0-.414.024-.609v-.463h.438v1.071a2.662,2.662,0,0,1-.024.487H102Zm1.68.877s-.024-.17-.049-.268a1.511,1.511,0,0,0-.073-.243h.584c.243,0,.414-.024.487-.122a1.007,1.007,0,0,0,.219-.487c.024-.146.049-.341.1-.56a6.288,6.288,0,0,0,.073-.706c.024-.244.024-.511.024-.755H102.37v-4.5h3.214v.487h-1.218v.828h1.023v.463h-1.023v.828h1.023v.463h-1.023v.95h1.218a9.472,9.472,0,0,1-.073,1.461c-.073.463-.1.877-.17,1.193a1.152,1.152,0,0,1-.365.755,1.3,1.3,0,0,1-.779.195h-.511Zm-.8-1.1v-.438a3.6,3.6,0,0,0-.024-.511c-.024-.17,0-.317-.024-.414l.39-.049s.024.244.049.438,0,.341.024.511v.414h-.414Zm0-5.236h.974v-.828h-.974Zm0,1.291h.974v-.828h-.974Zm0,1.412h.974v-.95h-.974Zm.779,2.362a1.721,1.721,0,0,0-.049-.414,2.627,2.627,0,0,0-.073-.463c-.024-.146-.049-.292-.073-.39l.365-.049s.049.219.073.39.049.317.073.487c0,.146.049.292.049.39h-.1a.414.414,0,0,0-.17.024h-.1Zm.755-.219a3.136,3.136,0,0,0-.122-.584,5.334,5.334,0,0,0-.17-.56l.365-.1.122.365c.049.146.073.292.122.438a1.2,1.2,0,0,1,.073.365.243.243,0,0,0-.1.024.452.452,0,0,0-.17.049.243.243,0,0,1-.1.024Zm1.412,1.534s-.073-.049-.122-.073a1.448,1.448,0,0,0-.195-.1.81.81,0,0,1-.146-.073,4.193,4.193,0,0,0,.584-1.193,8.959,8.959,0,0,0,.268-1.485c.049-.536.073-1.071.073-1.656v-3.068H109.5v3.068h-1.437a6.087,6.087,0,0,0,.682,2.313,5.825,5.825,0,0,0,1.388,1.753.95.95,0,0,0-.122.1.568.568,0,0,0-.17.17l-.122.122a5.833,5.833,0,0,1-1.437-1.875,7.6,7.6,0,0,1-.682-2.557h-.755a12.56,12.56,0,0,1-.073,1.656,9.833,9.833,0,0,1-.292,1.558,4.425,4.425,0,0,1-.657,1.364Zm1-5.089h2.143V102.02H106.8Z" transform="translate(-68.887 -101.046)" fill="#231815"/>
    </g>
    <g id="グループ_303" data-name="グループ 303" transform="translate(48.703 236.694)">
      <path id="パス_2099" data-name="パス 2099" d="M25.725,108.121a1.772,1.772,0,0,1-1.437-.536,2.271,2.271,0,0,1-.438-1.461h.536c0,.974.438,1.461,1.339,1.461s1.315-.487,1.315-1.461V101.79h.56v4.335a2.226,2.226,0,0,1-.438,1.461,1.718,1.718,0,0,1-1.412.536Z" transform="translate(-23.85 -100.597)" fill="#231815"/>
      <path id="パス_2100" data-name="パス 2100" d="M26.15,108.024V101.79h2.7a2,2,0,0,1,1.339.414,1.594,1.594,0,0,1,.463,1.218,1.49,1.49,0,0,1-1.607,1.632l1.583,3H30l-1.558-2.971H26.686v2.971H26.15Zm.536-3.507H28.8a1.426,1.426,0,0,0,.95-.268,1.241,1.241,0,0,0,0-1.656,1.52,1.52,0,0,0-.95-.268H26.686v2.216Z" transform="translate(-20.549 -100.597)" fill="#231815"/>
      <path id="パス_2101" data-name="パス 2101" d="M29.91,109.174V101.43h3.117v3.093H30.47v4.651h-.56Zm.56-6.429h2.021v-.828H30.47Zm0,1.315h2.021v-.852H30.47Zm5.138,5.114a.941.941,0,0,0-.049-.292.565.565,0,0,0-.1-.243h.731c.122,0,.219,0,.268-.073a.323.323,0,0,0,.073-.244v-3.774H33.977v-3.093h3.117v6.989a.718.718,0,0,1-.195.536.826.826,0,0,1-.609.195h-.682Zm-1.1-6.429h2.021v-.828H34.512v.828Zm0,1.315h2.021v-.852H34.512v.852Z" transform="translate(-15.153 -101.113)" fill="#231815"/>
      <path id="パス_2102" data-name="パス 2102" d="M35.18,109.36v-4.31a7.812,7.812,0,0,1-.584,1.1c-.219.365-.438.657-.633.925a.879.879,0,0,0-.122-.1c-.073-.049-.122-.073-.195-.122s-.1-.073-.146-.073a7.733,7.733,0,0,0,.511-.657,8.393,8.393,0,0,0,.487-.779c.146-.268.292-.536.414-.8s.219-.511.292-.706v-.17H33.744v-.511H35.2V101.3h.536v1.851h1.242v.511H35.74v.852q.146.219.365.511a5.634,5.634,0,0,0,.487.584c.17.17.317.341.438.463a.88.88,0,0,1-.122.1,1.125,1.125,0,0,0-.17.17c-.049.049-.1.1-.122.1a5.656,5.656,0,0,1-.438-.511c-.17-.219-.317-.414-.463-.633v4.067H35.18Zm1.851-3.9a.88.88,0,0,0-.122-.1c-.073-.049-.122-.073-.195-.122a.377.377,0,0,0-.146-.073,4.993,4.993,0,0,0,.8-1.315,7.22,7.22,0,0,0,.487-1.558l.536.122a8.507,8.507,0,0,1-.511,1.632,6.514,6.514,0,0,1-.877,1.412Zm4.042,3.726a2.648,2.648,0,0,0-.195-.39c-.073-.146-.146-.292-.244-.463-.244.049-.536.1-.9.146l-1.1.146c-.39.049-.731.1-1.071.146a6.042,6.042,0,0,1-.8.073l-.122-.56a2.788,2.788,0,0,0,.365-.024,3.329,3.329,0,0,0,.463-.049c.122-.268.244-.56.365-.9l.365-1.023c.122-.341.219-.682.317-1.023a7.666,7.666,0,0,0,.219-.877l.56.146c-.1.365-.195.755-.341,1.169-.122.438-.268.852-.414,1.266s-.317.828-.463,1.193c.414-.049.828-.1,1.266-.146s.779-.1,1.1-.146c-.146-.292-.317-.56-.463-.8a6.656,6.656,0,0,0-.438-.633l.487-.268q.292.4.584.877c.195.341.39.657.56,1s.317.633.438.9a.377.377,0,0,0-.146.073c-.073.049-.146.073-.219.122a1.445,1.445,0,0,0-.146.1Zm.39-3.726a4.55,4.55,0,0,1-1.145-1.364,5.371,5.371,0,0,1-.657-1.875H38.468v-.511h1.656A4.635,4.635,0,0,0,41.9,105.05c-.024,0-.073.049-.146.122a1.126,1.126,0,0,0-.17.17l-.122.122Z" transform="translate(-10.001 -101.3)" fill="#231815"/>
      <path id="パス_2103" data-name="パス 2103" d="M37.43,108.23s.024-.292.049-.487,0-.414.024-.609v-.463h.438v1.071a2.662,2.662,0,0,1-.024.487h-.463Zm1.68.877s-.024-.17-.049-.268a1.514,1.514,0,0,0-.073-.243h.584c.244,0,.414-.024.487-.122.1-.073.146-.244.219-.487.024-.146.049-.341.1-.56a6.29,6.29,0,0,0,.073-.706c.024-.244.024-.511.024-.755H37.82v-4.5h3.214v.487H39.816v.828h1.023v.463H39.816v.828h1.023v.463H39.816v.95h1.218a9.471,9.471,0,0,1-.073,1.461c-.073.463-.1.877-.17,1.193a1.152,1.152,0,0,1-.365.755,1.3,1.3,0,0,1-.779.195h-.511Zm-.8-1.1v-.438a3.6,3.6,0,0,0-.024-.511c-.024-.17,0-.317-.024-.414l.39-.049s.024.244.049.438,0,.341.024.511v.414h-.414Zm0-5.236h.974v-.828h-.974Zm0,1.291h.974v-.828h-.974Zm0,1.412h.974v-.95h-.974Zm.779,2.362a1.721,1.721,0,0,0-.049-.414,2.628,2.628,0,0,0-.073-.463c-.024-.146-.049-.292-.073-.39l.365-.049s.049.219.073.39.049.317.073.487c0,.146.049.292.049.39h-.1a.414.414,0,0,0-.17.024h-.1Zm.755-.219a3.138,3.138,0,0,0-.122-.584,5.334,5.334,0,0,0-.17-.56l.365-.1.122.365c.049.146.073.292.122.438a1.2,1.2,0,0,1,.073.365.243.243,0,0,0-.1.024.452.452,0,0,0-.17.049.243.243,0,0,1-.1.024Zm1.412,1.534s-.073-.049-.122-.073a1.446,1.446,0,0,0-.195-.1.811.811,0,0,1-.146-.073,4.193,4.193,0,0,0,.584-1.193,8.958,8.958,0,0,0,.268-1.485c.049-.536.073-1.071.073-1.656v-3.068h3.239v3.068H43.518a6.087,6.087,0,0,0,.682,2.313,5.825,5.825,0,0,0,1.388,1.753.95.95,0,0,0-.122.1.569.569,0,0,0-.17.17l-.122.122a5.834,5.834,0,0,1-1.437-1.875,7.6,7.6,0,0,1-.682-2.557H42.3a12.562,12.562,0,0,1-.073,1.656,9.837,9.837,0,0,1-.292,1.558,4.425,4.425,0,0,1-.657,1.364Zm1-5.089h2.143V102.02H42.252Z" transform="translate(-4.361 -101.07)" fill="#231815"/>
    </g>
    <rect id="長方形_217" data-name="長方形 217" width="33.288" height="17.192" transform="translate(169.46 22.33)" fill="#fff"/>
    <rect id="長方形_218" data-name="長方形 218" width="33.288" height="16.51" transform="translate(81.358 196.296)" fill="#fff"/>
    <g id="グループ_304" data-name="グループ 304" transform="translate(170.459 28.174)">
      <path id="パス_2104" data-name="パス 2104" d="M74.191,22.232a.737.737,0,0,0-.17-.122c-.1-.073-.146-.1-.17-.122a4.421,4.421,0,0,1,.024-.487V16.12h.633v5.357a8.2,8.2,0,0,0,1.023-.414c.365-.17.755-.365,1.145-.584s.779-.438,1.145-.657.731-.463,1.023-.682.56-.438.779-.633a.368.368,0,0,0,.049.195,1.1,1.1,0,0,0,.073.268c.024.1.049.146.049.17a10.1,10.1,0,0,1-.877.682,9.818,9.818,0,0,1-1.12.706c-.39.244-.8.463-1.242.682q-.621.329-1.242.584c-.414.17-.779.317-1.12.438Z" transform="translate(-73.85 -15.024)" fill="#231815"/>
      <path id="パス_2105" data-name="パス 2105" d="M77.654,22.39a1.078,1.078,0,0,0-.122-.146c-.049-.073-.122-.122-.17-.195a.548.548,0,0,0-.122-.122A10.507,10.507,0,0,0,78.774,20.9a11.647,11.647,0,0,0,1.412-1.266,12.386,12.386,0,0,0,1.169-1.412,7.569,7.569,0,0,0,.828-1.485H80.454c-.365,0-.706,0-1.047.024-.341,0-.657,0-.95.024a5.952,5.952,0,0,0-.706.024v-.584H81.38c.317,0,.609,0,.852-.024s.414,0,.536-.024a.5.5,0,0,1,.122.122c.073.073.122.1.122.122a.876.876,0,0,0-.122.219c-.049.1-.073.17-.122.268a9.861,9.861,0,0,1-1.461,2.338c.195.146.438.317.731.536.268.219.56.438.852.682s.56.463.8.706a6.56,6.56,0,0,1,.584.584,1.08,1.08,0,0,0-.146.122,1.47,1.47,0,0,0-.195.195.549.549,0,0,0-.122.122c-.146-.17-.317-.341-.56-.584-.244-.219-.487-.463-.779-.706s-.56-.487-.828-.706a5.009,5.009,0,0,0-.706-.511,12.482,12.482,0,0,1-1.534,1.461,14.317,14.317,0,0,1-1.753,1.242Z" transform="translate(-68.985 -14.938)" fill="#231815"/>
      <path id="パス_2106" data-name="パス 2106" d="M81.473,22.391a.952.952,0,0,1-.122-.1c-.073-.049-.122-.1-.195-.146s-.122-.1-.146-.1a3.543,3.543,0,0,0,.706-.657c.219-.268.438-.536.633-.828a5.079,5.079,0,0,0,.463-.877.376.376,0,0,1,.146.073c.073.024.146.073.219.1a.4.4,0,0,1,.146.073,7.142,7.142,0,0,1-.511.925,8.084,8.084,0,0,1-.633.877,6.436,6.436,0,0,1-.706.706Zm2.9.95v-4.7H81.278v-.584H84.37v-.633c0-.584,0-1.023-.024-1.291h.584v1.9h3.117v.584H84.931v4.7H84.3ZM88,22.391a8.9,8.9,0,0,1-.731-.657,8.039,8.039,0,0,1-.682-.852,9.077,9.077,0,0,1-.56-.9l.146-.073s.146-.073.219-.122a.377.377,0,0,1,.146-.073,5.265,5.265,0,0,0,.511.852,5.257,5.257,0,0,0,.657.8,6.344,6.344,0,0,0,.755.657.952.952,0,0,0-.122.1,1.22,1.22,0,0,0-.195.17.549.549,0,0,0-.122.122Zm-.56-4.992a.861.861,0,0,1-.609-1.485.861.861,0,0,1,1.218,1.218A.83.83,0,0,1,87.439,17.4Zm0-.317a.551.551,0,0,0,.39-.95.575.575,0,0,0-.39-.17.519.519,0,0,0-.39.17.575.575,0,0,0-.17.39.584.584,0,0,0,.56.56Z" transform="translate(-63.575 -15.67)" fill="#231815"/>
      <path id="パス_2107" data-name="パス 2107" d="M86.405,22.946l-.122-.122c-.073-.049-.146-.122-.219-.17s-.122-.1-.17-.122a3.9,3.9,0,0,0,1.68-1.8,6.093,6.093,0,0,0,.511-2.946h.609v.633q.219-.146.511-.365c.195-.146.414-.292.633-.463s.438-.317.633-.487c.195-.146.365-.292.511-.414H84.92V16.1h5.016c.365,0,.706,0,1-.024s.511-.024.682-.049l.1.1a.646.646,0,0,1,.122.146c.049.049.073.1.1.1-.122.1-.268.244-.463.39a7.215,7.215,0,0,1-.633.511c-.219.195-.463.365-.706.56s-.463.365-.657.511c-.219.17-.39.292-.536.39,0-.024-.073-.073-.122-.146a1.126,1.126,0,0,0-.17-.17A6.189,6.189,0,0,1,87.964,21a4.76,4.76,0,0,1-1.607,1.729Z" transform="translate(-57.963 -15.153)" fill="#231815"/>
      <path id="パス_2108" data-name="パス 2108" d="M88.734,17.814V17.23h7.184v.584H88.71Z" transform="translate(-52.524 -13.431)" fill="#231815"/>
      <path id="パス_2109" data-name="パス 2109" d="M92.923,22.238a.952.952,0,0,1-.122-.1c-.073-.049-.122-.1-.195-.146s-.122-.1-.146-.1a5.11,5.11,0,0,0,.828-.779,3.444,3.444,0,0,0,.584-.877,4.453,4.453,0,0,0,.365-1.1,8.71,8.71,0,0,0,.122-1.485V16.174h.609v1.437a7.939,7.939,0,0,1-.219,2,4.566,4.566,0,0,1-.657,1.437A6.137,6.137,0,0,1,93,22.213Zm3.872-.1-.146-.1a1.439,1.439,0,0,1-.146-.1v-5.8h.609v5.236a5.633,5.633,0,0,0,.755-.39c.268-.17.584-.317.877-.511s.56-.365.828-.536a4.813,4.813,0,0,0,.609-.487.418.418,0,0,0,.049.195,1.1,1.1,0,0,0,.073.268.48.48,0,0,0,.049.17,4.734,4.734,0,0,1-.731.511c-.292.195-.584.365-.925.56a9.359,9.359,0,0,1-.974.511,9.609,9.609,0,0,1-.9.414Z" transform="translate(-47.142 -14.981)" fill="#231815"/>
      <path id="パス_2110" data-name="パス 2110" d="M96.584,23.547a.436.436,0,0,0-.122-.146,1.392,1.392,0,0,0-.17-.195c-.049-.073-.1-.122-.122-.122a10.783,10.783,0,0,0,1.729-.95,12.249,12.249,0,0,0,1.461-1.242,9.983,9.983,0,0,0,1.12-1.437,6.843,6.843,0,0,0,.706-1.558h-2.07a8.913,8.913,0,0,1-.925,1.218,8.249,8.249,0,0,1-1.047,1.023.5.5,0,0,0-.122-.122l-.195-.195a.927.927,0,0,1-.146-.122,5.605,5.605,0,0,0,.925-.8,8.006,8.006,0,0,0,.8-1,7.09,7.09,0,0,0,.633-1.1,7.409,7.409,0,0,0,.414-1.071l.584.122a4.419,4.419,0,0,1-.268.731,5.932,5.932,0,0,1-.341.682h2.289l.195.195a9.241,9.241,0,0,1-.828,2.046,6.146,6.146,0,0,0,.8,1.461,6.037,6.037,0,0,0,1.169,1.193,6.191,6.191,0,0,0,1.364.828c-.024,0-.073.073-.146.146s-.122.17-.195.244a1.66,1.66,0,0,1-.122.17,8.623,8.623,0,0,1-1.291-.877,7.435,7.435,0,0,1-1.145-1.169,6.319,6.319,0,0,1-.828-1.412,9.546,9.546,0,0,1-1.778,1.948,11.345,11.345,0,0,1-2.386,1.51Z" transform="translate(-41.818 -15.584)" fill="#231815"/>
      <path id="パス_2111" data-name="パス 2111" d="M100.34,23.011V17.434h.584V22.45h2.411V15.9h.584v6.55h2.435V17.434h.584v5.576h-6.55Z" transform="translate(-35.834 -15.34)" fill="#231815"/>
    </g>
    <g id="グループ_305" data-name="グループ 305" transform="translate(82.599 199.948)">
      <path id="パス_2112" data-name="パス 2112" d="M39.6,94.3V90.7a10.694,10.694,0,0,1-.657,1.145,6.133,6.133,0,0,1-.731.925l-.1-.1a1.351,1.351,0,0,0-.195-.146,1.494,1.494,0,0,0-.146-.1,5.055,5.055,0,0,0,.633-.731,9.072,9.072,0,0,0,.609-.95,7.479,7.479,0,0,0,.487-1H38.014v-.511H39.6v-3h.536v3h1.437v.511H40.132v.317a5.411,5.411,0,0,0,.414.536,6.386,6.386,0,0,0,.536.609c.195.195.365.365.511.487a.952.952,0,0,0-.122.1.569.569,0,0,0-.17.17l-.122.122c-.146-.17-.317-.365-.487-.584a7.456,7.456,0,0,1-.511-.706v3.458h-.536Zm-.877-5.5c-.049-.146-.1-.317-.17-.511a5.571,5.571,0,0,0-.244-.56c-.1-.195-.17-.341-.244-.463l.463-.195c.073.122.17.292.268.487s.17.39.268.584a2.952,2.952,0,0,1,.17.487.29.29,0,0,0-.146.049l-.219.073a.956.956,0,0,1-.146.049Zm2.119,0a1.267,1.267,0,0,1-.122-.073.729.729,0,0,0-.195-.1c-.073-.024-.1-.049-.122-.049.073-.122.17-.268.268-.463a4.6,4.6,0,0,0,.268-.609,4.292,4.292,0,0,0,.17-.536l.487.17a5.148,5.148,0,0,1-.195.536c-.1.219-.195.414-.292.633-.1.195-.195.365-.244.487Zm1.1,5.211V87.969h1.12c.049-.146.122-.317.195-.511a5.482,5.482,0,0,0,.195-.584c.073-.195.1-.365.146-.487l.584.073a3.311,3.311,0,0,1-.146.487c-.073.195-.122.365-.195.56s-.146.341-.195.487h1.972v6.039H41.934Zm.56-3.336h2.581V88.5H42.494Zm0,2.825h2.581V91.183H42.494Z" transform="translate(-37.77 -86.167)" fill="#231815"/>
      <path id="パス_2113" data-name="パス 2113" d="M42.081,93.992a.719.719,0,0,0-.146-.073c-.073-.049-.146-.073-.219-.122s-.122-.049-.146-.073a6.31,6.31,0,0,0,.779-1.778,9.579,9.579,0,0,0,.317-2.533V86.37h6.429v1.851H43.226v.755h6.283v.487H46.1c-.1.17-.195.365-.317.56s-.244.39-.341.56c.414,0,.828-.024,1.242-.049.414,0,.779-.024,1.1-.049-.122-.122-.244-.219-.341-.317-.122-.1-.219-.195-.317-.268l.39-.317c.17.122.341.292.56.487a7.185,7.185,0,0,1,.609.609l.511.511a.951.951,0,0,0-.122.1,1.125,1.125,0,0,0-.17.17l-.122.122a2.653,2.653,0,0,0-.268-.317,4.229,4.229,0,0,1-.317-.365c-.219,0-.463.049-.755.073-.292,0-.584.049-.9.049V92h2.143v.487H46.538v.877H49.7v.487H43.08v-.487h2.9v-.877H43.835V92h2.143v-.95c-.414,0-.828.049-1.242.049H43.689l-.073-.487h1.218a3.353,3.353,0,0,0,.341-.584c.1-.219.219-.39.292-.536H43.2a11.154,11.154,0,0,1-.146,1.9,7.972,7.972,0,0,1-.39,1.461,7.765,7.765,0,0,1-.584,1.193Zm1.12-6.234H48.51v-.9H43.2Z" transform="translate(-32.317 -85.98)" fill="#231815"/>
      <path id="パス_2114" data-name="パス 2114" d="M48.362,89.863a.418.418,0,0,0-.049-.195c0-.073-.049-.146-.049-.195H46.511v-1.1h1.826v1.047h.292a.388.388,0,0,0,.292-.1.664.664,0,0,0,.122-.39c0-.195.049-.487.073-.877H46.536c-.122.146-.244.292-.39.438a2.784,2.784,0,0,1-.414.365.454.454,0,0,1-.073-.1c-.024-.049-.1-.073-.122-.122-.049-.049-.073-.073-.1-.073a2.968,2.968,0,0,0,.438-.39,3.972,3.972,0,0,0,.414-.487,2.759,2.759,0,0,0,.317-.487l.365.195s-.049.073-.073.122-.049.073-.073.122h2.8c0,.463-.049.828-.073,1.12a2.029,2.029,0,0,1-.146.657.839.839,0,0,1-.244.317,1.018,1.018,0,0,1-.438.073h-.341ZM47,87.5v-.317H45.708v-.39H47v-.487h.463v.487h.925v-.487h.463v.487h1.145v.39H48.849V87.5h-.463v-.317h-.925V87.5Zm-1.291,3.726v-.438H53.5v.438Zm1.218-2.07H47.9v-.438h-.974Zm.049,5.236V93.077h5.26v1.315Zm.1-3.945v-.39h5.114v.39Zm0,1.51v-.365h5.114v.365Zm0,.731v-.365h5.114v.365Zm.609,1.291h3.872v-.487H47.68Zm5.747-3.945a5,5,0,0,1-1.753-.9,3.965,3.965,0,0,1-.828.511,4.589,4.589,0,0,1-1.023.341.246.246,0,0,0-.049-.122c-.024-.049-.049-.122-.073-.17s-.049-.1-.073-.1a3.083,3.083,0,0,0,.95-.292,3.531,3.531,0,0,0,.779-.487,3.56,3.56,0,0,1-.39-.463,3.877,3.877,0,0,1-.317-.536c-.1.122-.17.244-.268.365a3.744,3.744,0,0,1-.292.317c-.024-.024-.1-.073-.17-.146-.1-.073-.146-.1-.195-.1a3.13,3.13,0,0,0,.511-.584,7.809,7.809,0,0,0,.463-.755,2.723,2.723,0,0,0,.292-.706l.463.122a2.942,2.942,0,0,1-.365.8H53.5v.414H52.77a3.466,3.466,0,0,1-.779,1.242,3.371,3.371,0,0,0,.8.487,6.17,6.17,0,0,0,.877.292.878.878,0,0,0-.1.122c-.049.049-.073.122-.122.17s-.049.1-.073.122Zm-1.753-1.461a3.393,3.393,0,0,0,.365-.463,2.58,2.58,0,0,0,.268-.511H50.968a2.607,2.607,0,0,0,.317.511,2.276,2.276,0,0,0,.39.438Z" transform="translate(-26.763 -86.21)" fill="#231815"/>
      <path id="パス_2115" data-name="パス 2115" d="M49.562,91.763s-.049-.073-.073-.122c-.049-.073-.073-.122-.122-.195-.049-.049-.073-.1-.1-.122a6.22,6.22,0,0,0,.852-.341,8.209,8.209,0,0,0,.779-.463c-.1-.122-.219-.244-.341-.39a5.143,5.143,0,0,0-.365-.365c-.1.049-.17.122-.268.17a1.815,1.815,0,0,0-.292.17s-.049-.073-.073-.122c-.049-.049-.073-.122-.122-.17s-.073-.1-.1-.1a3.553,3.553,0,0,0,.706-.414,6.932,6.932,0,0,0,.633-.56,5.65,5.65,0,0,0,.511-.609,3.364,3.364,0,0,0,.317-.536l.463.195a2.121,2.121,0,0,1-.268.438h1.534l.195.17A4.293,4.293,0,0,1,52.8,89.45a6.808,6.808,0,0,1-.925.95,9.054,9.054,0,0,1-1.1.8,6.582,6.582,0,0,1-1.193.56Zm7.792-.17a6.284,6.284,0,0,1-1.656-.852,6.741,6.741,0,0,1-1.364-1.266,5.263,5.263,0,0,1-.852-1.583l.463-.146a3.958,3.958,0,0,0,.511,1.071,4.989,4.989,0,0,0,.731.877c.1-.1.195-.195.317-.341a4.234,4.234,0,0,0,.317-.365,2.224,2.224,0,0,0,.244-.317H54.481v-.438h2.167l.049.073v-.828H50.122V88.5h-.56V87.015h3.531V86.26h.584v.755h3.555V88.5h-.438c-.1.146-.219.292-.365.487s-.317.39-.487.584-.317.341-.463.487a6.6,6.6,0,0,0,2.143,1.1.952.952,0,0,1-.1.122l-.146.219a.324.324,0,0,0-.073.17ZM50.1,94.125A.356.356,0,0,0,50.025,94c-.049-.073-.073-.122-.122-.195a.667.667,0,0,0-.1-.122,5.88,5.88,0,0,0,.682-.341c.244-.146.487-.317.731-.487a4.037,4.037,0,0,0,.56-.463l.365.365c-.146.146-.341.292-.584.487-.244.17-.487.341-.755.511a3.274,3.274,0,0,1-.706.365Zm2.216.219a.941.941,0,0,0-.049-.292,1.513,1.513,0,0,0-.073-.244H52.9s.195,0,.244-.073a.3.3,0,0,0,.073-.219V92.129H50.244v-.487H56.77v.487h-3.02v1.485a.773.773,0,0,1-.17.56.828.828,0,0,1-.609.17h-.657ZM51.242,90.3s.17-.122.268-.195c.073-.073.17-.146.244-.219-.122-.1-.244-.219-.414-.341s-.292-.243-.414-.341a1.392,1.392,0,0,1-.195.17c-.073.049-.122.122-.195.17l.365.365a4.874,4.874,0,0,1,.341.39Zm.779-.706a3.274,3.274,0,0,0,.39-.463,1.852,1.852,0,0,0,.292-.463H51.364a.952.952,0,0,1-.1.122c-.024.049-.073.073-.1.122a2.677,2.677,0,0,1,.438.341,4.319,4.319,0,0,0,.414.341Zm-.146,1.388V90.5h3.312v.487Zm4.919,3.166c-.195-.1-.438-.219-.682-.365-.268-.17-.511-.341-.755-.511a4.393,4.393,0,0,1-.584-.487l.365-.365a3.448,3.448,0,0,0,.536.438,7.055,7.055,0,0,0,.706.463,6.561,6.561,0,0,0,.706.365.879.879,0,0,0-.1.122.854.854,0,0,0-.122.195c-.049.073-.073.1-.073.122Z" transform="translate(-21.266 -86.138)" fill="#231815"/>
      <path id="パス_2116" data-name="パス 2116" d="M55.428,94.059V91.795c-.341.146-.706.292-1.047.414-.365.122-.706.244-1.047.341a.376.376,0,0,0-.073-.146c-.024-.073-.073-.122-.1-.195a.26.26,0,0,0-.073-.122,13.435,13.435,0,0,0,2.046-.682,16.149,16.149,0,0,0,1.948-.974H53.358v-.438h3.434v-.755H54.575V88.8h2.216v-.706H53.918V86.34h6.624v1.753h-3.19V88.8h1.412v.438H57.351v.755h.414a9.568,9.568,0,0,0,1.071-.828,7.438,7.438,0,0,0,.877-.877l.414.292q-.329.365-.731.731c-.268.243-.536.463-.828.682h2.7v.438H57.936c-.39.244-.779.487-1.218.706h3.287v2.922H55.379Zm-.95-6.4h1.558v-.9H54.478Zm1.485,4.7H59.47v-.779H55.963Zm0,1.242H59.47v-.8H55.963Zm.584-5.942H57.96v-.9H56.548Zm1.948,0h1.51v-.9H58.5Z" transform="translate(-15.784 -86.023)" fill="#231815"/>
    </g>
    <circle id="楕円形_80" data-name="楕円形 80" cx="3.141" cy="3.141" r="3.141" transform="translate(108.68 37.209)" fill="#686868"/>
    <circle id="楕円形_81" data-name="楕円形 81" cx="3.141" cy="3.141" r="3.141" transform="translate(166.904 42.615)" fill="#686868"/>
    <circle id="楕円形_82" data-name="楕円形 82" cx="3.141" cy="3.141" r="3.141" transform="translate(209.226 84.304)" fill="#686868"/>
    <circle id="楕円形_83" data-name="楕円形 83" cx="3.141" cy="3.141" r="3.141" transform="translate(74.417 194.274)" fill="#686868"/>
    <g id="グループ_306" data-name="グループ 306" transform="translate(98.355 46.267)">
      <path id="パス_2117" data-name="パス 2117" d="M44.654,30.917a.436.436,0,0,0-.122-.146,1.392,1.392,0,0,0-.17-.195c-.049-.073-.1-.122-.122-.122a10.782,10.782,0,0,0,1.729-.95,12.249,12.249,0,0,0,1.461-1.242,9.982,9.982,0,0,0,1.12-1.437,6.843,6.843,0,0,0,.706-1.558h-2.07a8.913,8.913,0,0,1-.925,1.218,8.248,8.248,0,0,1-1.047,1.023.5.5,0,0,0-.122-.122l-.195-.195a.928.928,0,0,1-.146-.122,5.606,5.606,0,0,0,.925-.8,8.009,8.009,0,0,0,.8-1,7.091,7.091,0,0,0,.633-1.1,7.41,7.41,0,0,0,.414-1.071l.584.122a4.421,4.421,0,0,1-.268.731,5.935,5.935,0,0,1-.341.682h2.289l.195.195a9.24,9.24,0,0,1-.828,2.046,6.145,6.145,0,0,0,.8,1.461,6.037,6.037,0,0,0,1.169,1.193,6.19,6.19,0,0,0,1.364.828c-.024,0-.073.073-.146.146s-.122.17-.195.244a1.662,1.662,0,0,1-.122.17,8.623,8.623,0,0,1-1.291-.877A7.435,7.435,0,0,1,49.6,28.871a6.319,6.319,0,0,1-.828-1.412,9.546,9.546,0,0,1-1.778,1.948,11.344,11.344,0,0,1-2.386,1.51Z" transform="translate(-44.24 -23.1)" fill="#231815"/>
      <path id="パス_2118" data-name="パス 2118" d="M48.42,30.381V24.8H49V29.82h2.411V23.27H52v6.55h2.435V24.8h.584v5.576h-6.55Z" transform="translate(-38.241 -22.856)" fill="#231815"/>
      <path id="パス_2119" data-name="パス 2119" d="M56.551,30.678a.857.857,0,0,0-.049-.292,1.975,1.975,0,0,0-.073-.268h.9c.122,0,.219,0,.268-.073a.323.323,0,0,0,.073-.244V24.445H55.7v4.408H52.07V23.3H55.7v.609h4.164v.56H58.255v5.5c0,.487-.268.731-.828.731h-.877Zm-3.945-4.895h1.047V23.811H52.606Zm0,2.533h1.047V26.3H52.606Zm1.534-2.533h1.047V23.811H54.14Zm0,2.533h1.047V26.3H54.14Z" transform="translate(-33.003 -22.813)" fill="#231815"/>
      <path id="パス_2120" data-name="パス 2120" d="M47.605,35.047V31.054a10.176,10.176,0,0,1-1.1,1,.951.951,0,0,0-.1-.122l-.17-.17c-.049-.049-.1-.1-.122-.1a3.643,3.643,0,0,0,.633-.511l.706-.706a8.891,8.891,0,0,0,.633-.779,7.579,7.579,0,0,0,.487-.731l.487.268c-.122.219-.268.438-.414.657s-.317.414-.487.633v4.6h-.56Zm-.9-5.771a.952.952,0,0,0-.1-.122,1.351,1.351,0,0,1-.146-.195.548.548,0,0,0-.122-.122,7.332,7.332,0,0,0,.828-.487,6.781,6.781,0,0,0,.779-.633,3.547,3.547,0,0,0,.584-.657l.438.317A7.419,7.419,0,0,1,47.9,28.448a8.306,8.306,0,0,1-1.218.828Zm2.07,5.747a.29.29,0,0,0-.049-.146c-.024-.073-.073-.146-.1-.219a.4.4,0,0,0-.073-.146,7.473,7.473,0,0,0,1.364-.463,5.089,5.089,0,0,0,1.12-.682,5.084,5.084,0,0,1-1.266-2h-.731v-.511h3.994l.219.17a6.436,6.436,0,0,1-1.412,2.338,5.233,5.233,0,0,0,1.193.682,6.512,6.512,0,0,0,1.291.39l-.1.146c-.049.073-.073.146-.122.219a.4.4,0,0,1-.073.146,6.331,6.331,0,0,1-2.606-1.242,5.125,5.125,0,0,1-1.218.755,6.9,6.9,0,0,1-1.461.511Zm.633-4.408-.122-.122a1.126,1.126,0,0,1-.17-.17c-.049-.049-.1-.1-.146-.1a2.306,2.306,0,0,0,.8-.8,2.258,2.258,0,0,0,.268-1.218v-.9h2.484v2.143s0,.146.049.195a.323.323,0,0,0,.244.073h.463a.527.527,0,0,0,.292-.049.482.482,0,0,0,.17-.244,3.864,3.864,0,0,0,.122-.584,1.251,1.251,0,0,0,.244.1c.1.024.195.049.268.073a3.414,3.414,0,0,1-.17.8.79.79,0,0,1-.317.365,1.619,1.619,0,0,1-.511.073h-.657a1.162,1.162,0,0,1-.584-.122.492.492,0,0,1-.17-.438V27.864H50.6v.414a3.238,3.238,0,0,1-.268,1.364,2.881,2.881,0,0,1-.9,1Zm2.046,2.411a4.479,4.479,0,0,0,1.1-1.656H50.357a4.507,4.507,0,0,0,.463.9,6.484,6.484,0,0,0,.633.755Z" transform="translate(-41.542 -17.417)" fill="#231815"/>
      <path id="パス_2121" data-name="パス 2121" d="M50.17,33.159,50,32.623c.146-.024.341-.1.56-.146s.438-.146.682-.219V29.531h-1.1v-.511h1.1v-1.9h.56v1.9h1.071v.511H51.8v2.533c.244-.1.463-.17.682-.268A5.291,5.291,0,0,0,53,31.552v.536c-.17.073-.365.17-.609.292-.244.1-.511.195-.779.317l-.8.292a5.784,5.784,0,0,1-.633.195Zm5.649,1.826s-.024-.17-.049-.292a1.512,1.512,0,0,0-.073-.244h.657a.587.587,0,0,0,.365-.1.53.53,0,0,0,.219-.317,2.969,2.969,0,0,0,.122-.414,3.828,3.828,0,0,0,.1-.56c.024-.195.049-.39.073-.56a1.748,1.748,0,0,1,.049-.414H56.7a6.886,6.886,0,0,1-.657,1.145,6.231,6.231,0,0,1-.95,1.023,5.694,5.694,0,0,1-1.145.731l-.1-.1c-.049-.049-.122-.1-.17-.146s-.1-.073-.122-.1a3.647,3.647,0,0,0,1.1-.657,6.458,6.458,0,0,0,.9-.925,5.552,5.552,0,0,0,.609-.95H55.43a5.533,5.533,0,0,1-1.169,1.364,5.876,5.876,0,0,1-1.632,1l-.1-.1a1.059,1.059,0,0,1-.146-.17c-.049-.049-.1-.1-.122-.1a4.306,4.306,0,0,0,1-.511,8.7,8.7,0,0,0,.925-.731,3.109,3.109,0,0,0,.657-.779h-.755a4.694,4.694,0,0,1-.731.657,5.832,5.832,0,0,1-.828.511l-.1-.1-.146-.146c-.049-.049-.1-.073-.122-.1a6.253,6.253,0,0,0,.852-.487,5.213,5.213,0,0,0,.779-.682,2.8,2.8,0,0,0,.536-.731H52.947v-.463h5.162v.463H54.87a4.887,4.887,0,0,1-.414.657h3.336a2.8,2.8,0,0,1-.049.584c0,.244-.049.487-.073.731a5.706,5.706,0,0,1-.122.731,5.054,5.054,0,0,1-.146.584,1.154,1.154,0,0,1-.365.536,1.125,1.125,0,0,1-.609.17H55.8Zm-2.094-5.016V27.217h3.482v2.752Zm.536-1.583h2.411V27.68H54.261Zm0,1.145h2.411V28.8H54.261Z" transform="translate(-35.974 -17.331)" fill="#231815"/>
    </g>
    <g id="グループ_307" data-name="グループ 307" transform="translate(207.327 74.028)">
      <path id="パス_2122" data-name="パス 2122" d="M96.563,38.927c-.146-.1-.341-.219-.609-.365-.243-.17-.536-.341-.852-.536s-.609-.414-.95-.609c-.317-.195-.609-.414-.9-.609s-.536-.365-.755-.511a3.521,3.521,0,0,1-.438-.317.454.454,0,0,0-.244-.122.337.337,0,0,0-.219.122c-.024,0-.1.1-.219.195s-.268.219-.438.365-.341.292-.536.463-.365.317-.536.463-.292.268-.414.365c0-.024-.073-.073-.122-.146a1.47,1.47,0,0,0-.195-.195.535.535,0,0,0-.146-.122,3.66,3.66,0,0,0,.438-.341c.17-.146.39-.292.584-.463s.414-.317.584-.487a3.089,3.089,0,0,1,.487-.39,1.9,1.9,0,0,1,.244-.195.941.941,0,0,1,.463-.244.841.841,0,0,1,.487.195c.073.073.244.17.438.317.219.146.463.317.755.511s.609.39.925.609c.317.195.657.414.974.609s.609.39.877.536c.268.17.487.292.633.365a1.078,1.078,0,0,1-.122.146l-.146.219a1.444,1.444,0,0,1-.1.146Z" transform="translate(-88.99 -33.424)" fill="#231815"/>
      <path id="パス_2123" data-name="パス 2123" d="M93.333,40.928a.953.953,0,0,1-.122-.1c-.073-.049-.122-.1-.195-.146s-.122-.1-.146-.1a5.109,5.109,0,0,0,.828-.779,3.444,3.444,0,0,0,.584-.877,4.453,4.453,0,0,0,.365-1.1,8.711,8.711,0,0,0,.122-1.485V34.864h.609V36.3a7.939,7.939,0,0,1-.219,2,4.566,4.566,0,0,1-.657,1.437,6.137,6.137,0,0,1-1.1,1.169Zm3.872-.1-.146-.1a1.442,1.442,0,0,1-.146-.1v-5.8h.609v5.236a5.632,5.632,0,0,0,.755-.39c.268-.17.584-.317.877-.511s.56-.365.828-.536a4.814,4.814,0,0,0,.609-.487.419.419,0,0,0,.049.195,1.1,1.1,0,0,0,.073.268.48.48,0,0,0,.049.17,4.734,4.734,0,0,1-.731.511c-.292.195-.584.365-.925.56a9.358,9.358,0,0,1-.974.511,9.608,9.608,0,0,1-.9.414Z" transform="translate(-83.422 -34.012)" fill="#231815"/>
      <path id="パス_2124" data-name="パス 2124" d="M97.234,41.08a1.08,1.08,0,0,0-.122-.146c-.049-.073-.122-.122-.17-.195a.549.549,0,0,0-.122-.122,10.506,10.506,0,0,0,1.534-1.023,11.647,11.647,0,0,0,1.412-1.266,12.386,12.386,0,0,0,1.169-1.412,7.569,7.569,0,0,0,.828-1.485h-1.729c-.365,0-.706,0-1.047.024-.341,0-.657,0-.95.024a5.953,5.953,0,0,0-.706.024v-.584h3.628c.317,0,.609,0,.852-.024s.414,0,.536-.024a.5.5,0,0,1,.122.122c.073.073.122.1.122.122a.876.876,0,0,0-.122.219c-.049.1-.073.17-.122.268a9.861,9.861,0,0,1-1.461,2.338c.195.146.438.317.731.536.268.219.56.438.852.682s.56.463.8.706a6.558,6.558,0,0,1,.584.584,1.08,1.08,0,0,0-.146.122,1.47,1.47,0,0,0-.195.195.549.549,0,0,0-.122.122c-.146-.17-.317-.341-.56-.584-.244-.219-.487-.463-.779-.706s-.56-.487-.828-.706a5.009,5.009,0,0,0-.706-.511,12.482,12.482,0,0,1-1.534,1.461,14.317,14.317,0,0,1-1.753,1.242Z" transform="translate(-77.753 -33.969)" fill="#231815"/>
      <path id="パス_2125" data-name="パス 2125" d="M104.209,41.287a2.581,2.581,0,0,1-1.485-.414,2.631,2.631,0,0,1-1-1.12,4.16,4.16,0,0,1,0-3.409,2.7,2.7,0,0,1,2.484-1.534,2.628,2.628,0,0,1,1.315.317,2.862,2.862,0,0,1,.974.9l-.487.292a2.32,2.32,0,0,0-.755-.706,2.143,2.143,0,0,0-1.047-.244,2.246,2.246,0,0,0-1.193.317,2.127,2.127,0,0,0-.8.925,3.289,3.289,0,0,0-.292,1.437,3.215,3.215,0,0,0,.292,1.437,2.266,2.266,0,0,0,3.044,1,2.1,2.1,0,0,0,.755-.706l.487.292a2.812,2.812,0,0,1-.974.877,2.628,2.628,0,0,1-1.315.317Z" transform="translate(-71.238 -34.055)" fill="#231815"/>
      <path id="パス_2126" data-name="パス 2126" d="M105.792,41.3a1.888,1.888,0,0,1-1.339-.438,1.579,1.579,0,0,1-.463-1.218,1.473,1.473,0,0,1,.219-.8,2.542,2.542,0,0,1,.56-.584,5.349,5.349,0,0,1,.731-.463,4.346,4.346,0,0,1-.657-.8,1.511,1.511,0,0,1-.219-.779,1.336,1.336,0,0,1,.219-.779,1.217,1.217,0,0,1,.584-.463,2.008,2.008,0,0,1,.755-.17,1.634,1.634,0,0,1,.8.17,1.712,1.712,0,0,1,.536.487,1.145,1.145,0,0,1,.195.706,1.488,1.488,0,0,1-.195.731,1.61,1.61,0,0,1-.536.536,4.972,4.972,0,0,1-.706.438l1.388,1.68a5.722,5.722,0,0,0,.463-.609c.146-.219.317-.438.463-.682l.487.195c-.17.268-.365.511-.536.779s-.365.487-.536.706l.974,1.193H108.3l-.658-.8a3.755,3.755,0,0,1-.877.657,2.023,2.023,0,0,1-.974.268Zm.024-.511a1.577,1.577,0,0,0,.779-.219,3.842,3.842,0,0,0,.731-.584l-1.485-1.8c-.219.122-.438.268-.633.39a1.668,1.668,0,0,0-.463.463,1.192,1.192,0,0,0-.17.609,1.031,1.031,0,0,0,.341.852,1.493,1.493,0,0,0,.925.268Zm.122-3.239a5.182,5.182,0,0,0,.609-.39,1.873,1.873,0,0,0,.438-.438.83.83,0,0,0,.17-.536.791.791,0,0,0-.268-.609.961.961,0,0,0-.706-.244,1.061,1.061,0,0,0-.731.244.834.834,0,0,0-.292.657.8.8,0,0,0,.1.414,1.243,1.243,0,0,0,.268.39c.122.146.244.292.414.487Z" transform="translate(-67.463 -34.069)" fill="#231815"/>
      <path id="パス_2127" data-name="パス 2127" d="M109.409,41.287a2.581,2.581,0,0,1-1.485-.414,2.631,2.631,0,0,1-1-1.12,4.16,4.16,0,0,1,0-3.409,2.7,2.7,0,0,1,2.484-1.534,2.628,2.628,0,0,1,1.315.317,2.862,2.862,0,0,1,.974.9l-.487.292a2.32,2.32,0,0,0-.755-.706,2.143,2.143,0,0,0-1.047-.244,2.246,2.246,0,0,0-1.193.317,2.127,2.127,0,0,0-.8.925,3.289,3.289,0,0,0-.292,1.437,3.215,3.215,0,0,0,.292,1.437,2.266,2.266,0,0,0,3.044,1,2.1,2.1,0,0,0,.755-.706l.487.292a2.812,2.812,0,0,1-.974.877,2.628,2.628,0,0,1-1.315.317Z" transform="translate(-63.775 -34.055)" fill="#231815"/>
      <path id="パス_2128" data-name="パス 2128" d="M113.671,41.418a2.586,2.586,0,0,1-.706-.1.607.607,0,0,1-.365-.268,1.155,1.155,0,0,1-.1-.56v-3c-.341.049-.682.1-1,.146s-.584.1-.8.122a3.335,3.335,0,0,0-.487.1v-.17a.866.866,0,0,0-.049-.244c0-.073,0-.146-.024-.17a2.531,2.531,0,0,0,.511-.073c.243-.024.511-.073.828-.1s.657-.1,1.023-.122V34.6h.633v2.313c.414-.049.8-.1,1.193-.17s.779-.122,1.12-.17.657-.1.9-.146.438-.073.56-.1a.454.454,0,0,0,.1.073c.049.049.1.073.122.122l.073.073c-.049.049-.122.17-.243.341s-.244.365-.39.609-.292.463-.438.706-.292.463-.414.657-.219.365-.268.463l-.146-.1a2.259,2.259,0,0,0-.243-.122c-.073-.049-.122-.049-.146-.073.073-.1.146-.244.268-.414s.243-.365.39-.584.268-.414.39-.633c.122-.195.243-.365.317-.511-.195.024-.463.073-.8.122s-.706.1-1.12.17-.828.122-1.266.195v2.922a.576.576,0,0,0,.049.317c.024.073.1.122.219.17a2.216,2.216,0,0,0,.511.049h.56c.243,0,.511,0,.8-.024s.584-.024.877-.049c.292,0,.56-.049.8-.049s.414-.049.536-.049a.548.548,0,0,1-.024.17c-.024.073,0,.17-.024.244v.17c-.146,0-.365.024-.584.049-.244,0-.511.024-.8.049s-.56.024-.852.024H113.72Z" transform="translate(-58.637 -34.356)" fill="#231815"/>
      <path id="パス_2129" data-name="パス 2129" d="M116.307,36.87l-.39-.39c-.17-.146-.341-.292-.536-.463s-.39-.292-.56-.438a4.651,4.651,0,0,0-.511-.341l.122-.122.195-.195.122-.122a4.943,4.943,0,0,1,.682.511c.243.195.487.414.731.609a6.934,6.934,0,0,1,.584.536l-.122.122a1.218,1.218,0,0,0-.17.195.548.548,0,0,1-.122.122Zm-1.632,4.018a1.761,1.761,0,0,1-.1-.17c-.049-.073-.1-.17-.146-.244a1.443,1.443,0,0,0-.1-.146,11.227,11.227,0,0,0,1.8-.609,17.4,17.4,0,0,0,1.778-.9,13.309,13.309,0,0,0,1.656-1.145,11.9,11.9,0,0,0,1.388-1.291.418.418,0,0,0,.049.195l.073.292c.024.1.049.146.049.17a12.131,12.131,0,0,1-1.875,1.583,16.894,16.894,0,0,1-2.24,1.315,16.219,16.219,0,0,1-2.386.95Z" transform="translate(-52.653 -34.069)" fill="#231815"/>
      <path id="パス_2130" data-name="パス 2130" d="M118.9,42.049l-.1-.146a1.22,1.22,0,0,0-.17-.195.325.325,0,0,0-.146-.122,9.269,9.269,0,0,0,1.753-1.047,9.4,9.4,0,0,0,1.51-1.437,6.875,6.875,0,0,0-.755-.511,3.769,3.769,0,0,0-.682-.365.88.88,0,0,0,.1-.122,1.22,1.22,0,0,1,.17-.195c.049-.073.1-.1.1-.122a6.8,6.8,0,0,1,.682.39c.243.146.487.317.731.487a7.393,7.393,0,0,0,.706-1.071,6.742,6.742,0,0,0,.536-1.12h-2.8c-.292.414-.584.828-.9,1.193a13.237,13.237,0,0,1-1,1.023.954.954,0,0,1-.122-.1c-.073-.049-.122-.1-.195-.146a1.441,1.441,0,0,1-.146-.1,8.642,8.642,0,0,0,1.071-1.047,11.117,11.117,0,0,0,.974-1.339,14.188,14.188,0,0,0,.779-1.461.3.3,0,0,1,.17.049c.073.024.17.049.244.073a.48.48,0,0,1,.17.049c-.219.438-.438.877-.682,1.315h3.02a.952.952,0,0,1,.122.1l.122.122c-.049.073-.1.195-.17.317-.073.146-.122.268-.17.39a11.293,11.293,0,0,1-.56,1.071,9.856,9.856,0,0,1-.706,1.047c.219.195.438.365.657.536.195.17.39.365.56.536l-.122.122-.195.195-.122.122a4.713,4.713,0,0,0-.487-.511c-.195-.195-.414-.365-.633-.56a10.444,10.444,0,0,1-3.312,2.606Z" transform="translate(-47.113 -34.5)" fill="#231815"/>
      <path id="パス_2131" data-name="パス 2131" d="M121.8,36.5V35.92h7.184V36.5H121.78Z" transform="translate(-41.932 -32.462)" fill="#231815"/>
    </g>
    <g id="グループ_308" data-name="グループ 308" transform="translate(240.347 162.496)">
      <path id="パス_2132" data-name="パス 2132" d="M107.378,78.419a7.717,7.717,0,0,1-2.508-.17,2.25,2.25,0,0,1-1.315-.877,1.755,1.755,0,0,1-.244-1.315,1.5,1.5,0,0,1,.39-.755,2.067,2.067,0,0,1,.828-.438,3.376,3.376,0,0,1,1.145-.122,5.4,5.4,0,0,1,1.339.195,5.35,5.35,0,0,1-1-1.972c-.536.049-1.071.073-1.607.1-.511,0-.974.024-1.364.024V72.94a1.072,1.072,0,0,0-.049-.243c0-.073,0-.146-.024-.17h1.339c.511,0,1.047-.049,1.583-.1a6.987,6.987,0,0,1-.122-.755c-.024-.268-.073-.536-.073-.8h.584a9.4,9.4,0,0,0,.195,1.534c.487-.049.95-.1,1.388-.17s.828-.146,1.169-.219a.642.642,0,0,0,.024.17.712.712,0,0,0,.049.219.86.86,0,0,0,.024.146,11.67,11.67,0,0,1-1.169.195c-.438.073-.9.122-1.364.17a5.758,5.758,0,0,0,.657,1.51,2.544,2.544,0,0,0,1.071.9.949.949,0,0,1-.1.122c-.049.073-.073.122-.122.195a.377.377,0,0,0-.073.146,5.247,5.247,0,0,0-1.412-.438,3.947,3.947,0,0,0-1.291-.073,2.294,2.294,0,0,0-.974.292.911.911,0,0,0-.463.657,1.093,1.093,0,0,0,.292,1.023,2.466,2.466,0,0,0,1.242.584,7.021,7.021,0,0,0,2.07.073.993.993,0,0,1-.049.17c-.024.073-.024.17-.049.244a.4.4,0,0,0,0,.17Z" transform="translate(-101.947 -70.773)" fill="#231815"/>
      <path id="パス_2133" data-name="パス 2133" d="M111.208,78.419a7.717,7.717,0,0,1-2.508-.17,2.25,2.25,0,0,1-1.315-.877,1.755,1.755,0,0,1-.243-1.315,1.5,1.5,0,0,1,.39-.755,2.067,2.067,0,0,1,.828-.438,3.376,3.376,0,0,1,1.145-.122,5.394,5.394,0,0,1,1.339.195,5.35,5.35,0,0,1-1-1.972c-.536.049-1.071.073-1.607.1-.511,0-.974.024-1.364.024V72.94a1.073,1.073,0,0,0-.049-.243c0-.073,0-.146-.024-.17h1.339c.511,0,1.047-.049,1.583-.1a6.983,6.983,0,0,1-.122-.755c-.024-.268-.073-.536-.073-.8h.584a9.4,9.4,0,0,0,.195,1.534c.487-.049.95-.1,1.388-.17s.828-.146,1.169-.219a.642.642,0,0,0,.024.17.712.712,0,0,0,.049.219.86.86,0,0,0,.024.146,11.67,11.67,0,0,1-1.169.195c-.438.073-.9.122-1.364.17a5.758,5.758,0,0,0,.658,1.51,2.544,2.544,0,0,0,1.071.9.949.949,0,0,1-.1.122c-.049.073-.073.122-.122.195a.377.377,0,0,0-.073.146,5.247,5.247,0,0,0-1.412-.438,3.947,3.947,0,0,0-1.291-.073,2.3,2.3,0,0,0-.974.292.911.911,0,0,0-.463.657,1.093,1.093,0,0,0,.292,1.023,2.466,2.466,0,0,0,1.242.584,7.021,7.021,0,0,0,2.07.073.992.992,0,0,1-.049.17c-.024.073-.024.17-.049.244a.4.4,0,0,0,0,.17Z" transform="translate(-96.451 -70.773)" fill="#231815"/>
      <path id="パス_2134" data-name="パス 2134" d="M114.457,78.72c-.219-.292-.463-.584-.731-.9s-.56-.633-.828-.974c-.292-.317-.56-.609-.852-.9-.268-.292-.511-.536-.731-.755a.882.882,0,0,1-.365-.584.977.977,0,0,1,.365-.609l.463-.463.633-.633c.244-.243.463-.487.706-.731a8.89,8.89,0,0,0,.657-.731c.219-.243.39-.438.536-.609a1.139,1.139,0,0,0,.146.122c.073.049.146.122.219.17a.926.926,0,0,1,.146.122c-.146.146-.317.341-.536.56s-.438.463-.682.706-.487.487-.706.731l-.633.633-.438.438c-.122.122-.17.195-.17.292a.626.626,0,0,0,.17.292l.731.731c.268.268.56.56.828.877.292.317.56.633.852.95.268.317.536.633.755.925a.667.667,0,0,0-.17.1l-.219.146c-.073.049-.122.1-.146.1Zm1.437-4.87a2.582,2.582,0,0,1-.17-.244c-.073-.1-.17-.219-.268-.341s-.195-.244-.268-.341-.146-.17-.17-.219l.317-.243.195.243c.073.1.17.219.268.341s.195.243.268.341.146.17.195.243l-.341.244Zm.755-.56a2.582,2.582,0,0,1-.17-.244c-.073-.1-.17-.219-.268-.341a4.153,4.153,0,0,0-.268-.341c-.073-.1-.146-.17-.17-.219l.341-.243a2.583,2.583,0,0,1,.17.243,3.275,3.275,0,0,0,.268.341c.1.122.17.219.268.341a1.986,1.986,0,0,0,.195.219l-.317.244Z" transform="translate(-90.495 -70.83)" fill="#231815"/>
      <path id="パス_2135" data-name="パス 2135" d="M115.745,75.838s-.146.17-.268.146a.254.254,0,0,1-.243-.17,4.221,4.221,0,0,1-.292-1.047,8.059,8.059,0,0,1-.122-1.339,11.2,11.2,0,0,1,.073-1.218c.049-.438.122-.877.219-1.339h.17a1.072,1.072,0,0,1,.243.049c.073,0,.146,0,.17.024a8.789,8.789,0,0,0-.17,3.945c0,.049.024.1.073.1s.073-.024.1-.1a1.621,1.621,0,0,0,.146-.292c.049-.122.122-.244.17-.39a1.971,1.971,0,0,1,.146-.317.689.689,0,0,0,.073.146.53.53,0,0,0,.122.195c.049.073.049.1.073.122-.049.122-.122.292-.195.487s-.17.39-.243.56c-.1.17-.17.317-.219.414Zm.779,2.8a1.139,1.139,0,0,0-.146-.122c-.073-.073-.146-.122-.195-.17-.073-.049-.122-.1-.146-.1a4.432,4.432,0,0,0,1.8-1.583,4.319,4.319,0,0,0,.609-2.362c0-.536,0-1-.024-1.388s-.049-.755-.073-1.071-.049-.633-.1-.925h.584c.049.487.073,1,.122,1.558.024.56.049,1.169.049,1.851a4.973,4.973,0,0,1-.633,2.606,5.583,5.583,0,0,1-1.851,1.753Z" transform="translate(-84.941 -70.773)" fill="#231815"/>
      <path id="パス_2136" data-name="パス 2136" d="M118.064,72.914V72.33h7.184v.584H118.04Z" transform="translate(-80.32 -68.677)" fill="#231815"/>
      <path id="パス_2137" data-name="パス 2137" d="M122.336,78.443a1.624,1.624,0,0,0-.17-.073c-.073-.024-.146-.073-.219-.1a.956.956,0,0,0-.146-.049c.146-.317.292-.682.487-1.1s.39-.852.609-1.339c.219-.463.438-.95.657-1.412.219-.487.438-.925.658-1.388.219-.438.414-.852.584-1.218s.341-.657.463-.9a.689.689,0,0,1,.146.073,2.523,2.523,0,0,0,.243.1.375.375,0,0,1,.17.073c-.146.268-.341.609-.56,1.071l-.731,1.461c-.268.536-.511,1.071-.779,1.607a3.387,3.387,0,0,1,.828-.657,1.889,1.889,0,0,1,.852-.243.988.988,0,0,1,1.1,1.145v1.875a.529.529,0,0,0,.122.39.644.644,0,0,0,.438.1,1.447,1.447,0,0,0,.463-.122,3.446,3.446,0,0,0,.584-.317,3.989,3.989,0,0,0,.609-.511,3.4,3.4,0,0,0,.511-.657,1.621,1.621,0,0,1,.073.17l.146.219a1.436,1.436,0,0,0,.1.146,3.475,3.475,0,0,1-.755.828,4.2,4.2,0,0,1-.925.584,2.1,2.1,0,0,1-.852.219,1.321,1.321,0,0,1-.779-.17.774.774,0,0,1-.244-.682V75.643a.829.829,0,0,0-.17-.609.754.754,0,0,0-.511-.146,1.56,1.56,0,0,0-.852.292,3.732,3.732,0,0,0-.852.8,5.331,5.331,0,0,0-.706,1.218c-.1.244-.195.463-.268.657a5.951,5.951,0,0,0-.244.584Z" transform="translate(-74.924 -70.773)" fill="#231815"/>
      <path id="パス_2138" data-name="パス 2138" d="M105.253,80.775a.941.941,0,0,0-.049-.292,1.6,1.6,0,0,0-.1-.268h.8c.122,0,.219,0,.268-.073a.363.363,0,0,0,.073-.243V78.047h-3.7v-.536h1.583v-2.24h.56v2.24h1.558V74.76h.56V75.9h2.7v.511h-2.7v1.1h3.7v.536h-3.7V80.02c0,.487-.268.731-.828.731h-.755Zm-2.411,2.094a.349.349,0,0,0-.049-.17c-.024-.073-.049-.17-.073-.244a.956.956,0,0,1-.049-.146,9.489,9.489,0,0,0,3.555-.731,5.316,5.316,0,0,0,2.265-1.826l.438.365a5.392,5.392,0,0,1-1.583,1.485,7.112,7.112,0,0,1-2.021.852,14.449,14.449,0,0,1-2.459.39Zm.341-1.851a.5.5,0,0,0-.122-.122,1.124,1.124,0,0,1-.17-.17c-.049-.049-.1-.1-.122-.1a3.815,3.815,0,0,0,.511-.414c.17-.17.365-.341.536-.536s.317-.39.463-.584a3.279,3.279,0,0,0,.317-.511l.487.292a6.066,6.066,0,0,1-.852,1.145,7.766,7.766,0,0,1-1.047.974Zm6.989-.487s-.268-.243-.463-.39-.39-.292-.584-.463-.414-.292-.609-.438a3.281,3.281,0,0,0-.511-.317l.341-.414a4.952,4.952,0,0,1,.536.317c.195.122.414.268.633.414s.414.292.609.438.341.268.463.365l-.122.122c-.049.073-.122.122-.17.195s-.1.1-.1.122Z" transform="translate(-102.55 -65.19)" fill="#231815"/>
      <path id="パス_2139" data-name="パス 2139" d="M111.474,82.615a9.051,9.051,0,0,1-1.51-.1,3.983,3.983,0,0,1-1.071-.317,3.809,3.809,0,0,1-.828-.56q-.146.11-.438.292l-.56.341q-.292.183-.438.292l-.268-.56a2.923,2.923,0,0,0,.292-.146c.122-.073.268-.122.414-.195s.292-.146.414-.219.243-.146.317-.195V78.719h-1.339v-.536h1.875v3.068a2.852,2.852,0,0,0,.706.536,3.314,3.314,0,0,0,.974.268,12.113,12.113,0,0,0,1.461.073c.682,0,1.242,0,1.729-.024.487,0,.9-.049,1.266-.073a.29.29,0,0,1-.049.146.864.864,0,0,0-.073.268.864.864,0,0,1-.024.17h-2.849Zm-3.482-5.771a4.991,4.991,0,0,0-.365-.463c-.146-.17-.317-.341-.487-.511s-.317-.292-.463-.414l.39-.341a3.4,3.4,0,0,1,.487.414c.17.17.341.317.487.487a5.1,5.1,0,0,1,.39.438.879.879,0,0,1-.122.1c-.073.049-.122.122-.195.17a.549.549,0,0,0-.122.122Zm1.437,4.6V77.38h1.388s.073-.244.1-.39.073-.268.1-.39h-2.362v-.511H110.4c-.1-.17-.219-.341-.365-.56a5.985,5.985,0,0,0-.414-.536l.487-.219a6.088,6.088,0,0,1,.438.584,6.237,6.237,0,0,1,.39.609l-.341.146h1.145c.073-.122.17-.268.268-.438s.195-.341.292-.487a2.212,2.212,0,0,0,.195-.438l.56.17a4.933,4.933,0,0,1-.317.56c-.146.219-.268.438-.39.609h1.9V76.6h-2.63s-.049.244-.1.39-.073.268-.122.39h2.07v4.067H109.4Zm.584-2.873h2.922v-.731h-2.922Zm0,1.193h2.922v-.731h-2.922Zm0,1.193h2.922v-.731h-2.922Z" transform="translate(-97.082 -65.204)" fill="#231815"/>
      <path id="パス_2140" data-name="パス 2140" d="M111.639,82.845V78.583a8.794,8.794,0,0,1-.536,1.071,10.228,10.228,0,0,1-.584.925.951.951,0,0,1-.122-.1c-.073-.049-.122-.073-.195-.122s-.1-.073-.122-.073a4.387,4.387,0,0,0,.438-.609q.219-.365.438-.8c.146-.292.268-.56.39-.828a7.582,7.582,0,0,0,.292-.731V77.2h-1.315v-.487h1.315V74.76h.536v1.948h.974V77.2h-.974V78c.1.122.195.292.317.463s.268.341.39.487a2.922,2.922,0,0,0,.39.39.879.879,0,0,1-.122.1,1.124,1.124,0,0,0-.17.17l-.1.1a3.477,3.477,0,0,1-.365-.438l-.365-.511v4.091h-.536Zm2.849-3.872V77.658a6.384,6.384,0,0,1-.609.536c-.219.17-.438.317-.657.463a.949.949,0,0,0-.1-.122c-.049-.049-.1-.122-.146-.17s-.073-.1-.1-.1a4.05,4.05,0,0,0,1.023-.706,7.522,7.522,0,0,0,.852-.925H113.2v-.414h1.826a4.55,4.55,0,0,0,.292-.609c-.317,0-.633.049-.95.049h-.877a.326.326,0,0,0-.024-.122l-.049-.195a.411.411,0,0,0-.049-.122h1c.365,0,.755-.049,1.145-.073s.755-.073,1.1-.122.633-.1.852-.146l.268.414q-.4.073-.877.146c-.317.049-.657.073-1,.122a1.909,1.909,0,0,1-.122.341c-.049.1-.1.219-.17.341h2.654v.414h-1.656a5.079,5.079,0,0,0,.633.609,6.963,6.963,0,0,0,.731.536,5.213,5.213,0,0,0,.682.39.879.879,0,0,0-.1.122.854.854,0,0,0-.122.195c-.049.073-.073.1-.073.122a5.579,5.579,0,0,1-.657-.414,7.685,7.685,0,0,1-.706-.536v1.339h-2.435Zm2.362,3.872a1.249,1.249,0,0,0-.024-.244.714.714,0,0,0-.073-.243h.56s.195,0,.243-.049.049-.122.049-.219v-2.24h-3.653v3h-.511V79.411h4.675v2.752a.71.71,0,0,1-.17.536.736.736,0,0,1-.56.17h-.511Zm-2.143-5.406h2.046a5.542,5.542,0,0,1-.706-.828h-.682c-.1.146-.195.292-.292.414a5.094,5.094,0,0,1-.341.414Zm0,4.529V80.336h2.07v1.632Zm.268-3.409h1.485v-.706h-1.485Zm.219,3h1.1v-.779h-1.1Z" transform="translate(-91.744 -65.19)" fill="#231815"/>
    </g>
    <path id="パス_2141" data-name="パス 2141" d="M117.464,11.814V5.41h.56l3.6,5.406V5.41h.56v6.4h-.56L118,6.36v5.455h-.56Z" transform="translate(159.166 -2.22)" fill="#231815" stroke="#6d6d6d" stroke-linecap="round" stroke-linejoin="round" stroke-width="0.42"/>
    <path id="パス_2142" data-name="パス 2142" d="M121,9.33,116.62,27.277,121,45.248l4.383-17.971Z" transform="translate(157.989 3.406)" fill="#6d6d6d"/>
    <path id="パス_2143" data-name="パス 2143" d="M117,16.96h6.94l-3.482,14.221Z" transform="translate(158.535 14.356)" fill="#ededec"/>
    <rect id="長方形_219" data-name="長方形 219" width="91.147" height="41.982" rx="0.73" transform="translate(111.504 121.367)" fill="#f2f2f2"/>
    <g id="グループ_309" data-name="グループ 309" transform="translate(132.008 138.68)">
      <path id="パス_2144" data-name="パス 2144" d="M59.278,68.477V65.044a10.027,10.027,0,0,1-.8.974.879.879,0,0,0-.122-.1.739.739,0,0,0-.17-.122c-.049-.024-.1-.073-.122-.073a5.5,5.5,0,0,0,.706-.779A9.188,9.188,0,0,0,59.4,64c.195-.341.341-.633.487-.925l.438.17a5.848,5.848,0,0,1-.268.56c-.1.195-.195.365-.317.56v4.164h-.487Zm-.706-5.187a1.266,1.266,0,0,1-.122-.073,1.031,1.031,0,0,1-.17-.122.532.532,0,0,1-.122-.073,3.423,3.423,0,0,0,.609-.584,6.219,6.219,0,0,0,.511-.682,4.289,4.289,0,0,0,.341-.657l.487.146s-.1.219-.17.341-.146.219-.219.341h2.24v.438H60.617c.049.122.122.268.17.414s.1.268.122.365a.29.29,0,0,0-.146.049c-.073.049-.146.024-.195.049s-.122.024-.122.049c-.049-.146-.1-.292-.146-.463s-.122-.317-.17-.463h-.706a4.7,4.7,0,0,1-.414.511c-.146.146-.292.292-.438.414Zm1.753,4.164V64.07h.463v3.385Zm2.654,1.023V66.846a7.317,7.317,0,0,1-.925.755,6.658,6.658,0,0,1-1.047.633.356.356,0,0,0-.073-.122c-.049-.049-.073-.122-.122-.17s-.073-.1-.1-.1a9.133,9.133,0,0,0,1.071-.584,7.35,7.35,0,0,0,.95-.779H61.128v-.39h1.8V65.36h.487v.731h1.924v.39h-1.7a7.35,7.35,0,0,0,.95.779,5.127,5.127,0,0,0,1.071.584l-.1.1a1.029,1.029,0,0,0-.122.17c-.049.073-.073.1-.073.122a9.2,9.2,0,0,1-1.047-.633,7.434,7.434,0,0,1-.925-.779v1.656h-.487ZM61.25,65.75a1.147,1.147,0,0,0-.049-.122,1.4,1.4,0,0,0-.1-.17.532.532,0,0,0-.073-.122,6.274,6.274,0,0,0,1.023-.268,6.9,6.9,0,0,0,.852-.39c-.146-.1-.268-.195-.39-.292a4.677,4.677,0,0,1-.365-.341,4.672,4.672,0,0,1-.365.341,2.658,2.658,0,0,1-.414.317l-.1-.1a.646.646,0,0,0-.146-.122c-.049-.049-.073-.073-.1-.073a4.758,4.758,0,0,0,.925-.779,5.038,5.038,0,0,0,.682-.925l.414.195s-.122.195-.17.268a2.59,2.59,0,0,1-.219.268h2.654v.39h-.852c-.122.146-.243.292-.365.414a2.963,2.963,0,0,1-.414.365,7.344,7.344,0,0,0,.877.317,6.01,6.01,0,0,0,1,.219s-.049.073-.073.122-.073.122-.1.17a.411.411,0,0,0-.049.122c-.365-.073-.706-.17-1.047-.268a4.879,4.879,0,0,1-.974-.414,4.691,4.691,0,0,1-.925.463c-.341.122-.706.243-1.12.365Zm.682-2.459a1.266,1.266,0,0,1-.122-.073.729.729,0,0,0-.195-.1.26.26,0,0,1-.122-.073,4.127,4.127,0,0,0,.536-.584,4.257,4.257,0,0,0,.438-.706,5.455,5.455,0,0,0,.292-.706l.487.122-.146.365a2.661,2.661,0,0,1-.195.365h2.557v.414H63.9a2.705,2.705,0,0,0,.17.39c.049.146.1.268.122.365a.522.522,0,0,0-.146.024c-.073,0-.146.049-.219.049a.861.861,0,0,0-.146.024c-.049-.122-.073-.268-.146-.438s-.122-.317-.17-.438h-.731a6.164,6.164,0,0,1-.755.95Zm1.339,1.145a4.239,4.239,0,0,0,.341-.292,3.877,3.877,0,0,0,.317-.317H62.492a3.834,3.834,0,0,0,.779.584Z" transform="translate(-58.06 -61.05)" fill="#231815"/>
      <path id="パス_2145" data-name="パス 2145" d="M65.015,68.213V66a7.1,7.1,0,0,1-.925.706c-.365.243-.731.438-1.1.633-.39.195-.755.341-1.1.487a.223.223,0,0,0-.073-.122c-.024-.049-.073-.122-.1-.17a.264.264,0,0,0-.1-.122c.244-.073.511-.195.8-.317a7.074,7.074,0,0,0,.852-.438c.292-.17.56-.317.8-.487a7.7,7.7,0,0,0,.657-.487h-3v-.438h3.287v-.731H62.507V62.466h1.68v-.8H61.874V61.2h6.843v.463H66.354v.8h1.68v2.046H65.526v.731h3.287v.438H65.843c.195.146.414.317.657.487a6.317,6.317,0,0,0,.8.463c.292.146.56.292.852.414s.536.219.8.317a.951.951,0,0,1-.1.122,1.358,1.358,0,0,0-.122.195c-.049.073-.073.1-.073.146a10.186,10.186,0,0,1-1.1-.487c-.39-.195-.731-.414-1.1-.633A10.186,10.186,0,0,1,65.551,66v2.216h-.511Zm-2.021-4.14h1.169V62.9H62.994Zm1.656-1.607h1.193v-.8H64.65Zm0,1.607h1.193V62.9H64.65Zm1.68,0h1.193V62.9H66.33v1.169Z" transform="translate(-52.937 -60.835)" fill="#231815"/>
      <path id="パス_2146" data-name="パス 2146" d="M65.417,68.269a.72.72,0,0,1-.073-.146c-.049-.073-.1-.122-.146-.195a.665.665,0,0,0-.1-.122,4.088,4.088,0,0,0,2.143-1.51,5.012,5.012,0,0,0,.779-2.63l-2.386.073v-.511l2.386-.073V61.11h.536v2.046l2-.049v.244c0,.146,0,.341-.024.609,0,.243-.024.511-.049.8,0,.292-.024.584-.049.877a7.922,7.922,0,0,1-.049.8c0,.243-.024.463-.024.609v.268c0,.1,0,.146.073.195a.352.352,0,0,0,.268.073h.633a.7.7,0,0,0,.414-.1.669.669,0,0,0,.219-.365,3.4,3.4,0,0,0,.1-.852c.073.049.17.073.244.122.1.024.17.073.268.1a2.73,2.73,0,0,1-.17,1.047.76.76,0,0,1-.39.463,1.384,1.384,0,0,1-.584.122h-.852A1.3,1.3,0,0,1,69.995,68a.437.437,0,0,1-.17-.463v-.292a3.264,3.264,0,0,1,.049-.609c0-.292.049-.657.073-1.145s.073-1.1.122-1.851l-1.437.049a7.116,7.116,0,0,1-.39,2.07,3.907,3.907,0,0,1-1,1.485,5.664,5.664,0,0,1-1.729,1.071Z" transform="translate(-47.957 -60.964)" fill="#231815"/>
      <path id="パス_2147" data-name="パス 2147" d="M68.917,68.357a.72.72,0,0,1-.073-.146c-.049-.073-.1-.122-.146-.195s-.073-.122-.1-.122a4.489,4.489,0,0,0,1.266-.657,6.622,6.622,0,0,0,1.047-.974,4.622,4.622,0,0,0,.731-1.193A3.463,3.463,0,0,0,71.96,63.8H68.746v-.511H71.96V61.1H72.5v2.192h3.239V63.8H72.521a3.948,3.948,0,0,0,.341,1.242,5.652,5.652,0,0,0,1.778,2.167,5.165,5.165,0,0,0,1.242.682l-.1.146a1.352,1.352,0,0,1-.146.195,1.44,1.44,0,0,1-.1.146,7.616,7.616,0,0,1-1.412-.877,5.44,5.44,0,0,1-1.145-1.218,5.218,5.218,0,0,1-.755-1.461,4.756,4.756,0,0,1-.755,1.485A6.037,6.037,0,0,1,70.3,67.5a7.033,7.033,0,0,1-1.412.852Z" transform="translate(-42.934 -60.978)" fill="#231815"/>
      <path id="パス_2148" data-name="パス 2148" d="M75.853,67.5a.69.69,0,0,0-.073-.146,1.356,1.356,0,0,0-.122-.195c-.049-.073-.073-.122-.1-.122a3.84,3.84,0,0,0,2.143-1,2.382,2.382,0,0,0,.706-1.68,2.569,2.569,0,0,0-.292-1.218,2.386,2.386,0,0,0-.877-.9,2.9,2.9,0,0,0-1.364-.414,12.391,12.391,0,0,1-.292,1.972,13.165,13.165,0,0,1-.463,1.607,3.815,3.815,0,0,1-.609,1.1.878.878,0,0,1-.682.39,1.077,1.077,0,0,1-.584-.17,2.492,2.492,0,0,1-.536-.487,2.418,2.418,0,0,1-.365-.755,2.986,2.986,0,0,1-.146-.95,3.085,3.085,0,0,1,.219-1.145,3.154,3.154,0,0,1,1.729-1.753,3.478,3.478,0,0,1,1.461-.268,3.408,3.408,0,0,1,1.364.244A3.086,3.086,0,0,1,78,62.261a3.678,3.678,0,0,1,.657.95,2.993,2.993,0,0,1,.219,1.145,2.743,2.743,0,0,1-.779,1.948A4.851,4.851,0,0,1,75.8,67.5Zm-2.046-1.169c.122,0,.268-.1.414-.317a4.138,4.138,0,0,0,.438-.925,11.161,11.161,0,0,0,.414-1.412,12.979,12.979,0,0,0,.268-1.851,3.112,3.112,0,0,0-1.388.438,2.938,2.938,0,0,0-.925.974,2.508,2.508,0,0,0-.317,1.266,2.359,2.359,0,0,0,.17.95,1.787,1.787,0,0,0,.414.633.836.836,0,0,0,.487.244Z" transform="translate(-37.767 -60.605)" fill="#231815"/>
      <path id="パス_2149" data-name="パス 2149" d="M77.414,68.4V66.3a5.16,5.16,0,0,1-.487.584,3.857,3.857,0,0,1-.56.536,3.549,3.549,0,0,1-.536.414c0-.024-.049-.073-.1-.122a1.059,1.059,0,0,1-.146-.17c-.049-.049-.073-.1-.1-.1a2.473,2.473,0,0,0,.463-.341c.17-.146.341-.292.536-.487s.341-.365.511-.56a3.261,3.261,0,0,0,.39-.536H75.831v-.438h1.583v-1H77.9v1h1.242v.438H77.9v.1s.244.219.39.365c.146.122.317.244.487.365s.317.219.463.317l-.1.1a.437.437,0,0,0-.122.17c-.024.073-.073.1-.1.1q-.219-.146-.511-.365c-.195-.17-.365-.317-.536-.487v2.167h-.487Zm1.68-3.969V62.673a7.208,7.208,0,0,1-1.364.974,8.751,8.751,0,0,1-1.68.731.223.223,0,0,0-.073-.122c-.049-.049-.073-.122-.122-.17s-.073-.1-.1-.122a7.185,7.185,0,0,0,1.071-.39c.365-.17.731-.365,1.071-.56a10.143,10.143,0,0,0,.925-.657H76v-.438h3.093V61.09h.511v.828h3.044v.438H79.922a10.15,10.15,0,0,0,.925.633,10.982,10.982,0,0,0,1.071.536,7.988,7.988,0,0,0,1.071.365.88.88,0,0,0-.1.122c-.049.073-.073.122-.122.195s-.073.1-.073.122a10.12,10.12,0,0,1-2.167-1,5.046,5.046,0,0,1-.9-.657v1.8h-.511ZM80.628,68.4V66.277q-.365.475-.8.95a5.877,5.877,0,0,1-.974.8c0-.024-.049-.073-.1-.122l-.146-.146c-.049-.049-.1-.073-.122-.1a5.942,5.942,0,0,0,.56-.39c.195-.17.39-.341.584-.536s.365-.414.536-.609a2.712,2.712,0,0,0,.39-.584h-1.1v-.438h1.169v-1h.487v1h1.632v.438H81.115a3.932,3.932,0,0,0,.609.706,10.031,10.031,0,0,0,.755.682,6.281,6.281,0,0,0,.706.487l-.1.1a1.059,1.059,0,0,0-.146.17.42.42,0,0,0-.073.1,3.644,3.644,0,0,1-.56-.414,6.534,6.534,0,0,1-.633-.56,6.363,6.363,0,0,1-.56-.609v2.143h-.487Z" transform="translate(-33.046 -60.993)" fill="#231815"/>
    </g>
    <g id="グループ_310" data-name="グループ 310" transform="translate(29.952 35.48)">
      <path id="パス_2150" data-name="パス 2150" d="M16.525,26.56a1.89,1.89,0,0,0-.1-.17l-.146-.219c-.049-.073-.1-.122-.122-.122a4.309,4.309,0,0,0,2.338-1.68,5.9,5.9,0,0,0,.852-2.9l-2.606.1v-.56l2.63-.073V18.67h.584v2.24l2.192-.073v.292c0,.17-.024.39-.049.657,0,.268-.024.56-.049.877,0,.317-.049.633-.049.974,0,.317-.049.609-.049.9a5.254,5.254,0,0,1-.049.682.952.952,0,0,0,0,.292c0,.1,0,.17.073.219a.423.423,0,0,0,.292.073h.682a.732.732,0,0,0,.438-.1.669.669,0,0,0,.244-.414,5.362,5.362,0,0,0,.122-.95.9.9,0,0,0,.268.122,1.373,1.373,0,0,0,.292.1,3.4,3.4,0,0,1-.195,1.169.827.827,0,0,1-.414.511,1.282,1.282,0,0,1-.633.122h-.95a1.16,1.16,0,0,1-.633-.146.508.508,0,0,1-.195-.511v-.341a4.127,4.127,0,0,1,.049-.682c0-.317.049-.731.073-1.266s.073-1.218.122-2.046l-1.583.049a7.479,7.479,0,0,1-.438,2.265,4.479,4.479,0,0,1-1.1,1.656,6.511,6.511,0,0,1-1.9,1.193Z" transform="translate(-16.136 -18.67)" fill="#231815"/>
      <path id="パス_2151" data-name="パス 2151" d="M16.584,30.289a.951.951,0,0,0-.1-.122,1.125,1.125,0,0,0-.17-.17.646.646,0,0,0-.146-.122A4.6,4.6,0,0,0,17.193,29a3.043,3.043,0,0,0,.584-1.193,7.117,7.117,0,0,0,.195-1.753V22.57h.56v3.482a9.118,9.118,0,0,1-.1,1.485,4.342,4.342,0,0,1-.341,1.12,3.543,3.543,0,0,1-.609.877,5.677,5.677,0,0,1-.9.755Zm.122-2.9-.146-.049a.774.774,0,0,1-.219-.073.861.861,0,0,1-.146-.024,4.844,4.844,0,0,0,.317-.852c.1-.341.17-.682.244-1.023a7.055,7.055,0,0,0,.1-.925h.536a7.625,7.625,0,0,1-.1,1.023,7.285,7.285,0,0,1-.244,1.047,4.339,4.339,0,0,1-.341.9Zm2.946-.292c-.024-.146-.1-.317-.146-.536-.073-.195-.146-.414-.219-.633a4.879,4.879,0,0,0-.244-.633,5.362,5.362,0,0,0-.219-.511l.487-.17a3.562,3.562,0,0,1,.219.511c.073.195.17.414.244.633s.146.438.219.633.122.39.17.536a.29.29,0,0,0-.146.049.865.865,0,0,0-.219.1.4.4,0,0,0-.146.073Zm.779,2.581V22.814h.56v6.867Zm1.8-2.606c-.049-.146-.1-.317-.17-.536-.073-.195-.146-.414-.219-.633s-.17-.438-.244-.633a5.362,5.362,0,0,0-.219-.511l.487-.195a4.98,4.98,0,0,1,.317.706c.122.292.219.56.341.852.1.292.195.536.244.731a.29.29,0,0,0-.146.049c-.073.024-.146.073-.219.1a.4.4,0,0,0-.146.073Zm.852,3.239V22.57h.56v7.744Z" transform="translate(-16.121 -13.073)" fill="#231815"/>
      <path id="パス_2152" data-name="パス 2152" d="M16.7,34.058V27.629h1.729s.146-.268.219-.438a4.389,4.389,0,0,0,.195-.511c.049-.17.1-.292.122-.39l.682.1a2.732,2.732,0,0,1-.244.584c-.122.219-.219.463-.341.633H22.2v6.429H16.7Zm.584-4.481h4.31V28.141h-4.31Zm0,1.948h4.31V30.089h-4.31Zm0,2h4.31V32.037h-4.31Z" transform="translate(-15.361 -7.734)" fill="#231815"/>
      <path id="パス_2153" data-name="パス 2153" d="M16.247,37.66l-.1-.536a7.3,7.3,0,0,0,.925-.073c.365-.024.755-.073,1.145-.1v-.828H16.394v-.438H18.22v-.633h-1.7V32.571h1.7v-.56H16.174v-.463H18.22v-.584c-.317,0-.633.049-.925.073-.292,0-.56.024-.779.024a.326.326,0,0,0-.024-.122c-.024-.049-.024-.122-.049-.195s-.024-.122-.049-.122c.244,0,.56,0,.9-.024.341,0,.706-.049,1.1-.073s.731-.073,1.047-.122a4.219,4.219,0,0,0,.779-.17l.268.438c-.195.049-.438.1-.755.146s-.633.1-.974.122v.633H20.7v.463H18.756v.56h1.68v2.484h-1.68v.633h1.753v.438H18.756v.755c.365-.049.706-.073,1.047-.122.317-.049.584-.073.755-.1v.463c-.195.024-.414.073-.706.1-.292.049-.584.073-.925.122s-.657.073-1,.122-.633.073-.925.1-.536.049-.755.073Zm.8-4.018H18.22v-.633H17.051Zm0,1.023H18.22v-.657H17.051Zm1.68-1.023H19.9v-.633H18.731Zm0,1.023H19.9v-.657H18.731Zm1.534,3.507a.5.5,0,0,0-.122-.122,1.125,1.125,0,0,1-.17-.17c-.049-.049-.1-.1-.122-.1A3.15,3.15,0,0,0,21,36.662a5.64,5.64,0,0,0,.633-1.7,14.489,14.489,0,0,0,.219-2.167H20.7v-.56h1.145V30.16h.536v2.07h1.51v1.047c0,.682,0,1.291-.024,1.851s-.049,1.023-.1,1.364a3.237,3.237,0,0,1-.219.9.97.97,0,0,1-.414.463,1.282,1.282,0,0,1-.633.122h-.633s-.024-.195-.049-.292a.987.987,0,0,0-.073-.244h.706a.7.7,0,0,0,.511-.195,1.418,1.418,0,0,0,.268-.779c.024-.195.073-.487.1-.8s.049-.682.073-1.1v-1.8h-.974a13.164,13.164,0,0,1-.219,2.338,5.719,5.719,0,0,1-.657,1.753,4.362,4.362,0,0,1-1.218,1.291Z" transform="translate(-16.15 -2.18)" fill="#231815"/>
      <path id="パス_2154" data-name="パス 2154" d="M19.9,42.069V40.51H16.17V40H19.9v-.731H17.388v-3H19.9v-.755H16.511v-.511H19.9V33.96h.584v1.047h3.36v.511H20.48v.755h2.484v3H20.48V40h3.726v.511H20.48v1.558ZM17.972,37.54H19.9v-.755H17.972Zm0,1.266H19.9v-.828H17.972ZM20.48,37.54H22.4v-.755H20.48Zm0,1.266H22.4v-.828H20.48Z" transform="translate(-16.121 3.273)" fill="#231815"/>
      <path id="パス_2155" data-name="パス 2155" d="M21.274,45.655a9.05,9.05,0,0,1-1.51-.1,3.982,3.982,0,0,1-1.071-.317,3.81,3.81,0,0,1-.828-.56q-.146.11-.438.292l-.56.341q-.292.183-.438.292l-.268-.56a2.924,2.924,0,0,0,.292-.146c.122-.073.268-.122.414-.195s.292-.146.414-.219.244-.146.317-.195V41.759H16.257v-.536h1.875v3.068a2.851,2.851,0,0,0,.706.536,3.314,3.314,0,0,0,.974.268,12.115,12.115,0,0,0,1.461.073c.682,0,1.242,0,1.729-.024.487,0,.9-.049,1.266-.073a.29.29,0,0,1-.049.146.863.863,0,0,0-.073.268.864.864,0,0,1-.024.17H21.274Zm-3.482-5.771a4.991,4.991,0,0,0-.365-.463c-.146-.17-.317-.341-.487-.511s-.317-.292-.463-.414l.39-.341a3.4,3.4,0,0,1,.487.414c.17.17.341.317.487.487a5.1,5.1,0,0,1,.39.438.879.879,0,0,1-.122.1c-.073.049-.122.122-.195.17a.548.548,0,0,0-.122.122Zm1.437,4.6V40.42h1.388s.073-.244.1-.39.073-.268.1-.39H18.449v-.511H20.2c-.1-.17-.219-.341-.365-.56a5.982,5.982,0,0,0-.414-.536l.487-.219a6.083,6.083,0,0,1,.438.584,6.234,6.234,0,0,1,.39.609l-.341.146h1.145c.073-.122.17-.268.268-.438s.195-.341.292-.487a2.213,2.213,0,0,0,.195-.438l.56.17a4.928,4.928,0,0,1-.317.56c-.146.219-.268.438-.39.609h1.9v.511H21.42s-.049.244-.1.39-.073.268-.122.39h2.07v4.067H19.2Zm.584-2.873h2.922v-.731H19.813Zm0,1.193h2.922v-.731H19.813Zm0,1.193h2.922v-.731H19.813Z" transform="translate(-16.136 8.77)" fill="#231815"/>
    </g>
    <g id="グループ_311" data-name="グループ 311" transform="translate(0 184.144)">
      <path id="パス_2156" data-name="パス 2156" d="M5.506,87.78v-3.7c-.195.195-.39.39-.609.584s-.438.365-.657.536c0-.024-.049-.073-.1-.122l-.17-.17-.122-.122A6.7,6.7,0,0,0,4.9,83.933a12.434,12.434,0,0,0,.95-1.023,6.764,6.764,0,0,0,.682-1.023H4.118v-.511H5.482V79.72h.56v1.656H7.089l.195.195a6.857,6.857,0,0,1-.511.925c-.195.292-.39.584-.609.852.146.1.292.195.463.317a5.825,5.825,0,0,0,.511.317c.17.1.317.17.438.244a.953.953,0,0,1-.1.122c-.049.073-.1.122-.146.195s-.073.1-.073.122c-.17-.1-.341-.219-.56-.341-.219-.146-.414-.292-.609-.438v3.9H5.53ZM7.332,80.6v-.511h4.7V80.6ZM7.6,87.585V83.957h4.213v3.628Zm.341-4.335V81.278h3.482v1.972Zm.195,2.265H9.451v-1.1H8.136Zm0,1.583H9.451V85.954H8.136Zm.341-4.31h2.411V81.741H8.477ZM9.962,85.54h1.315v-1.1H9.962Zm0,1.583h1.315V85.978H9.962Z" transform="translate(-3.85 -79.72)" fill="#231815"/>
      <path id="パス_2157" data-name="パス 2157" d="M9.527,91.352a.941.941,0,0,0-.049-.292,1.975,1.975,0,0,0-.073-.268h.852c.122,0,.219,0,.268-.073a.323.323,0,0,0,.073-.244V84.241H4.73v7.086H4.17v-7.6h7.013v6.891a.779.779,0,0,1-.195.56.829.829,0,0,1-.609.17H9.527Zm-3.8-1.51V87.529H6.24v1.826H7.384v-2.63H5.12v-.511H7.847a4.776,4.776,0,0,0,.292-.511c.1-.195.219-.414.317-.609s.17-.365.244-.536l.511.195a3.742,3.742,0,0,1-.219.463l-.292.511c-.1.17-.195.341-.292.487h1.729v.511H7.9v2.63H9.04V87.529h.511v2.313H5.7ZM6.8,86.165a4.652,4.652,0,0,0-.365-.682c-.146-.243-.292-.438-.414-.633l.463-.268a7.152,7.152,0,0,1,.414.633c.146.243.268.463.39.682a.689.689,0,0,0-.146.073,1.437,1.437,0,0,1-.195.1c-.049.024-.1.073-.122.073Z" transform="translate(-3.391 -73.965)" fill="#231815"/>
      <path id="パス_2158" data-name="パス 2158" d="M7.676,95.436V90.955H5.655v3.6H5.07V90.4H7.676v-1.12H3.95v-.536H7.676V87.4H8.26v1.339h3.726v.536H8.26V90.4h2.7v3.36c0,.487-.268.731-.828.731H9.283a.857.857,0,0,0-.049-.292c-.049-.1-.049-.195-.1-.268h.9c.122,0,.219,0,.268-.073a.364.364,0,0,0,.073-.244V90.931H8.26v4.481H7.676Z" transform="translate(-3.706 -68.698)" fill="#231815"/>
    </g>
    <g id="グループ_312" data-name="グループ 312" transform="translate(289.634 183.901)">
      <path id="パス_2159" data-name="パス 2159" d="M123.155,82.25a.95.95,0,0,0-.1-.122,1.059,1.059,0,0,1-.146-.17l-.122-.122a4.568,4.568,0,0,0,.584-.438,6.614,6.614,0,0,0,.584-.584,3.556,3.556,0,0,0,.487-.609,5.119,5.119,0,0,0,.341-.584l.463.146a3.541,3.541,0,0,0,.438.511c.195.195.39.365.609.56a7.541,7.541,0,0,0,.633.438l-.122.122a1.125,1.125,0,0,1-.17.17c-.049.049-.073.1-.1.122-.17-.122-.341-.268-.536-.438s-.39-.365-.584-.536c-.17-.195-.317-.341-.438-.487-.146.219-.317.463-.511.706a5.953,5.953,0,0,1-.657.706,7.277,7.277,0,0,1-.682.584Zm4.456,5.406a.953.953,0,0,0-.1-.122l-.146-.17s-.073-.1-.1-.1a6.2,6.2,0,0,0,1-.731,4.757,4.757,0,0,0,.779-.925,8.09,8.09,0,0,1-.536-1.339,7.866,7.866,0,0,1-.292-1.607H127.9v.1a16.031,16.031,0,0,1-.1,1.948,7.543,7.543,0,0,1-.365,1.583,5.009,5.009,0,0,1-.731,1.315.88.88,0,0,0-.122-.1c-.073-.049-.122-.073-.195-.122s-.1-.073-.146-.073c.122-.146.219-.292.341-.463-.049.024-.122.073-.219.122a.783.783,0,0,0-.17.1,2.374,2.374,0,0,0-.122-.268l-.146-.292c-.195.073-.438.17-.682.268l-.8.292c-.268.1-.536.17-.755.244-.243.073-.414.122-.56.17l-.195-.511s.219-.049.365-.1.292-.073.463-.122V82.1h1.1v-.9h.536v.9h1.1v2.971H124.3v1.51c.268-.073.511-.17.779-.244a6.425,6.425,0,0,0,.657-.243c-.073-.122-.146-.244-.219-.341a2.754,2.754,0,0,0-.243-.317l.438-.243a4.223,4.223,0,0,1,.365.487c.122.195.244.365.341.56s.195.365.268.511a4.838,4.838,0,0,0,.584-1.729,15.6,15.6,0,0,0,.146-2.265V80.083h3.6v.511h-3.044v1.558h2.581l.195.146a15.1,15.1,0,0,1-.365,1.826,5.985,5.985,0,0,1-.633,1.51,4.848,4.848,0,0,0,.706.877,6.342,6.342,0,0,0,.877.731.5.5,0,0,0-.122.122,1.124,1.124,0,0,1-.17.17c-.049.049-.1.1-.1.122a4.8,4.8,0,0,1-.828-.731,5.255,5.255,0,0,1-.657-.8,4.836,4.836,0,0,1-.755.828,7.808,7.808,0,0,1-.974.731Zm-3.36-4.31h1.656v-.8h-1.656Zm0,1.242h1.656V83.76h-1.656Zm5.089.511a6.71,6.71,0,0,0,.438-1.12,7.242,7.242,0,0,0,.268-1.339h-1.364a7.28,7.28,0,0,0,.243,1.339A6.7,6.7,0,0,0,129.341,85.1Z" transform="translate(-122.79 -79.62)" fill="#231815"/>
      <path id="パス_2160" data-name="パス 2160" d="M127.252,91.381a.941.941,0,0,0-.049-.292,1.975,1.975,0,0,0-.073-.268h.584a.959.959,0,0,0,.487-.122.636.636,0,0,0,.243-.438,3.894,3.894,0,0,0,.073-.877v-.341a1.388,1.388,0,0,0-.024-.317,9.878,9.878,0,0,1-.852.731q-.511.365-1.1.731-.584.329-1.1.584a.689.689,0,0,0-.073-.146,1.36,1.36,0,0,0-.122-.195c-.049-.073-.073-.122-.1-.122a6.132,6.132,0,0,0,.828-.39c.292-.17.609-.341.9-.536a7.27,7.27,0,0,0,.828-.609,7.8,7.8,0,0,0,.633-.584,3.785,3.785,0,0,0-.195-.56,7.8,7.8,0,0,1-.657.536,6.483,6.483,0,0,1-.8.511,7.079,7.079,0,0,1-.852.438.357.357,0,0,0-.073-.122c-.049-.049-.073-.146-.122-.195-.17.073-.365.17-.584.268s-.463.195-.731.292l-.731.292c-.243.1-.438.146-.584.219l-.195-.56c.146-.049.341-.1.56-.17s.463-.146.682-.244V86.024h-1.169v-.536h1.169V83.54h.536v1.948h.95v.536h-.95v2.654c.219-.1.438-.17.633-.268s.365-.17.487-.219v.414a7.739,7.739,0,0,0,.779-.39,8.39,8.39,0,0,0,.779-.487,4.807,4.807,0,0,0,.633-.511,3.836,3.836,0,0,0-.365-.463,9.636,9.636,0,0,1-.828.536,7.357,7.357,0,0,1-.877.438.357.357,0,0,0-.073-.122c-.049-.073-.073-.122-.122-.195a.222.222,0,0,1-.073-.122,6.079,6.079,0,0,0,.9-.438c.292-.17.584-.365.852-.536a5.927,5.927,0,0,0,.706-.536h-1.656v-.511H130.2v.511h-1.534l-.341.341c-.122.122-.268.244-.414.365a3.762,3.762,0,0,1,.463.584,3.294,3.294,0,0,1,.365.779c.17-.122.365-.244.56-.39s.414-.317.609-.463a4.136,4.136,0,0,0,.463-.438l.365.365c-.146.122-.317.268-.511.414s-.414.317-.633.463a6.233,6.233,0,0,1-.609.39c.195.219.414.463.658.706s.511.463.779.682a9.068,9.068,0,0,0,.755.536.5.5,0,0,0-.122.122c-.049.073-.1.122-.146.195a.664.664,0,0,1-.1.122,9.022,9.022,0,0,1-1-.8,6.619,6.619,0,0,1-.9-.95,1.184,1.184,0,0,0,.024.292v.292a4.982,4.982,0,0,1-.122,1.193,1.026,1.026,0,0,1-.39.609,1.335,1.335,0,0,1-.755.17h-.511Zm-1.485-5.942V83.784h5.114v1.656h-.536V84.295h-4.018v1.145h-.536Z" transform="translate(-122.747 -73.994)" fill="#231815"/>
      <path id="パス_2161" data-name="パス 2161" d="M126.606,95.336V90.855h-2.021v3.6H124V90.3h2.606v-1.12H122.88v-.536h3.726V87.3h.584v1.339h3.726v.536H127.19V90.3h2.7v3.36c0,.487-.268.731-.828.731h-.852a.857.857,0,0,0-.049-.292c-.049-.1-.049-.195-.1-.268h.9c.122,0,.219,0,.268-.073a.364.364,0,0,0,.073-.244V90.831H127.19v4.481h-.584Z" transform="translate(-122.661 -68.598)" fill="#231815"/>
    </g>
    <rect id="長方形_220" data-name="長方形 220" width="20.431" height="15.22" transform="translate(214.34 99.67)" fill="#2f3030"/>
    <rect id="長方形_221" data-name="長方形 221" width="15.487" height="11.518" transform="translate(216.824 101.52)" fill="#2f3030" stroke="#fff" stroke-miterlimit="10" stroke-width="0.25"/>
    <line id="線_160" data-name="線 160" x2="4.822" y2="7.305" transform="translate(228.878 114.037)" fill="none" stroke="#2f3030" stroke-linecap="round" stroke-miterlimit="10" stroke-width="0.33"/>
    <line id="線_161" data-name="線 161" x2="71.227" y2="0.073" transform="translate(233.772 121.342)" fill="none" stroke="#2f3030" stroke-linecap="round" stroke-miterlimit="10" stroke-width="0.33"/>
    <g id="x" transform="translate(163.936 178.321)">
      <path id="パス_2162" data-name="パス 2162" d="M83.66,101.172c9.351,0,14.538-16.242,11.737-20.309-3.36-4.846-20.09-4.578-23.45,0-2.849,3.921,2.386,20.309,11.737,20.309Z" transform="translate(-71.171 -77.328)" fill="#686868" stroke="#f7f8f8" stroke-linecap="round" stroke-miterlimit="10" stroke-width="0.6"/>
      <g id="グループ_313" data-name="グループ 313" transform="translate(3.942 7.066)">
        <path id="パス_2163" data-name="パス 2163" d="M78.1,87.024H72.79l1.632-1.7a12.112,12.112,0,0,0,1.023-1.145,9.34,9.34,0,0,0,.536-.779,1.766,1.766,0,0,0,.219-.536,1.91,1.91,0,0,0,.049-.341.618.618,0,0,0-.049-.292.811.811,0,0,0-.146-.243.874.874,0,0,0-.244-.17.674.674,0,0,0-.317-.073.647.647,0,0,0-.536.219.868.868,0,0,0-.195.56,1.4,1.4,0,0,0,.024.292H72.912a2.863,2.863,0,0,1,.195-1.047,2.031,2.031,0,0,1,.536-.8,2.326,2.326,0,0,1,.8-.536,2.956,2.956,0,0,1,2.046-.024,2.224,2.224,0,0,1,.8.487,2.369,2.369,0,0,1,.536.755,2.451,2.451,0,0,1,.195.95,1.958,1.958,0,0,1-.243,1,3.823,3.823,0,0,1-.731.95l-1.1,1.023H78.1v1.461Z" transform="translate(-72.79 -80.23)" fill="#fff"/>
        <path id="パス_2164" data-name="パス 2164" d="M75.38,83.722a5.255,5.255,0,0,1,.195-1.437,2.945,2.945,0,0,1,.584-1.1,3.029,3.029,0,0,1,.877-.706,2.7,2.7,0,0,1,2.24,0,2.738,2.738,0,0,1,.877.706,2.913,2.913,0,0,1,.56,1.1,5.395,5.395,0,0,1,0,2.873,2.913,2.913,0,0,1-.56,1.1,2.738,2.738,0,0,1-.877.706,2.7,2.7,0,0,1-2.24,0,2.738,2.738,0,0,1-.877-.706,3.923,3.923,0,0,1-.584-1.1A4.461,4.461,0,0,1,75.38,83.722Zm1.7,0a4.106,4.106,0,0,0,.073.8,1.984,1.984,0,0,0,.219.609,1.477,1.477,0,0,0,.341.414.749.749,0,0,0,.463.146.68.68,0,0,0,.438-.146.978.978,0,0,0,.341-.414,2.248,2.248,0,0,0,.219-.609,4.457,4.457,0,0,0,0-1.607,1.984,1.984,0,0,0-.219-.609,1.934,1.934,0,0,0-.341-.414.786.786,0,0,0-.438-.146.861.861,0,0,0-.463.146.979.979,0,0,0-.341.414,2.248,2.248,0,0,0-.219.609A4.106,4.106,0,0,0,77.085,83.722Z" transform="translate(-69.073 -80.216)" fill="#fff"/>
        <path id="パス_2165" data-name="パス 2165" d="M79.33,81.757h-.95V80.32h2.679v6.575h-1.7V81.757Z" transform="translate(-64.768 -80.101)" fill="#fff"/>
      </g>
    </g>
    <path id="パス_2166" data-name="パス 2166" d="M90.782,47.012A9.717,9.717,0,0,1,81.09,37.32" transform="translate(106.999 43.575)" fill="none" stroke="#707070" stroke-linecap="round" stroke-miterlimit="10" stroke-width="1.33"/>
    <path id="パス_2167" data-name="パス 2167" d="M70.712,31.342A9.717,9.717,0,0,1,61.02,21.65" transform="translate(78.196 21.086)" fill="none" stroke="#707070" stroke-linecap="round" stroke-miterlimit="10" stroke-width="1.33"/>
    <path id="パス_2168" data-name="パス 2168" d="M98.762,60.742A9.717,9.717,0,0,1,89.07,51.05" transform="translate(118.451 63.279)" fill="none" stroke="#707070" stroke-linecap="round" stroke-miterlimit="10" stroke-width="1.33"/>
    <path id="パス_2169" data-name="パス 2169" d="M66.722,13.27a9.717,9.717,0,0,1-9.692,9.692" transform="translate(72.47 9.06)" fill="none" stroke="#707070" stroke-linecap="round" stroke-miterlimit="10" stroke-width="1.33"/>
    <path id="パス_2170" data-name="パス 2170" d="M76.662,40.54a9.717,9.717,0,0,1-9.692,9.692" transform="translate(86.735 48.196)" fill="none" stroke="#707070" stroke-linecap="round" stroke-miterlimit="10" stroke-width="1.33"/>
    <path id="パス_2171" data-name="パス 2171" d="M85.07,41.3a9.717,9.717,0,0,1,9.692,9.692" transform="translate(112.711 49.287)" fill="none" stroke="#707070" stroke-linecap="round" stroke-miterlimit="10" stroke-width="1.33"/>
    <path id="パス_2172" data-name="パス 2172" d="M93.05,55.03a9.717,9.717,0,0,1,9.692,9.692" transform="translate(124.163 68.991)" fill="none" stroke="#707070" stroke-linecap="round" stroke-miterlimit="10" stroke-width="1.33"/>
    <line id="y" x2="38.792" transform="translate(206.182 142.357)" fill="none" stroke="#707070" stroke-linecap="round" stroke-miterlimit="10" stroke-width="1.33"/>
    <line id="z" x2="68.159" transform="translate(148.908 52.428)" fill="none" stroke="#707070" stroke-linecap="round" stroke-miterlimit="10" stroke-width="1.33"/>
    <line id="aa" x2="67.575" transform="translate(61.925 32.022)" fill="none" stroke="#707070" stroke-linecap="round" stroke-miterlimit="10" stroke-width="1.33"/>
    <line id="ab" x2="91.78" transform="translate(61.925 98.428)" fill="none" stroke="#707070" stroke-linecap="round" stroke-miterlimit="10" stroke-width="1.33"/>
    <line id="ac" x2="18.604" transform="translate(226.929 157.894)" fill="none" stroke="#707070" stroke-linecap="round" stroke-miterlimit="10" stroke-width="1.33"/>
    <g id="グループ_315" data-name="グループ 315" transform="translate(109.775 88.98)">
      <path id="パス_2173" data-name="パス 2173" d="M71.625,40.64H54.263L48.93,49.528l5.333,8.864H71.625l4.895-8.864Z" transform="translate(-48.93 -40.64)" fill="#686868" stroke="#f7f8f8" stroke-linecap="round" stroke-miterlimit="10" stroke-width="0.66"/>
      <g id="グループ_314" data-name="グループ 314" transform="translate(7.768 4.968)">
        <path id="パス_2174" data-name="パス 2174" d="M57.526,49.571H52.12l1.656-1.729q.657-.694,1.023-1.169a7.149,7.149,0,0,0,.56-.8,1.766,1.766,0,0,0,.219-.536,2.27,2.27,0,0,0,.049-.341.618.618,0,0,0-.049-.292.505.505,0,0,0-.146-.244.875.875,0,0,0-.244-.17.674.674,0,0,0-.317-.073.734.734,0,0,0-.56.219.889.889,0,0,0-.195.584,1.4,1.4,0,0,0,.024.292h-1.9a3,3,0,0,1,.195-1.071,2.691,2.691,0,0,1,.536-.828,2.118,2.118,0,0,1,.828-.536,3.094,3.094,0,0,1,2.094-.024,3.093,3.093,0,0,1,.828.487,2.044,2.044,0,0,1,.536.755,2.451,2.451,0,0,1,.195.95,2.113,2.113,0,0,1-.243,1.023,3.686,3.686,0,0,1-.755.95l-1.12,1.047H57.5v1.485Z" transform="translate(-52.12 -42.68)" fill="#fff"/>
        <path id="パス_2175" data-name="パス 2175" d="M56.224,44.245H55.25V42.76h2.727v6.7H56.224V44.221Z" transform="translate(-47.628 -42.565)" fill="#fff"/>
      </g>
    </g>
    <g id="グループ_317" data-name="グループ 317" transform="translate(72.299 135.71)">
      <path id="パス_2176" data-name="パス 2176" d="M56.235,59.83H38.873L33.54,68.694l5.333,8.864H56.235l4.895-8.864Z" transform="translate(-33.54 -59.83)" fill="#686868" stroke="#f7f8f8" stroke-linecap="round" stroke-miterlimit="10" stroke-width="0.66"/>
      <g id="グループ_316" data-name="グループ 316" transform="translate(7.914 5.065)">
        <path id="パス_2177" data-name="パス 2177" d="M39.128,64.686h.195a.8.8,0,0,0,.536-.195A.594.594,0,0,0,40.053,64a.666.666,0,0,0-.682-.682.629.629,0,0,0-.511.219.8.8,0,0,0-.195.536H37.082a2.735,2.735,0,0,1,.268-.925,2.386,2.386,0,0,1,.511-.682,1.868,1.868,0,0,1,.706-.414,2.689,2.689,0,0,1,.9-.146,2.547,2.547,0,0,1,.877.146,2.08,2.08,0,0,1,.682.39,1.564,1.564,0,0,1,.438.609,2.145,2.145,0,0,1,.146.8,1.538,1.538,0,0,1-.17.779,1.7,1.7,0,0,1-.511.511,1.334,1.334,0,0,1,.779.56,1.669,1.669,0,0,1,.292,1,2.214,2.214,0,0,1-.195.9,2.082,2.082,0,0,1-.536.682,2.244,2.244,0,0,1-.828.438,3.511,3.511,0,0,1-1.047.146,3.037,3.037,0,0,1-1.364-.292,2.281,2.281,0,0,1-.974-.95,1.439,1.439,0,0,1-.219-.584,4.728,4.728,0,0,1-.049-.584h1.7a.935.935,0,0,0,.268.706.9.9,0,0,0,.682.244.781.781,0,0,0,.657-.244.89.89,0,0,0,.219-.609.73.73,0,0,0-.244-.633.89.89,0,0,0-.609-.219H39.3a.414.414,0,0,0-.17.024V64.662Z" transform="translate(-36.79 -61.91)" fill="#fff"/>
        <path id="パス_2178" data-name="パス 2178" d="M43.912,63.422H41.623l-.122.731a1.661,1.661,0,0,0,.292-.024h.268a2.319,2.319,0,0,1,.925.17,1.927,1.927,0,0,1,.731.487,2.257,2.257,0,0,1,.487.731,2.4,2.4,0,0,1,.17.925,2.276,2.276,0,0,1-.195.95,1.841,1.841,0,0,1-.56.731,2.511,2.511,0,0,1-.877.463,4.133,4.133,0,0,1-2.265.024,3.364,3.364,0,0,1-1-.438l.244-1.607a4.065,4.065,0,0,0,.9.584,2.266,2.266,0,0,0,.852.195,1.146,1.146,0,0,0,.828-.292.958.958,0,0,0,.317-.706.939.939,0,0,0-.414-.779,1.8,1.8,0,0,0-1.071-.292,1.741,1.741,0,0,0-.609.073,4.451,4.451,0,0,0-.609.195l.56-3.531h3.458v1.437Z" transform="translate(-32.929 -61.766)" fill="#fff"/>
      </g>
    </g>
    <g id="グループ_318" data-name="グループ 318" transform="translate(229.243 176.912)">
      <path id="パス_2179" data-name="パス 2179" d="M98.23,97.966l5.6-3.555V84.305l-5.6-3.531L100.616,77l7.671,4.87V96.846l-7.671,4.87Z" transform="translate(-97.646 -76.391)" fill="#686868"/>
      <path id="パス_2180" data-name="パス 2180" d="M101.083,77.943l7.111,4.5V96.986l-7.111,4.5-1.948-3.068,5.065-3.214.39-.243V84.421l-.39-.243-5.065-3.214,1.948-3.068m-.268-1.145L97.99,81.206l5.747,3.653V94.5L97.99,98.155l2.825,4.456L109,97.424h0V81.937h-.049L100.79,76.75h0Z" transform="translate(-97.99 -76.75)" fill="#f7f8f8"/>
    </g>
    <g id="ad" transform="translate(255.445 101.593)">
      <path id="パス_2181" data-name="パス 2181" d="M123.892,53.389c-.56-.365-1.1-.974-1-2.63v-.073a2.862,2.862,0,0,0-2.727-1.826s1,7.062-4.846,8.937c-.024,0-.024.049,0,.073l.877.536a.7.7,0,0,0,.292.049c1.218-.292,4.627-1.023,5.966-4.627a2.957,2.957,0,0,0,1.656.536,3.686,3.686,0,0,0,.731-.049l.17-.049a.858.858,0,0,0,.584-.536c0-.073.049-.146.049-.195a.089.089,0,0,0-.1-.1,4.078,4.078,0,0,0-.487.1,2.79,2.79,0,0,1-1.169-.146h0Z" transform="translate(-99.346 -41.457)" fill="#040c21"/>
      <path id="パス_2182" data-name="パス 2182" d="M108.75,46.474v.39h0v3.872h0v7.086a.982.982,0,0,0,.146.536,4.611,4.611,0,0,0,2.825,2.362V49.932c2.338,1.12,3.628,3.823,4.237,5.065V53.244c-.633-3.068-3.531-6.453-7.184-6.794h0Z" transform="translate(-108.75 -44.916)" fill="#040c21"/>
      <path id="パス_2183" data-name="パス 2183" d="M142.6,58.483a1.438,1.438,0,0,1-.8-.536,4.768,4.768,0,0,1-.584-3v-.56h0v-.463a.475.475,0,0,0-.024-.17v-.024a.309.309,0,0,0-.024-.146v-.024a1.4,1.4,0,0,0-.1-.341h0a4.866,4.866,0,0,0-.243-.511h0a3.57,3.57,0,0,0-.219-.317,2.246,2.246,0,0,0-1.364-.731,4.669,4.669,0,0,0-.487-.024h-4.822V50.13a.971.971,0,0,0-.17-.584,4.93,4.93,0,0,0-2.8-1.948V51.64H114.887V48.353a1.043,1.043,0,0,0-.146-.536,5.123,5.123,0,0,0-2.8-2V56.778a.982.982,0,0,0,.146.536,4.611,4.611,0,0,0,2.825,2.362V52.395h2.752c1.9.122,2.386,1.169,2.338,2h0s-1-.024-1.388,0c-3.312.292-3.434,4.188-.633,4.968l1.461-1.218c-1.51-1.315-1.7-2.07-1.12-2.776.341-.414,1.607-.268,1.7-.268.146,2.167,1.047,3.823,3.36,4.286l.39-.8a1.438,1.438,0,0,1-.8-.536,4.768,4.768,0,0,1-.584-3,4.03,4.03,0,0,0-.706-2.606h9.327v4.5a.982.982,0,0,0,.146.536,4.611,4.611,0,0,0,2.825,2.362v-7.4h2.679c1.9.122,2.386,1.169,2.338,2h0s-1-.024-1.388,0c-3.312.292-3.434,4.188-.633,4.968l1.461-1.218c-1.51-1.315-1.7-2.07-1.12-2.776.341-.414,1.607-.268,1.7-.268.146,2.167,1.047,3.823,3.36,4.286l.39-.8h0Z" transform="translate(-104.172 -45.82)" fill="#040c21"/>
    </g>
  </g>
</svg>
