<svg xmlns="http://www.w3.org/2000/svg" width="238.01" height="117.47" viewBox="0 0 238.01 117.47">
  <g id="Logo_another" transform="translate(-11.72 -12.89)">
    <path id="パス_2230" data-name="パス 2230" d="M243.3,12.89H18.15a6.432,6.432,0,0,0-6.43,6.43V123.93a6.438,6.438,0,0,0,6.43,6.43H243.3a6.438,6.438,0,0,0,6.43-6.43V19.32a6.438,6.438,0,0,0-6.43-6.43ZM81.48,95.04a2.965,2.965,0,0,1-2.19,2.86l-49,20.24a2.964,2.964,0,0,1-3.74-2.86V24.86c2.29,0,51.5.2,54.93.2V95.03Z" fill="#040000"/>
    <g id="グループ_392" data-name="グループ 392">
      <path id="パス_2231" data-name="パス 2231" d="M105.79,54.81l5.14,7.08h-3.06l-4.74-6.8h-.45v6.8h-2.51V45.28h2.94c2.19,0,3.78.41,4.75,1.24a4.528,4.528,0,0,1,1.61,3.63,4.731,4.731,0,0,1-1.01,3.03,4.476,4.476,0,0,1-2.67,1.62Zm-3.12-1.9h.8q3.555,0,3.56-2.72,0-2.55-3.46-2.55h-.89v5.27Z" fill="#fff"/>
      <path id="パス_2232" data-name="パス 2232" d="M121.43,57.8h-6.57a2.793,2.793,0,0,0,.74,1.8,2.23,2.23,0,0,0,1.66.66,2.118,2.118,0,0,0,1.31-.38,5.367,5.367,0,0,0,1.16-1.39l1.79,1a7.413,7.413,0,0,1-.88,1.21,5.076,5.076,0,0,1-.99.83,3.834,3.834,0,0,1-1.14.48,5.584,5.584,0,0,1-1.33.15,4.287,4.287,0,0,1-3.29-1.32,4.929,4.929,0,0,1-1.24-3.52,5.077,5.077,0,0,1,1.2-3.52,4.588,4.588,0,0,1,6.42-.04,5.066,5.066,0,0,1,1.17,3.55v.5Zm-2.18-1.73a2.025,2.025,0,0,0-2.14-1.69,2.192,2.192,0,0,0-.73.12,2.083,2.083,0,0,0-.62.34,2.218,2.218,0,0,0-.48.53,2.531,2.531,0,0,0-.3.71h4.25Z" fill="#fff"/>
      <path id="パス_2233" data-name="パス 2233" d="M124.9,52.72h2.13v.85a3.492,3.492,0,0,1,2.5-1.1,3.149,3.149,0,0,1,2.5,1.01,4.147,4.147,0,0,1,.77,2.8V61.9h-2.13V56.78a3.239,3.239,0,0,0-.38-1.87,1.532,1.532,0,0,0-1.34-.53,1.639,1.639,0,0,0-1.5.7,4.793,4.793,0,0,0-.43,2.4V61.9h-2.13V52.73Z" fill="#fff"/>
      <path id="パス_2234" data-name="パス 2234" d="M138.81,54.69v7.19h-2.12V54.69h-.9V52.71h.9V49.35h2.12v3.36h1.65v1.98Z" fill="#fff"/>
      <path id="パス_2235" data-name="パス 2235" d="M149.98,52.72h2.13v9.17h-2.13v-.96a4.078,4.078,0,0,1-5.96-.15,5.1,5.1,0,0,1-1.23-3.5,4.892,4.892,0,0,1,1.23-3.43,3.988,3.988,0,0,1,3.09-1.37,3.893,3.893,0,0,1,2.87,1.32V52.74Zm-5.02,4.56a3.17,3.17,0,0,0,.71,2.15,2.3,2.3,0,0,0,1.83.84,2.429,2.429,0,0,0,1.9-.81,3.163,3.163,0,0,0,.73-2.13,3.114,3.114,0,0,0-.73-2.13,2.5,2.5,0,0,0-3.71.01,3.07,3.07,0,0,0-.72,2.07Z" fill="#fff"/>
      <path id="パス_2236" data-name="パス 2236" d="M158.05,45.99v15.9h-2.12V45.99h2.12Z" fill="#fff"/>
    </g>
    <g id="グループ_393" data-name="グループ 393">
      <path id="パス_2237" data-name="パス 2237" d="M179.11,47.75l-2.03,1.2a3.43,3.43,0,0,0-1.09-1.29,2.534,2.534,0,0,0-1.39-.34,2.573,2.573,0,0,0-1.73.59,1.842,1.842,0,0,0-.69,1.46c0,.81.6,1.46,1.81,1.96l1.66.68a7.115,7.115,0,0,1,2.96,2,4.518,4.518,0,0,1,.94,2.89,5.079,5.079,0,0,1-1.53,3.79,5.273,5.273,0,0,1-3.82,1.51,5.124,5.124,0,0,1-3.57-1.28,5.848,5.848,0,0,1-1.73-3.6l2.54-.56a4.19,4.19,0,0,0,.6,2.02,2.611,2.611,0,0,0,2.26,1.08,2.646,2.646,0,0,0,1.95-.78,2.714,2.714,0,0,0,.77-1.99,2.816,2.816,0,0,0-.13-.89,2.281,2.281,0,0,0-.42-.74,3.107,3.107,0,0,0-.74-.63,6.735,6.735,0,0,0-1.08-.57l-1.6-.67q-3.405-1.44-3.41-4.22a4.01,4.01,0,0,1,1.43-3.13,5.191,5.191,0,0,1,3.56-1.27,4.945,4.945,0,0,1,4.48,2.8Z" fill="#fff"/>
      <path id="パス_2238" data-name="パス 2238" d="M185.35,65.61h-2.12V52.72h2.12v1a4.015,4.015,0,0,1,5.95.14,5.021,5.021,0,0,1,1.24,3.49,4.892,4.892,0,0,1-1.23,3.43,4.024,4.024,0,0,1-5.97.07V65.6Zm5.03-8.25a3.175,3.175,0,0,0-.72-2.15,2.3,2.3,0,0,0-1.83-.84,2.408,2.408,0,0,0-1.89.81,3.472,3.472,0,0,0,0,4.26,2.363,2.363,0,0,0,1.88.82,2.307,2.307,0,0,0,1.82-.83,3,3,0,0,0,.74-2.07Z" fill="#fff"/>
      <path id="パス_2239" data-name="パス 2239" d="M202.7,52.72h2.13v9.17H202.7v-.96a4.078,4.078,0,0,1-5.96-.15,5.1,5.1,0,0,1-1.23-3.5,4.892,4.892,0,0,1,1.23-3.43,3.988,3.988,0,0,1,3.09-1.37,3.893,3.893,0,0,1,2.87,1.32V52.74Zm-5.02,4.56a3.17,3.17,0,0,0,.71,2.15,2.3,2.3,0,0,0,1.83.84,2.429,2.429,0,0,0,1.9-.81,3.163,3.163,0,0,0,.73-2.13,3.114,3.114,0,0,0-.73-2.13,2.5,2.5,0,0,0-3.71.01,3.07,3.07,0,0,0-.72,2.07Z" fill="#fff"/>
      <path id="パス_2240" data-name="パス 2240" d="M215.79,53.11v2.81a5.128,5.128,0,0,0-1.3-1.21,2.508,2.508,0,0,0-1.33-.34,2.621,2.621,0,0,0-1.99.84,2.932,2.932,0,0,0-.79,2.1,3.048,3.048,0,0,0,.76,2.12,2.574,2.574,0,0,0,1.97.83,2.636,2.636,0,0,0,1.34-.33,5.32,5.32,0,0,0,1.33-1.24v2.8a5.514,5.514,0,0,1-2.58.67,4.969,4.969,0,0,1-3.56-1.37,4.841,4.841,0,0,1,.02-6.89,4.895,4.895,0,0,1,3.56-1.41,5.351,5.351,0,0,1,2.56.65Z" fill="#fff"/>
      <path id="パス_2241" data-name="パス 2241" d="M227.34,57.8h-6.57a2.793,2.793,0,0,0,.74,1.8,2.23,2.23,0,0,0,1.66.66,2.118,2.118,0,0,0,1.31-.38,5.367,5.367,0,0,0,1.16-1.39l1.79,1a7.413,7.413,0,0,1-.88,1.21,5.076,5.076,0,0,1-.99.83,3.834,3.834,0,0,1-1.14.48,5.584,5.584,0,0,1-1.33.15,4.287,4.287,0,0,1-3.29-1.32,4.929,4.929,0,0,1-1.24-3.52,5.077,5.077,0,0,1,1.2-3.52,4.588,4.588,0,0,1,6.42-.04,5.066,5.066,0,0,1,1.17,3.55v.5Zm-2.18-1.73a2.025,2.025,0,0,0-2.14-1.69,2.192,2.192,0,0,0-.73.12,2.083,2.083,0,0,0-.62.34,2.218,2.218,0,0,0-.48.53,2.531,2.531,0,0,0-.3.71h4.25Z" fill="#fff"/>
    </g>
    <g id="グループ_394" data-name="グループ 394">
      <path id="パス_2242" data-name="パス 2242" d="M112.91,79.53h4.08V97.12h-4.08V95.28a7.8,7.8,0,0,1-11.43-.29,9.784,9.784,0,0,1-2.37-6.72,9.4,9.4,0,0,1,2.37-6.59,7.622,7.622,0,0,1,5.92-2.64,7.472,7.472,0,0,1,5.51,2.53V79.53Zm-9.65,8.74a6.093,6.093,0,0,0,1.36,4.12,4.439,4.439,0,0,0,3.5,1.61,4.68,4.68,0,0,0,3.65-1.55,6.683,6.683,0,0,0,0-8.16,4.59,4.59,0,0,0-3.61-1.57,4.466,4.466,0,0,0-3.5,1.59,5.846,5.846,0,0,0-1.39,3.97Z" fill="#fff"/>
      <path id="パス_2243" data-name="パス 2243" d="M122.12,79.53h4.08v1.62a6.646,6.646,0,0,1,4.8-2.11,6.106,6.106,0,0,1,4.79,1.93q1.485,1.65,1.48,5.36V97.12h-4.08V87.29a6.449,6.449,0,0,0-.72-3.59,2.937,2.937,0,0,0-2.57-1.01,3.129,3.129,0,0,0-2.87,1.34,9.242,9.242,0,0,0-.83,4.61v8.49h-4.08V79.54Z" fill="#fff"/>
      <path id="パス_2244" data-name="パス 2244" d="M141.57,88.2a8.726,8.726,0,0,1,2.73-6.48,9.615,9.615,0,0,1,13.33.01,9.416,9.416,0,0,1-.02,13.24,9.326,9.326,0,0,1-6.74,2.65,8.89,8.89,0,0,1-6.63-2.71,9.112,9.112,0,0,1-2.67-6.72Zm4.15.07a5.915,5.915,0,0,0,1.41,4.17,5.47,5.47,0,0,0,7.62.01,6.593,6.593,0,0,0,0-8.2,5.421,5.421,0,0,0-7.59,0,5.675,5.675,0,0,0-1.45,4.01Z" fill="#fff"/>
      <path id="パス_2245" data-name="パス 2245" d="M169.05,83.33v13.8h-4.06V83.33h-1.73V79.54h1.73V73.09h4.06v6.45h3.16v3.79Z" fill="#fff"/>
      <path id="パス_2246" data-name="パス 2246" d="M175.71,69.73h4.06V80.99a7.01,7.01,0,0,1,4.79-1.95,6.208,6.208,0,0,1,4.77,1.93q1.515,1.68,1.52,5.36V97.12h-4.06V86.71a4.947,4.947,0,0,0-.75-3.06,2.891,2.891,0,0,0-2.41-.95,3.321,3.321,0,0,0-3,1.32,9,9,0,0,0-.85,4.59v8.51h-4.06V69.73Z" fill="#fff"/>
      <path id="パス_2247" data-name="パス 2247" d="M212.02,89.29H199.41a5.334,5.334,0,0,0,1.41,3.45,4.309,4.309,0,0,0,3.2,1.26,4.165,4.165,0,0,0,2.51-.72,10.223,10.223,0,0,0,2.22-2.67l3.43,1.91a13.61,13.61,0,0,1-1.68,2.32,8.5,8.5,0,0,1-1.9,1.59,7.3,7.3,0,0,1-2.19.91,10.756,10.756,0,0,1-2.55.29,8.257,8.257,0,0,1-6.32-2.53,9.489,9.489,0,0,1-2.38-6.76,9.686,9.686,0,0,1,2.31-6.75,8.8,8.8,0,0,1,12.32-.07,9.757,9.757,0,0,1,2.24,6.81l-.02.96Zm-4.17-3.32a3.891,3.891,0,0,0-4.1-3.25,4.222,4.222,0,0,0-1.39.23,4,4,0,0,0-1.18.65,4.06,4.06,0,0,0-.91,1.02,4.832,4.832,0,0,0-.58,1.35Z" fill="#fff"/>
      <path id="パス_2248" data-name="パス 2248" d="M216.46,79.53h4.06V81.1a7.891,7.891,0,0,1,1.99-1.61,4.567,4.567,0,0,1,2.09-.45,6.565,6.565,0,0,1,3.36,1.05l-1.86,3.72a3.9,3.9,0,0,0-2.26-.83c-2.22,0-3.32,1.67-3.32,5.02v9.12h-4.06Z" fill="#fff"/>
    </g>
    <circle id="楕円形_92" data-name="楕円形 92" cx="4.15" cy="4.15" r="4.15" transform="translate(69.35 48.51)" fill="#040000"/>
  </g>
</svg>
