<svg xmlns="http://www.w3.org/2000/svg" width="69.816" height="31.064" viewBox="0 0 69.816 31.064">
  <g id="__logo" transform="translate(-137.092 -182.468)">
    <g id="Nayuta_DeepDarkBlue" transform="translate(105.112 157.658)">
      <path id="パス_1975" data-name="パス 1975" d="M172.3,91.744c-1-.68-2-1.748-1.829-4.761,0,0,0-.079,0-.118a5.145,5.145,0,0,0-4.97-3.305s1.8,12.809-8.809,16.221a.061.061,0,0,0-.014.111l1.609.993a.663.663,0,0,0,.513.081c2.21-.536,8.412-1.841,10.829-8.4a5.348,5.348,0,0,0,3.015.966,3.92,3.92,0,0,0,1.325-.1l.3-.077a1.487,1.487,0,0,0,1.054-.991c.042-.13.079-.253.109-.353a.134.134,0,0,0-.16-.169c-.176.044-.46.109-.875.181a4.352,4.352,0,0,1-2.1-.279Z" transform="translate(-95.731 -45.112)" fill="#050c22"/>
      <path id="パス_1976" data-name="パス 1976" d="M31.98,37.542v.7h0v7.054h0v12.89a2.032,2.032,0,0,0,.251.993,8.252,8.252,0,0,0,5.121,4.269v-19.6c4.246,2.04,6.606,6.959,7.681,9.2V49.875c-1.158-5.564-6.4-11.718-13.052-12.335Z" transform="translate(0 -9.775)" fill="#050c22"/>
      <path id="パス_1977" data-name="パス 1977" d="M148.051,47.939a2.537,2.537,0,0,1-1.439-.991c-1.214-1.815-1.042-3.394-1.07-5.448,0-.262,0-.617-.019-1.024v-.028q-.007-.143-.021-.292c0-.046-.007-.093-.012-.142s-.009-.079-.012-.118c-.007-.063-.014-.125-.023-.188,0-.028-.007-.058-.012-.086-.014-.1-.028-.19-.046-.288,0-.019-.007-.035-.009-.053-.016-.086-.033-.174-.053-.262a.476.476,0,0,1-.012-.056c-.049-.211-.107-.422-.176-.631,0-.012-.007-.021-.012-.032a5.137,5.137,0,0,0-.432-.942c0-.007-.007-.014-.012-.021a4.1,4.1,0,0,0-.413-.571,4.019,4.019,0,0,0-2.493-1.325c-.288-.046-.873-.063-.873-.063h-8.756V32.654a2.023,2.023,0,0,0-.295-1.072,9.2,9.2,0,0,0-5.074-3.558v7.354h-29.2V29.388a1.865,1.865,0,0,0-.267-.973,9.162,9.162,0,0,0-5.1-3.6V44.724a2.032,2.032,0,0,0,.251.993,8.252,8.252,0,0,0,5.121,4.269V36.748h5c3.454.211,4.331,2.108,4.227,3.626v.009c-.1,0-1.827-.063-2.526,0-6.017.539-6.258,7.628-1.168,9.006l2.639-2.224c-2.741-2.391-3.094-3.753-2.029-5.046.6-.734,2.925-.5,3.087-.5.258,3.932,1.885,6.952,6.084,7.772l.72-1.451a2.536,2.536,0,0,1-1.439-.991c-1.214-1.815-1.042-3.394-1.07-5.448.007-.987.021-3.261-1.277-4.752h16.945v8.2a2.031,2.031,0,0,0,.251.993,8.252,8.252,0,0,0,5.121,4.269V36.751h4.861c3.454.211,4.331,2.108,4.227,3.626v.009c-.1,0-1.827-.063-2.526,0-6.017.539-6.258,7.628-1.168,9.006l2.639-2.224c-2.741-2.391-3.094-3.753-2.029-5.046.6-.734,2.925-.5,3.087-.5.258,3.932,1.885,6.952,6.084,7.772l.72-1.451h0Z" transform="translate(-46.257)" fill="#050c22"/>
    </g>
  </g>
</svg>
