<svg id="Logo_VANISH" xmlns="http://www.w3.org/2000/svg" width="348.51" height="66.712" viewBox="0 0 348.51 66.712">
  <g id="グループ_395" data-name="グループ 395" transform="translate(0 19.888)">
    <path id="パス_2249" data-name="パス 2249" d="M120.116,61.98h-5.033l-.569,2.679h-2.686l.569-2.679H98.075l-.569,2.679H94.021L91.242,77.67H84.423l3.348-15.69h-52.6L34.6,64.659H31.111L29.39,72.673H41.76l-7.179,33.871h14.43l.569-2.679h3.492l6.61-31.185h8.036l-7.193,33.871H74.818l.569-2.679h3.492l3.312-15.69H89l-3.881,18.376H99.443l.569-2.679H102.7l-.569,2.679h36.96l.569-2.679h3.492l1.714-8.122H122.082l1.512-7.179h16.5l.576-2.679h3.485l1.692-7.877h-20l1.123-5.336h18.282l.576-2.679h3.485l1.721-8.014H120.109Zm-25.5,3.406H98.9l-3.2,14.963H91.415l.569-2.679h0L94.6,65.386ZM79.621,80.348H75.329l3.2-14.963h4.291ZM30.3,71.945l1.4-6.56h4.291l-1.411,6.56H30.29Zm5.192,33.871,7.02-33.144H46.8l-7.02,33.144Zm12.946,0H44.144l7.02-33.144h4.291L51.193,92.805l-2.34,11.053h0l-.41,1.951ZM62.894,71.945H50.581L43.4,105.817h-2.88L47.7,71.945H35.33l1.4-6.56H64.3Zm.742,0,1.411-6.56h4.227l-1.39,6.56H63.643Zm-2.2,33.871,7.035-33.144h.043l1.563-7.287H74.3l-8.583,40.431H61.425Zm8.518,0,3.73-17.648h4.291l-3.73,17.648Zm16.079,0,3.73-17.648H94.05l-3.73,17.648Zm7.8,0H91.055l3.881-18.376H73.075l-3.881,18.376H66.451l8.583-40.431h2.743l-3.348,15.69H96.29l3.348-15.69h2.772Zm.742,0,8.583-40.431h4.291L98.86,105.817H94.569Zm8.461,0,.418-1.951h.065l8.173-38.479h4.227l-8.583,40.431h-4.291Zm31.185,0,1.411-6.675h4.292l-1.411,6.675Zm-16.928-7.4h-4.291l2.081-9.857h4.291l-1.037,4.925-1.037,4.925ZM139.514,87.83h-4.291l1.382-6.423H140.9l-.958,4.471h0l-.418,1.951Zm-18.455-7.15h-4.291l1.692-8.014h4.291Zm18.592-8.741H117.869l-1.995,9.469h19.989l-1.382,6.423h-20l-2.391,11.312h22.782l-1.411,6.675h-25.41l8.583-40.431h24.4l-1.4,6.56Zm.742,0,1.411-6.56H146.1l-1.4,6.56H140.4Z" transform="translate(-29.39 -60.778)" fill="#231815"/>
    <path id="パス_2250" data-name="パス 2250" d="M259.248,61.98H244.437l-1.346,2.679h-2.715L233.3,78.764,232.074,61.98H217.1l.338,2.679H213.05l5.256,41.885H232l1.483-2.679h2.578Zm-18.419,3.406h4.219L230.238,94.922l-.54-7.344,3.715-7.4h0ZM228.963,87.434,225.2,94.922l-2.167-29.536h4.306l1.613,22.048Zm-10.009,18.383-5.076-40.431h4.3l5.076,40.431Zm7.589,0h-2.556l-5.076-40.431h3.406l2.362,32.222,4.392-8.756.641,8.756,16.151-32.222h3.06Zm5.033,0h-4.205l22.379-40.431h4.205Z" transform="translate(-80.806 -60.778)" fill="#231815"/>
    <path id="パス_2251" data-name="パス 2251" d="M438.944,61.512H424.622l-.569,2.679h-3.485L417.789,77.2H410.97l3.348-15.69H400.025l-.569,2.679h-3.492l-.72,3.4a8.845,8.845,0,0,0-2.491-3.737c-2.628-2.347-6.192-3.543-10.6-3.543-.958,0-1.879.043-2.772.122-.727-.072-1.476-.122-2.261-.122-5.249,0-9.562,1.253-12.81,3.73-.374.288-.727.583-1.073.886a16.114,16.114,0,0,0-2.988,1.793,19.087,19.087,0,0,0-2.038,1.807l1.491-7.013H345.381l-.569,2.679h-1.57l.569-2.679H330.022l-.569,2.679h-3.485l-2.16,10.153-4.587-12.831h-14.6l-.569,2.679h-3.492l-5.746,27.067L290.65,61.894l-.043-.31H275.335l-1.483,2.607h-2.571L247.44,106.076H262.3l1.426-2.607h2.628l3.2-5.854h6.956l.864,8.461h28.075l.569-2.679h3.492L311.8,92.619l4.8,13.213.086.238h14.178l.569-2.679H333l-.569,2.679h14.322l.569-2.679h3.492l.338-1.584a9.874,9.874,0,0,0,1.31,1.555c2.607,2.506,6.682,3.773,12.118,3.773.857,0,1.692-.036,2.5-.1.806.065,1.649.1,2.535.1,5.3,0,9.742-1.274,13.2-3.795.461-.338.9-.684,1.318-1.051a17.652,17.652,0,0,0,2.743-1.627,18.037,18.037,0,0,0,1.642-1.354l-1.44,6.768h14.293l.569-2.679h3.492l3.312-15.69h6.812l-3.881,18.376H425.99l.569-2.679h3.492l8.893-41.885Zm-17.792,3.406h4.291l-3.2,14.963h-4.291l.569-2.679h0l2.621-12.284ZM406.167,79.881h-4.291l3.2-14.963h4.291Zm-22.5-13.35a13.274,13.274,0,0,0-5.156-2.8,19.146,19.146,0,0,1,4.205.518.054.054,0,0,1,.029.007c.418.1.821.223,1.217.36.043.014.079.036.122.05.36.13.713.266,1.051.418l.259.13c.288.137.569.274.842.432.158.094.31.194.461.3.187.122.389.238.569.367a12.123,12.123,0,0,1,.958.77c.223.2.432.418.634.634.036.036.072.079.108.115a6.807,6.807,0,0,1,.526.677c.029.036.05.072.079.115a8.234,8.234,0,0,1,.842,1.62c.007.029.022.05.029.079a9.491,9.491,0,0,1,.288.907.133.133,0,0,0,.014.05,10.582,10.582,0,0,1,.3,2.074h0c.014.374.022.756,0,1.145a14.594,14.594,0,0,1-.2,1.951h-4.3c.67-4.277-.288-7.618-2.866-9.915Zm-22.97.77c.238-.18.482-.338.727-.5l-.014.014a16.206,16.206,0,0,1,2.434-1.346h0c.389-.173.785-.324,1.2-.475.072-.029.144-.05.216-.079.324-.115.662-.209.994-.3.166-.05.331-.1.5-.144.238-.058.482-.108.727-.166.281-.058.554-.122.842-.173.13-.022.259-.036.389-.058a27.03,27.03,0,0,1,2.851-.3,17.485,17.485,0,0,0-6.272,2.959,15.747,15.747,0,0,0-6.113,9.4c-.886,4.162-.079,7.28,2.391,9.267,1.454,1.181,4.183,2.239,8.353,3.226l4.162.979a15.271,15.271,0,0,1,5.062,1.865,2.465,2.465,0,0,1,.972,2.787,5.856,5.856,0,0,1-4.363,4.5,15.971,15.971,0,0,1-4.695.648c.31-.108.6-.223.878-.353l.13-.065c.23-.108.446-.223.655-.346.065-.036.122-.072.18-.108.187-.115.36-.245.533-.374l.173-.13a7.119,7.119,0,0,0,.54-.5c.115-.115.216-.238.317-.36.05-.065.108-.13.158-.194.108-.144.209-.288.3-.439.029-.05.058-.094.086-.144a6.474,6.474,0,0,0,.778-1.995,3.166,3.166,0,0,0-1.26-3.528,15.445,15.445,0,0,0-5.321-1.98l-4.162-.979c-4-.95-6.718-1.987-8.065-3.082a6.135,6.135,0,0,1-1.757-2.232,7.17,7.17,0,0,1-.6-2.031.2.2,0,0,0-.007-.065c-.029-.223-.058-.454-.072-.684v-.072a10.408,10.408,0,0,1,.029-1.562,2.052,2.052,0,0,1,.022-.209c.022-.2.043-.41.072-.619.014-.079.022-.151.036-.23.043-.281.094-.562.158-.85.086-.389.187-.77.3-1.152.036-.108.065-.216.1-.324.1-.317.216-.634.338-.943.058-.144.122-.3.187-.439.094-.223.2-.439.3-.655.086-.173.18-.353.274-.526.072-.13.151-.259.23-.389.209-.346.432-.691.67-1.022.05-.072.1-.144.158-.223.158-.216.324-.425.5-.634h0a16.692,16.692,0,0,1,2.787-2.671ZM358.81,93.367h4.3a7.172,7.172,0,0,0,.72,4.039,4.061,4.061,0,0,0,.418.562c.043.05.086.094.13.137a4.063,4.063,0,0,0,.4.382l.137.115a5.476,5.476,0,0,0,.562.382.253.253,0,0,0,.058.036,5.663,5.663,0,0,0,.756.367c-.18,0-.353.007-.54.007-3.24,0-5.372-.8-6.336-2.362a6.681,6.681,0,0,1-.6-3.665Zm-3.816-9.677a7.282,7.282,0,0,0,1.534,1.7c1.454,1.181,4.183,2.239,8.353,3.226l4.162.979a15.271,15.271,0,0,1,5.062,1.865,2.465,2.465,0,0,1,.972,2.787,5.536,5.536,0,0,1-.806,1.973,12.783,12.783,0,0,1-1.735.338,5.413,5.413,0,0,1-4.039-2.2,7.079,7.079,0,0,1-.59-4l.029-.389H354.007l-.065.288a16.311,16.311,0,0,0-.338,2.391h-.526l1.9-8.95ZM326.559,64.918h4.291L325.1,91.956l-2.686-7.517,1.872-8.792h0l2.283-10.729Zm-4.911,19.571-1.591,7.467-9.67-27.038h4.263l7,19.571Zm-72.97,20.86,23.013-40.431h4.2l-23.013,40.431Zm13.184,0h-4.205l4.234-7.733H266.1Zm16.172,0-.792-7.733h4.306l.792,7.733Zm5.033,0-.864-8.461H261.467l-4.637,8.461h-3.118l23.013-40.431h4.155l5.732,40.431Zm4.277,0-5.732-40.431h4.3l5.732,40.431Zm4.81-1.584-.043-.3h.108l1.469-6.92-1.534,7.215Zm.4,1.584,8.583-40.431h4.291l-8.583,40.431Zm8.014,0,5.84-27.549,2.707,7.46-4.263,20.089h-4.291Zm16.612,0-5.105-14.07h0L310.927,88.1l-1.051-2.895,1.57-7.409,10,27.549Zm8.05,0h-3.017L311.258,75.165,309.4,83.92l-3.175-8.756-6.4,30.184h-2.239l8.583-40.431H309.6l10.621,29.695,1.879-8.821,3.154,8.821,6.322-29.695h2.239l-8.583,40.431Zm5.033,0h-4.291l8.583-40.431h4.291L330.678,103.4h0l-.418,1.951Zm3.053,0,.418-1.951h0l8.173-38.479H346.2l-8.583,40.431h-4.291Zm7.8,0h-2.765l8.583-40.431H349.7Zm.742,0,8.583-40.431h4.291l-8.583,40.431Zm11.089-2.513a8.565,8.565,0,0,1-1.591-2.074,8.734,8.734,0,0,1-.677-1.6h0c-.086-.274-.151-.554-.216-.835a.054.054,0,0,0-.007-.036c-.058-.288-.108-.583-.137-.878v-.036c-.029-.274-.043-.547-.058-.835v-.151c0-.3,0-.6.014-.907V95.42c.014-.281.043-.569.079-.857.007-.079.022-.158.029-.238.043-.317.094-.634.158-.958h4.3c-.785,4.183.1,7.546,2.643,9.994a12.755,12.755,0,0,0,5.652,3.01c-4.522-.2-7.942-1.39-10.181-3.535ZM367,106.3c-3.953-.346-6.977-1.5-9.022-3.463-2.383-2.29-3.2-5.472-2.412-9.469h2.5a7.172,7.172,0,0,0,.72,4.039c1.109,1.8,3.449,2.715,6.956,2.715a22.844,22.844,0,0,0,2.729-.158,16.239,16.239,0,0,0,2.3.158,16.8,16.8,0,0,0,5.2-.691,6.613,6.613,0,0,0,4.846-5.04,3.166,3.166,0,0,0-1.26-3.528,15.445,15.445,0,0,0-5.321-1.98l-4.162-.979c-4-.95-6.718-1.987-8.065-3.082-2.239-1.8-2.952-4.673-2.131-8.547a15,15,0,0,1,5.84-8.972,18.576,18.576,0,0,1,9.663-3.449,13.584,13.584,0,0,1,7.791,3.219c2.4,2.146,3.276,5.3,2.614,9.375h-2.513c.274-2.412-.511-4.169-2.326-5.228A9.889,9.889,0,0,0,376,70.139a14.107,14.107,0,0,0-2.527.223,13.4,13.4,0,0,0-2.506-.223,11.289,11.289,0,0,0-5.782,1.39A5.918,5.918,0,0,0,362.23,75.5a3.173,3.173,0,0,0,1.411,3.672,19.345,19.345,0,0,0,5.112,1.75l6.725,1.7a14.257,14.257,0,0,1,6.236,2.9c1.937,1.836,2.542,4.551,1.793,8.065a15.04,15.04,0,0,1-6.171,9.152A20.045,20.045,0,0,1,367,106.292Zm8.914-35.074c-.216-.122-.446-.23-.684-.338.252-.014.5-.022.763-.022a9.2,9.2,0,0,1,4.594.986c1.584.922,2.218,2.434,1.951,4.6h-4.291c.274-2.412-.511-4.169-2.326-5.228Zm-4.731,35.138a18.852,18.852,0,0,0,6.574-3.024,15.745,15.745,0,0,0,6.452-9.584c.806-3.78.13-6.725-2-8.741a14.937,14.937,0,0,0-6.552-3.075l-6.725-1.707h0a19.6,19.6,0,0,1-4.9-1.656,2.479,2.479,0,0,1-1.094-2.909,5.148,5.148,0,0,1,2.607-3.507,10.557,10.557,0,0,1,5.415-1.289c.209,0,.418,0,.619.014-.094.036-.18.079-.274.115-.137.058-.274.108-.41.173a6.838,6.838,0,0,0-.684.36,5.918,5.918,0,0,0-2.952,3.975,3.173,3.173,0,0,0,1.411,3.672,19.345,19.345,0,0,0,5.112,1.75l6.725,1.7a14.257,14.257,0,0,1,6.236,2.9c1.937,1.836,2.542,4.551,1.793,8.065a15.04,15.04,0,0,1-6.171,9.152c-.223.158-.454.31-.684.461-.065.043-.137.086-.2.13h.022a20.96,20.96,0,0,1-10.311,3.031ZM391.3,82.336a14.937,14.937,0,0,0-6.552-3.075l-6.725-1.707h0a19.6,19.6,0,0,1-4.9-1.656,2.479,2.479,0,0,1-1.094-2.909,4.919,4.919,0,0,1,.706-1.707c.238-.065.49-.122.742-.173a6.944,6.944,0,0,1,2.081.749c1.656.965,2.29,2.571,1.915,4.9l-.065.418h14.027l.05-.3a16.763,16.763,0,0,0,.266-2.383h2.016l-1.815,8.54a7.526,7.526,0,0,0-.655-.706Zm-3.341,23.02,7.33-34.519.353-1.656h0l.9-4.248h4.291l-8.583,40.431h-4.291Zm8.518,0,3.73-17.648H404.5l-3.73,17.648Zm16.086,0,3.73-17.648h4.291l-3.73,17.648Zm7.805,0h-2.772l3.881-18.376H399.615l-3.881,18.376H392.99l8.583-40.431h2.736l-3.348,15.69h21.861l3.348-15.69h2.772l-8.583,40.431Zm.742,0,8.583-40.431h4.291L425.4,105.356Z" transform="translate(-90.434 -60.31)" fill="#231815"/>
    <path id="パス_2252" data-name="パス 2252" d="M282.095,85.405l-.821-7.805L271.69,95.364h16.489L286.314,77.6,282.1,85.405Zm-4.983,9.231h-4.205L280.8,80.012l.684,6.524Zm5.955,0-.835-7.949,3.6-6.675,1.541,14.624h-4.3Z" transform="translate(-97.222 -65.15)" fill="#231815"/>
  </g>
  <g id="グループ_396" data-name="グループ 396" transform="translate(0.756)">
    <path id="パス_2253" data-name="パス 2253" d="M30.44,33.18h9.893v1.094H36.028v12.5H34.746v-12.5H30.44Z" transform="translate(-30.44 -32.827)" fill="#231815"/>
    <path id="パス_2254" data-name="パス 2254" d="M54.277,43.532a5.427,5.427,0,0,0,.209,1.5,3.724,3.724,0,0,0,.612,1.231,2.912,2.912,0,0,0,1.03.828,3.437,3.437,0,0,0,3.341-.274,2.845,2.845,0,0,0,1.058-1.663h1.267a6.149,6.149,0,0,1-.547,1.3,3.944,3.944,0,0,1-.85,1.037,3.69,3.69,0,0,1-1.21.691,4.866,4.866,0,0,1-1.627.245,4.741,4.741,0,0,1-2.023-.4,3.818,3.818,0,0,1-1.4-1.087,4.611,4.611,0,0,1-.814-1.627,7.244,7.244,0,0,1-.266-2.009,6.434,6.434,0,0,1,.31-2.023,5.3,5.3,0,0,1,.886-1.656,4.091,4.091,0,0,1,1.4-1.116,4.2,4.2,0,0,1,1.887-.4,3.9,3.9,0,0,1,3.175,1.39,6.079,6.079,0,0,1,1.13,4.032H54.262Zm6.387-.943a4.4,4.4,0,0,0-.2-1.354,3.071,3.071,0,0,0-.583-1.094,2.759,2.759,0,0,0-.972-.734,3.155,3.155,0,0,0-1.339-.274,2.914,2.914,0,0,0-2.311,1.037,3.781,3.781,0,0,0-.655,1.094,5.028,5.028,0,0,0-.324,1.325h6.387Z" transform="translate(-36.773 -34.207)" fill="#231815"/>
    <path id="パス_2255" data-name="パス 2255" d="M76.79,48.162H75.66V38.376h1.13v1.361a7.408,7.408,0,0,1,1.4-1.174,3.229,3.229,0,0,1,1.75-.454,4.4,4.4,0,0,1,1.678.31,2.855,2.855,0,0,1,1.3,1.087,2.437,2.437,0,0,1,.425,1.087,10.05,10.05,0,0,1,.065,1.159v6.4h-1.13V41.768a2.916,2.916,0,0,0-.583-1.98,2.486,2.486,0,0,0-1.944-.662,2.74,2.74,0,0,0-.965.158,3.293,3.293,0,0,0-.785.425,2.971,2.971,0,0,0-.6.6,2.643,2.643,0,0,0-.374.72,3.725,3.725,0,0,0-.209.907c-.029.288-.036.6-.036.943v5.271Z" transform="translate(-43.099 -34.207)" fill="#231815"/>
    <path id="パス_2256" data-name="パス 2256" d="M100.591,47.243c-.137.022-.324.072-.547.13a2.717,2.717,0,0,1-.756.094,1.813,1.813,0,0,1-1.3-.425,2.069,2.069,0,0,1-.446-1.519V38.365H96.17v-.943h1.375V34.7h1.13v2.722H100.5v.943H98.676v6.7a5.535,5.535,0,0,0,.022.626,1,1,0,0,0,.115.432.529.529,0,0,0,.3.245,1.614,1.614,0,0,0,.554.072,3.4,3.4,0,0,0,.461-.036c.158-.022.31-.058.461-.094v.929Z" transform="translate(-48.841 -33.253)" fill="#231815"/>
    <path id="パス_2257" data-name="パス 2257" d="M127.183,42.583a4.132,4.132,0,0,0,.4,1.541,3.077,3.077,0,0,0,.85,1.03,3.389,3.389,0,0,0,1.2.576,5.552,5.552,0,0,0,1.454.18,4.884,4.884,0,0,0,1.57-.223,2.916,2.916,0,0,0,1.073-.612,2.387,2.387,0,0,0,.612-.9,3,3,0,0,0,.2-1.08,2.128,2.128,0,0,0-.36-1.282,2.675,2.675,0,0,0-.936-.8,5.836,5.836,0,0,0-1.325-.5c-.5-.122-1.008-.252-1.526-.367s-1.03-.259-1.527-.425a4.858,4.858,0,0,1-1.325-.662,3.192,3.192,0,0,1-.936-1.066,3.408,3.408,0,0,1-.36-1.649,3.333,3.333,0,0,1,.3-1.361,3.4,3.4,0,0,1,.871-1.174,4.245,4.245,0,0,1,1.447-.814,6.063,6.063,0,0,1,2-.3,5.707,5.707,0,0,1,2.009.324,3.924,3.924,0,0,1,1.426.878,3.621,3.621,0,0,1,.85,1.3,4.367,4.367,0,0,1,.281,1.57h-1.224a3.064,3.064,0,0,0-.274-1.339,2.561,2.561,0,0,0-.749-.929,3.144,3.144,0,0,0-1.08-.526,4.525,4.525,0,0,0-1.246-.173,4.41,4.41,0,0,0-1.649.274,2.9,2.9,0,0,0-1.066.706,2.362,2.362,0,0,0-.547.965,2.3,2.3,0,0,0-.058,1.058,1.854,1.854,0,0,0,.526,1.058,3.329,3.329,0,0,0,1.022.655,7.6,7.6,0,0,0,1.332.418c.482.108.979.223,1.483.338a14.994,14.994,0,0,1,1.462.425,4.327,4.327,0,0,1,1.253.662,3.04,3.04,0,0,1,.878,1.066,4.026,4.026,0,0,1-.972,4.565,5.752,5.752,0,0,1-3.665,1.037,6.862,6.862,0,0,1-1.966-.274,4.366,4.366,0,0,1-1.57-.828,3.844,3.844,0,0,1-1.03-1.375,4.719,4.719,0,0,1-.367-1.937h1.246Z" transform="translate(-57.173 -32.69)" fill="#231815"/>
    <path id="パス_2258" data-name="パス 2258" d="M154.314,42.456c.216-.022.468-.065.763-.115a2.949,2.949,0,0,0,.727-.209.623.623,0,0,0,.353-.446,2.823,2.823,0,0,0,.065-.576,1.955,1.955,0,0,0-.554-1.426,2.6,2.6,0,0,0-1.879-.554,5.619,5.619,0,0,0-1.08.1,2.351,2.351,0,0,0-.857.36,2.038,2.038,0,0,0-.6.677,2.865,2.865,0,0,0-.31,1.066h-1.152a3.546,3.546,0,0,1,.4-1.483,2.956,2.956,0,0,1,.878-1,3.722,3.722,0,0,1,1.246-.569,5.969,5.969,0,0,1,1.5-.18,5.789,5.789,0,0,1,1.39.158,3.127,3.127,0,0,1,1.13.511,2.32,2.32,0,0,1,.756.936,3.413,3.413,0,0,1,.274,1.433v5.328q0,.659.238.842t.95-.086v.886c-.086.029-.216.065-.389.115a1.776,1.776,0,0,1-.5.072,2.366,2.366,0,0,1-.511-.058.927.927,0,0,1-.454-.18,1.133,1.133,0,0,1-.274-.338,1.389,1.389,0,0,1-.144-.432,2.816,2.816,0,0,1-.036-.5,5.033,5.033,0,0,1-1.642,1.21,4.885,4.885,0,0,1-2,.418,4.436,4.436,0,0,1-1.238-.173,3.07,3.07,0,0,1-1.051-.526,2.555,2.555,0,0,1-.986-2.117q0-2.495,3.42-2.945l1.57-.209Zm1.908.569a5.6,5.6,0,0,1-1.455.4c-.49.065-.979.115-1.476.151a4.194,4.194,0,0,0-2.031.583,1.682,1.682,0,0,0-.727,1.49,1.578,1.578,0,0,0,.655,1.332,2.106,2.106,0,0,0,.677.324,2.9,2.9,0,0,0,.785.1,5.106,5.106,0,0,0,1.325-.173,3.693,3.693,0,0,0,1.145-.518,2.524,2.524,0,0,0,1.1-2.16V43.025Z" transform="translate(-63.718 -34.205)" fill="#231815"/>
    <path id="パス_2259" data-name="パス 2259" d="M178.524,38.48h1.13v9.785h-1.13V46.9c-.151.18-.324.36-.511.547a3.714,3.714,0,0,1-.655.518,3.769,3.769,0,0,1-.857.4,3.6,3.6,0,0,1-1.13.158,4.344,4.344,0,0,1-1.642-.274,2.669,2.669,0,0,1-1.066-.763,2.88,2.88,0,0,1-.583-1.145,5.222,5.222,0,0,1-.18-1.426V38.48h1.13V44.9a2.869,2.869,0,0,0,.583,1.937,2.437,2.437,0,0,0,1.93.67,2.811,2.811,0,0,0,1.253-.274,2.609,2.609,0,0,0,.936-.763,3.585,3.585,0,0,0,.583-1.174,5.142,5.142,0,0,0,.209-1.49V38.48Z" transform="translate(-70.042 -34.311)" fill="#231815"/>
    <path id="パス_2260" data-name="パス 2260" d="M194.9,48.162h-1.13V38.376h1.13v1.361a7.408,7.408,0,0,1,1.4-1.174,3.229,3.229,0,0,1,1.75-.454,4.4,4.4,0,0,1,1.678.31,2.855,2.855,0,0,1,1.3,1.087,2.437,2.437,0,0,1,.425,1.087,10.047,10.047,0,0,1,.065,1.159v6.4h-1.13V41.768a2.916,2.916,0,0,0-.583-1.98,2.486,2.486,0,0,0-1.944-.662,2.74,2.74,0,0,0-.965.158,3.293,3.293,0,0,0-.785.425,2.972,2.972,0,0,0-.6.6,2.644,2.644,0,0,0-.374.72,3.726,3.726,0,0,0-.209.907c-.029.288-.036.6-.036.943v5.271Z" transform="translate(-76.165 -34.207)" fill="#231815"/>
    <path id="パス_2261" data-name="パス 2261" d="M219.934,42.456c.216-.022.468-.065.763-.115a2.949,2.949,0,0,0,.727-.209.623.623,0,0,0,.353-.446,2.822,2.822,0,0,0,.065-.576,1.955,1.955,0,0,0-.554-1.426,2.6,2.6,0,0,0-1.879-.554,5.62,5.62,0,0,0-1.08.1,2.351,2.351,0,0,0-.857.36,2.038,2.038,0,0,0-.6.677,2.865,2.865,0,0,0-.31,1.066h-1.152a3.546,3.546,0,0,1,.4-1.483,2.956,2.956,0,0,1,.878-1,3.722,3.722,0,0,1,1.246-.569,5.969,5.969,0,0,1,1.5-.18,5.789,5.789,0,0,1,1.39.158,3.127,3.127,0,0,1,1.13.511,2.32,2.32,0,0,1,.756.936,3.413,3.413,0,0,1,.274,1.433v5.328q0,.659.238.842t.95-.086v.886c-.086.029-.216.065-.389.115a1.776,1.776,0,0,1-.5.072,2.366,2.366,0,0,1-.511-.058.927.927,0,0,1-.454-.18,1.133,1.133,0,0,1-.274-.338,1.388,1.388,0,0,1-.144-.432,2.816,2.816,0,0,1-.036-.5,5.033,5.033,0,0,1-1.642,1.21,4.885,4.885,0,0,1-2,.418,4.436,4.436,0,0,1-1.238-.173,3.07,3.07,0,0,1-1.051-.526,2.555,2.555,0,0,1-.986-2.117q0-2.495,3.42-2.945l1.57-.209Zm1.908.569a5.6,5.6,0,0,1-1.454.4c-.49.065-.979.115-1.476.151a4.194,4.194,0,0,0-2.031.583,1.682,1.682,0,0,0-.727,1.49,1.578,1.578,0,0,0,.655,1.332,2.106,2.106,0,0,0,.677.324,2.9,2.9,0,0,0,.785.1,5.106,5.106,0,0,0,1.325-.173,3.693,3.693,0,0,0,1.145-.518,2.523,2.523,0,0,0,1.1-2.16V43.025Z" transform="translate(-82.088 -34.205)" fill="#231815"/>
  </g>
</svg>
