<svg xmlns="http://www.w3.org/2000/svg" width="30.029" height="23.519" viewBox="0 0 30.029 23.519">
  <g id="Twitter" transform="translate(1.078 0.388)">
    <path id="パス_187" data-name="パス 187" d="M9.6,25.756A16.375,16.375,0,0,0,26.072,9.281v-.75a12.025,12.025,0,0,0,2.9-3,11.925,11.925,0,0,1-3.337.912,5.862,5.862,0,0,0,2.5-3.212A11.85,11.85,0,0,1,24.46,4.644a5.8,5.8,0,0,0-9.837,5.262A16.462,16.462,0,0,1,2.672,3.844a5.8,5.8,0,0,0,1.8,7.737,5.75,5.75,0,0,1-2.637-.725v.075A5.812,5.812,0,0,0,6.5,16.619a6,6,0,0,1-2.625.1,5.812,5.812,0,0,0,5.412,4.025,11.65,11.65,0,0,1-7.2,2.5A10,10,0,0,1,.71,23.156a16.35,16.35,0,0,0,8.887,2.6" transform="translate(-0.711 -2.875)" fill="#202222" stroke="#202222" stroke-miterlimit="10" stroke-width="0.5"/>
  </g>
</svg>
