<svg xmlns="http://www.w3.org/2000/svg" width="245.421" height="41.576" viewBox="0 0 245.421 41.576">
  <g id="boutique_present" data-name="boutique present" transform="translate(-13.219 -14.201)">
    <g id="グループ_387" data-name="グループ 387" transform="translate(13.219 14.201)">
      <path id="パス_2205" data-name="パス 2205" d="M127.755,36.758c-3.876,3.225-8.105,2.475-9.253-.472a21.58,21.58,0,0,1-2.221,1.849c-2.122,1.342-4.244.229-4.433-2.266-.01-.114-.02-.229-.04-.5-2.281,2.182-4.716,3.782-8.071,3.5-.169,1.168-.318,2.4-.527,3.628a30.92,30.92,0,0,1-3.519,10.908,3.854,3.854,0,0,1-2.162,1.819c-1.585.5-2.624-.482-2.659-2.077a4.79,4.79,0,0,1,.462-2.018c1.312-2.912,2.7-5.795,4.035-8.7.74-1.61,1.431-3.25,2.082-4.741a11.049,11.049,0,0,1-2.689-.02c-1.064-.258-1.034-1.377-1.277-2.351-.214.189-.4.348-.581.517a15.043,15.043,0,0,1-5.71,3.28,4.041,4.041,0,0,1-5.332-3.891v-.989c-.318.422-.522.7-.731.969a8.2,8.2,0,0,1-5.084,3.419c-2.872.532-5.924-1.088-6.068-4.617,0-.114-.03-.229-.07-.547-.239.373-.388.6-.527.83a9.816,9.816,0,0,1-3.1,3.469,6.649,6.649,0,0,1-5.834.949c-.954-.313-1.511-.9-2.082-2.361a17.73,17.73,0,0,1-1.377,1.555,3.43,3.43,0,0,1-5.014-.288,2.594,2.594,0,0,1-.562-2.495c.219-.81.5-1.605.77-2.47a3.153,3.153,0,0,0-.412.1,17.889,17.889,0,0,1-5.591,1.332.94.94,0,0,0-.6.388c-.437.661-.8,1.372-1.228,2.038a5.152,5.152,0,0,1-5,2.276,3.726,3.726,0,0,1-3.141-4.239,20.908,20.908,0,0,1,.611-2.559c-2.694.616-5.457.954-8.235-.229a8.858,8.858,0,0,1-2.112,4.383A6.81,6.81,0,0,1,26.23,38.79a5.236,5.236,0,0,1-1.575-.055c-1.307-.253-1.918-1.506-1.491-3.017a18.565,18.565,0,0,1,.621-1.764c.224-.572.482-1.133.81-1.893-1.5,1.252-2.838,2.371-4.17,3.494-1.551,1.3-3.091,2.614-4.652,3.9a6.42,6.42,0,0,1-1.213.77.854.854,0,0,1-1.2-.308.881.881,0,0,1,.283-1.213q6.493-5.524,12.981-11.057a4.72,4.72,0,0,0,1-1.213c1.675-2.922,3.27-5.889,4.99-8.786a20.522,20.522,0,0,1,2.39-3.036,1.269,1.269,0,0,1,1.724-.144,1.517,1.517,0,0,1,.74,1.665,15.073,15.073,0,0,1-3.712,7.072c-1.357,1.59-2.907,3.017-4.368,4.517a3.627,3.627,0,0,0-.721.8Q26.918,32,25.236,35.505a6.376,6.376,0,0,0-.323,1.282c.055.075.109.154.169.229a7.024,7.024,0,0,0,1.893-.432,7.085,7.085,0,0,0,3.752-5.268,1.253,1.253,0,0,0-.273-.721,11.123,11.123,0,0,1-.716-.974,1.513,1.513,0,0,1,.591-2.062,1.706,1.706,0,0,1,2.187.726.971.971,0,0,1,.139.333c.124,1.391,1.168,1.66,2.266,1.869a12.33,12.33,0,0,0,5.705-.447c1.108-.308,2.192-.711,3.29-1.068.547-.179,1.088-.214,1.377.388s-.124.934-.522,1.342a15.768,15.768,0,0,0-2.266,2.659,2.379,2.379,0,0,0,.3,3.111,2.712,2.712,0,0,0,3.325-.363,10.677,10.677,0,0,0,1.431-2.366c.055-.1-.139-.4-.278-.542a3.089,3.089,0,0,1-.388-3.847,2.092,2.092,0,0,1,2.405-.87,2.165,2.165,0,0,1,1.4,2.077c0,.5-.084.989-.144,1.67A29.419,29.419,0,0,0,53.98,31.4a33.064,33.064,0,0,0,3.583-1.685c.507-.258.964-.452,1.441-.015s.328.939.1,1.451c-.552,1.252-1.123,2.495-1.605,3.772-.328.875-.129,1.441.427,1.794a1.391,1.391,0,0,0,1.9-.308c1.019-1.237,1.928-2.569,2.838-3.891.408-.591.671-1.282,1.078-1.879a1.634,1.634,0,0,1,.875-.661,1.208,1.208,0,0,1,1.024.244,1.273,1.273,0,0,1,.07,1.044c-.318.9-.775,1.759-1.083,2.664a6.646,6.646,0,0,0-.278,1.774c-.04.775.3,1.133,1.073,1.282a5,5,0,0,0,4.786-1.59,19.442,19.442,0,0,0,3.623-5.864.934.934,0,0,0,0-.268c-.82.08-1.63.164-2.435.229-.581.045-1.093-.084-1.163-.775s.383-.934.969-1.019c.954-.134,1.9-.293,2.863-.368a.8.8,0,0,0,.865-.651c.214-.736.532-1.441.79-2.162.164-.467.5-.815.959-.651a1.458,1.458,0,0,1,.79.855,2.452,2.452,0,0,1-.179,1.178,10.32,10.32,0,0,1-.432,1.073c.447,0,.815.01,1.178,0,.576-.02,1.153-.084,1.729-.075s1.064.194,1.093.89c.025.581-.383.934-1.093.984-.984.065-1.968.154-2.957.2-.442.02-.666.2-.686.641-.06,1.556-.229,3.121-.154,4.671.1,1.943,1.938,2.763,3.7,2.485a6.053,6.053,0,0,0,3.827-2.515,27.082,27.082,0,0,0,3.523-6.108,5.108,5.108,0,0,1,.477-.89c.3-.437.765-.736,1.223-.437a1.26,1.26,0,0,1,.467,1.054c-.229,1.123-.691,2.207-.89,3.335a21.738,21.738,0,0,0-.452,4.343A2.01,2.01,0,0,0,90.622,37.3a12.893,12.893,0,0,0,5.9-3.732,44.834,44.834,0,0,1,3.514-3.429,10.809,10.809,0,0,1,2.4-1.421,2.136,2.136,0,0,1,2.549.283,2.367,2.367,0,0,1,.6,2.708c-.3.914-.646,1.814-.929,2.728a14.111,14.111,0,0,0-.417,1.814.774.774,0,0,0,.969.765,7.189,7.189,0,0,0,3.712-1.64c1.526-1.526,2.952-3.151,4.418-4.741.164-.174.288-.388.442-.572a1.109,1.109,0,0,1,1.536-.288,1.027,1.027,0,0,1,.3,1.461q-.805,1.692-1.6,3.389a1.334,1.334,0,0,0-.184.616c.06.477.05,1.093.343,1.367.2.189.934.03,1.287-.194a4.263,4.263,0,0,0,1.362-1.352c.81-1.411,1.5-2.887,2.246-4.339a3.086,3.086,0,0,1,.482-.79,1.1,1.1,0,0,1,1.441-.258c.5.323.408.82.258,1.3-.268.87-.552,1.739-.82,2.609-.785,2.549.87,3.866,3.355,3.21a8.673,8.673,0,0,0,3.484-2.112.845.845,0,0,0,.219-.5,7.612,7.612,0,0,1,3.255-5.238,2.124,2.124,0,0,1,1.133-.373c1.292-.04,1.893.84,1.3,1.983a22.89,22.89,0,0,1-1.849,2.833,16.081,16.081,0,0,1-1.367,1.491c-.273.288-.686.522-.4,1.024s.606,1.054,1.232.939a9.666,9.666,0,0,0,2.937-.835,44.276,44.276,0,0,0,3.906-2.718c.159-.109.3-.248.462-.348a.92.92,0,0,1,1.3.1.9.9,0,0,1-.159,1.347,19.793,19.793,0,0,1-6.058,3.966,6.691,6.691,0,0,1-1.4.353c-1.9.283-2.629-.075-4.015-1.943ZM103.9,30.292c-.591.224-.979.338-1.342.512A5.372,5.372,0,0,0,99.5,34.666a3.916,3.916,0,0,0,.114,1.183,4.568,4.568,0,0,0,1.213-.244,5.774,5.774,0,0,0,2.708-3.32A11.516,11.516,0,0,0,103.9,30.3Zm-2.723,13.1c-.08-.02-.154-.04-.234-.065q-1.968,4.279-3.931,8.568a2.947,2.947,0,0,0-.224.9.705.705,0,0,0,.149.5c.045.055.348-.015.437-.114a8.829,8.829,0,0,0,1.054-1.352,31.626,31.626,0,0,0,2.753-8.438ZM33.083,20.766l.179.1c.616-1.078,1.232-2.152,1.849-3.23l-.169-.094q-.932,1.61-1.859,3.22ZM48.365,31.644l.3.015.119-1.282-.358-.02c-.02.427-.04.86-.06,1.287Z" transform="translate(-13.219 -14.201)" fill="#4f959e"/>
      <path id="パス_2206" data-name="パス 2206" d="M285.861,40.334c.76-.989,1.5-2,2.291-2.962a3.906,3.906,0,0,1,2.833-1.546,2.418,2.418,0,0,1,2.738,2.48,6.168,6.168,0,0,1-2.052,4.756c-.5.5-1.054.954-1.7,1.536a14.535,14.535,0,0,0,7.579-2.4,27.154,27.154,0,0,0,6.108-5.889c.258-.313.447-.711.984-.517a1.157,1.157,0,0,1,.775,1.1,2.424,2.424,0,0,0,.427,1.138,2.472,2.472,0,0,1,.239,2.46,15.337,15.337,0,0,0-.636,2.639c-.134,1.108.393,1.68,1.521,1.67a5.652,5.652,0,0,0,2.177-.388c1.426-.616,2.8-1.362,4.165-2.112a1.27,1.27,0,0,0,.517-.85,6.229,6.229,0,0,1,4.423-5.2,1.42,1.42,0,0,1,1.978,1.68,3.346,3.346,0,0,1-.77,1.511c-1,1.039-2.1,1.978-3.146,2.977-.234.224-.616.646-.547.775.229.437.572,1,.984,1.123a5.132,5.132,0,0,0,2.2.084,14.156,14.156,0,0,0,5.327-2.47c3.265-2.132,6.505-4.3,9.785-6.411a1.6,1.6,0,0,1,1.317-.139c.805.373.79,1.257-.04,1.759a1.237,1.237,0,0,0-.646,1.173c-.04,1.228-.03,2.455-.065,3.683-.03,1-.094,2-.144,3.051A13.617,13.617,0,0,0,339.275,44a37.363,37.363,0,0,0,3.851-1.958,2.394,2.394,0,0,0,.934-1.178,6.69,6.69,0,0,1,4.592-4.517c.939-.263,1.486-.139,1.953.467a1.566,1.566,0,0,1-.189,1.938,9.706,9.706,0,0,1-1.342,1.406c-.815.716-1.665,1.391-2.515,2.062a1.25,1.25,0,0,0,.164,2.137,2.533,2.533,0,0,0,2.226.134c2.226-.914,3.946-2.559,5.829-3.966a29.99,29.99,0,0,1,3.842-2.535c1.322-.706,2.306-.239,2.9,1.113.055.124.129.244.159.3a21.35,21.35,0,0,1,2.266-2.008c1.436-.964,3.9-.6,3.951,1.7a24.222,24.222,0,0,1-.209,3.5c-.194,1.551.273,2.127,1.829,2.241A6.034,6.034,0,0,0,373.8,43.46a19.8,19.8,0,0,0,5.173-6.709h-2.584c-.239,0-.482.025-.721.025-.895.01-1.312-.229-1.317-.775,0-.785.626-.939,1.193-.994,1.173-.109,2.356-.154,3.533-.164a.912.912,0,0,0,.924-.616,19.81,19.81,0,0,1,1.123-2.072.8.8,0,0,1,1.178-.338.941.941,0,0,1,.368,1.252c-.214.5-.4,1.014-.631,1.6,1.019,0,1.948-.01,2.877,0,.83.01,1.213.3,1.228.9s-.4.959-1.183.984c-1.034.035-2.072.04-3.111.025a.74.74,0,0,0-.805.512,11.779,11.779,0,0,0-.83,6.013,2.068,2.068,0,0,0,2.947,1.9,27.451,27.451,0,0,0,3.906-2.1c.373-.214.681-.606,1.073-.711a1.423,1.423,0,0,1,1.143.214.791.791,0,0,1-.1,1.218c-1.729,1.476-3.538,2.9-5.844,3.275a6.45,6.45,0,0,1-2.942-.368c-1.456-.487-1.9-1.8-2.077-3.2-.06-.477-.05-.959-.08-1.59l-.432.542a11.372,11.372,0,0,1-5.218,4.05,7.647,7.647,0,0,1-4.542.3,3.28,3.28,0,0,1-2.4-3.847c.094-.984.253-1.958.333-2.942a1.066,1.066,0,0,0-.253-.835c-.174-.109-.621.03-.835.2a6.916,6.916,0,0,0-1.615,1.516c-.954,1.5-1.774,3.081-2.649,4.622a3.352,3.352,0,0,1-.651,1.014c-.243.2-.785.343-.984.2a1.491,1.491,0,0,1-.457-1.019c-.025-.3.219-.621.323-.939.378-1.113.755-2.221,1.108-3.34a1.378,1.378,0,0,0,.035-.636c-.139-.86-.581-1.078-1.287-.576-1.451,1.029-2.853,2.132-4.3,3.161-1.392.989-2.773,2-4.239,2.867-2.221,1.317-4.84.288-6.073-2.291-1.158.572-2.3,1.168-3.474,1.715a18.211,18.211,0,0,1-11.708,1.078,2.691,2.691,0,0,1-.979-.422,1.408,1.408,0,0,1-.338-1.978,1.249,1.249,0,0,1,1.908.1,1.907,1.907,0,0,0,1.794.666c1.019-.124,1.382-.427,1.411-1.461.045-1.565.01-3.126.01-4.845-.716.462-1.352.87-1.983,1.282-2.172,1.426-4.314,2.9-6.52,4.269a11.636,11.636,0,0,1-5.149,2.122,8.152,8.152,0,0,1-3.166-.283c-.765-.263-1.342-1.068-2-1.635l.089-.2a9.889,9.889,0,0,1-.924.512,50.1,50.1,0,0,1-4.955,2.092,3.683,3.683,0,0,1-4.6-4.145,21.33,21.33,0,0,1,.765-2.768.691.691,0,0,0-.393-.994c-.278.343-.547.7-.845,1.034a18.229,18.229,0,0,1-6.306,4.955c-3.046,1.3-6.162,2.236-9.532,1.406a1.17,1.17,0,0,1-.477-.144c-.293-.244-.731-.512-.765-.815a1.333,1.333,0,0,1,.537-.984c.77-.572,1.675-.969,2.405-1.585a16.55,16.55,0,0,0,2.281-2.4,3.833,3.833,0,0,0,.616-1.65,1.027,1.027,0,0,0-.348-.9,1.225,1.225,0,0,0-1.054.2,11.32,11.32,0,0,0-1.883,2.082c-1.68,2.6-3.384,5.2-4.855,7.932a32.143,32.143,0,0,0-1.645,4.756c-.855,2.45-1.71,4.9-2.624,7.33a12.51,12.51,0,0,1-1.232,2.356,2.078,2.078,0,0,1-2.525.855,1.955,1.955,0,0,1-1.143-2.51,50.963,50.963,0,0,1,2.39-5.318c1.014-1.963,2.137-3.876,3.285-5.77a22.577,22.577,0,0,0,2.728-6.4c.562-2.306,1.242-4.582,1.734-6.967-.179.189-.348.388-.537.572-2.212,2.107-4.4,4.239-6.654,6.306a15.921,15.921,0,0,1-2.261,1.546c-.686.437-1.312.393-1.62-.065s-.129-1.068.581-1.5a39.691,39.691,0,0,0,8.329-7.325,24.888,24.888,0,0,0,4.065-5.591c.383-.755,1.029-1.034,1.392-.567a1.638,1.638,0,0,1,.243,1.247c-.616,2.47-1.3,4.92-1.963,7.38-.174.646-.318,1.3-.477,1.943.045.01.089.025.134.035ZM278.61,56.4a15.539,15.539,0,0,0-2.177,5.029C277.751,60.019,277.969,58.125,278.61,56.4Z" transform="translate(-144.111 -21.897)" fill="#4f959e"/>
      <path id="パス_2207" data-name="パス 2207" d="M165.839,33.49a2.915,2.915,0,0,1-2.062-1.242,1.177,1.177,0,0,1,.065-.989.849.849,0,0,1,.8-.273,6.579,6.579,0,0,1,1.67,1.064,1.2,1.2,0,0,1,.114.989c-.05.2-.408.328-.581.452Z" transform="translate(-88.913 -22.632)" fill="#4f959e"/>
    </g>
  </g>
</svg>
