<svg xmlns="http://www.w3.org/2000/svg" width="156.26" height="168.379" viewBox="0 0 156.26 168.379">
  <g id="Logo_DIVE" transform="translate(-13.915 -12.531)">
    <g id="グループ_388" data-name="グループ 388">
      <path id="パス_2208" data-name="パス 2208" d="M38.14,156.9a3.81,3.81,0,0,1-.31,1.64,3.1,3.1,0,0,1-.79,1.06,2.806,2.806,0,0,1-1.06.57,4.107,4.107,0,0,1-1.11.17H31.65V147.73h2.86a4.822,4.822,0,0,1,1.11.14,3.016,3.016,0,0,1,1.04.49,2.807,2.807,0,0,1,.78.94,3.339,3.339,0,0,1,.3,1.5,3.635,3.635,0,0,1-.15,1.11,2.863,2.863,0,0,1-.41.82,2.41,2.41,0,0,1-.58.57,3.3,3.3,0,0,1-.67.35v.04a2.732,2.732,0,0,1,1.45.89,3.164,3.164,0,0,1,.54.96,4.006,4.006,0,0,1,.21,1.36ZM36.56,151a2.559,2.559,0,0,0-.19-1.05,1.749,1.749,0,0,0-.5-.68,1.868,1.868,0,0,0-.7-.36,3.087,3.087,0,0,0-.8-.11H32.82v4.45H34.4a2.527,2.527,0,0,0,.77-.12,1.861,1.861,0,0,0,.69-.4,2.162,2.162,0,0,0,.5-.7,2.456,2.456,0,0,0,.2-1.03Zm.36,5.82a3.069,3.069,0,0,0-.21-1.2,2.229,2.229,0,0,0-.55-.79,2.16,2.16,0,0,0-.76-.44,2.655,2.655,0,0,0-.81-.14H32.83v5.02h1.76a3.039,3.039,0,0,0,.91-.14,1.959,1.959,0,0,0,.75-.44,2.017,2.017,0,0,0,.5-.76,3.018,3.018,0,0,0,.18-1.1Z" fill="#231815"/>
      <path id="パス_2209" data-name="パス 2209" d="M48.7,155.94a7.951,7.951,0,0,1-.21,1.9,4.841,4.841,0,0,1-.61,1.48,2.7,2.7,0,0,1-.97.96,2.489,2.489,0,0,1-1.29.34,2.428,2.428,0,0,1-1.28-.34,2.96,2.96,0,0,1-.97-.96,4.841,4.841,0,0,1-.61-1.48,7.952,7.952,0,0,1-.21-1.9,8.185,8.185,0,0,1,.21-1.92,4.853,4.853,0,0,1,.6-1.5,2.7,2.7,0,0,1,.97-.96,2.608,2.608,0,0,1,1.31-.34,2.414,2.414,0,0,1,1.29.34,2.87,2.87,0,0,1,.97.96,5.283,5.283,0,0,1,.61,1.5,8.185,8.185,0,0,1,.21,1.92Zm-1.21-.03a8.378,8.378,0,0,0-.12-1.46,4.292,4.292,0,0,0-.35-1.16,2.114,2.114,0,0,0-.58-.77,1.264,1.264,0,0,0-.83-.28,1.31,1.31,0,0,0-.84.28,2.089,2.089,0,0,0-.58.77,4.828,4.828,0,0,0-.34,1.16,8.377,8.377,0,0,0-.12,1.46,8.063,8.063,0,0,0,.12,1.44,4.88,4.88,0,0,0,.34,1.15,1.936,1.936,0,0,0,.58.77,1.369,1.369,0,0,0,.84.28,1.31,1.31,0,0,0,.84-.28,2.01,2.01,0,0,0,.58-.77,5.027,5.027,0,0,0,.34-1.15A8.063,8.063,0,0,0,47.49,155.91Z" fill="#231815"/>
      <path id="パス_2210" data-name="パス 2210" d="M59.38,155.94a7.951,7.951,0,0,1-.21,1.9,4.841,4.841,0,0,1-.61,1.48,2.7,2.7,0,0,1-.97.96,2.489,2.489,0,0,1-1.29.34,2.428,2.428,0,0,1-1.28-.34,2.96,2.96,0,0,1-.97-.96,4.841,4.841,0,0,1-.61-1.48,7.952,7.952,0,0,1-.21-1.9,8.185,8.185,0,0,1,.21-1.92,4.853,4.853,0,0,1,.6-1.5,2.7,2.7,0,0,1,.97-.96,2.608,2.608,0,0,1,1.31-.34,2.414,2.414,0,0,1,1.29.34,2.87,2.87,0,0,1,.97.96,5.283,5.283,0,0,1,.61,1.5,8.185,8.185,0,0,1,.21,1.92Zm-1.21-.03a8.378,8.378,0,0,0-.12-1.46,4.292,4.292,0,0,0-.35-1.16,2.114,2.114,0,0,0-.58-.77,1.264,1.264,0,0,0-.83-.28,1.31,1.31,0,0,0-.84.28,2.089,2.089,0,0,0-.58.77,4.828,4.828,0,0,0-.34,1.16,8.377,8.377,0,0,0-.12,1.46,8.063,8.063,0,0,0,.12,1.44,4.88,4.88,0,0,0,.34,1.15,1.936,1.936,0,0,0,.58.77,1.369,1.369,0,0,0,.84.28,1.31,1.31,0,0,0,.84-.28,2.01,2.01,0,0,0,.58-.77,5.027,5.027,0,0,0,.34-1.15A8.063,8.063,0,0,0,58.17,155.91Z" fill="#231815"/>
      <path id="パス_2211" data-name="パス 2211" d="M68.67,160.34l-3.03-4.45H65.6v4.45H64.43V146.88H65.6v8.53h.04l2.85-3.9H69.9l-3.17,4.09,3.37,4.74H68.68Z" fill="#231815"/>
      <path id="パス_2212" data-name="パス 2212" d="M86.09,157.11a4.085,4.085,0,0,1-.25,1.49,3.168,3.168,0,0,1-.69,1.1,3.069,3.069,0,0,1-1.02.69,3.273,3.273,0,0,1-1.25.24,3.905,3.905,0,0,1-1.77-.41,3.5,3.5,0,0,1-1.31-1.09l.77-.87a2.9,2.9,0,0,0,1.03.91,2.8,2.8,0,0,0,1.26.32,1.868,1.868,0,0,0,1.43-.61,2.382,2.382,0,0,0,.58-1.73,2.285,2.285,0,0,0-.18-.94,2.568,2.568,0,0,0-.48-.73,3.879,3.879,0,0,0-.69-.57,8.05,8.05,0,0,0-.81-.46,8.57,8.57,0,0,1-.98-.56,4.012,4.012,0,0,1-.81-.72,3.29,3.29,0,0,1-.56-.97,3.711,3.711,0,0,1-.21-1.31,3.931,3.931,0,0,1,.27-1.52,3.342,3.342,0,0,1,.72-1.09,2.774,2.774,0,0,1,1.02-.65,3.429,3.429,0,0,1,1.19-.21,3.987,3.987,0,0,1,1.54.29,2.773,2.773,0,0,1,1.15.92l-.77.87a2.17,2.17,0,0,0-.84-.74,2.44,2.44,0,0,0-1.05-.22,2.1,2.1,0,0,0-.74.13,1.817,1.817,0,0,0-.65.42,2.123,2.123,0,0,0-.46.73,2.816,2.816,0,0,0-.18,1.05,2.416,2.416,0,0,0,.16.93,2.257,2.257,0,0,0,.44.69,3.012,3.012,0,0,0,.64.53c.24.15.5.3.76.43q.5.255.99.57a4.213,4.213,0,0,1,.88.75,3.183,3.183,0,0,1,.62,1,3.594,3.594,0,0,1,.23,1.33Z" fill="#231815"/>
      <path id="パス_2213" data-name="パス 2213" d="M93.51,160.5a2.324,2.324,0,0,1-.59.07,1.4,1.4,0,0,1-1.31-.64,3.384,3.384,0,0,1-.38-1.71v-5.75H90.07v-.96h1.14v-2.44h1.16v2.44h1.57v.96H92.37v5.54a2.339,2.339,0,0,0,.23,1.17.756.756,0,0,0,.69.37,2.093,2.093,0,0,0,.34-.04,1.5,1.5,0,0,0,.3-.1l.05.94a2.985,2.985,0,0,1-.48.16Z" fill="#231815"/>
      <path id="パス_2214" data-name="パス 2214" d="M102.13,160.34q-.015-.135-.03-.36c-.01-.15-.01-.29-.02-.45v-.84h-.04a2.1,2.1,0,0,1-2.14,1.89,2.209,2.209,0,0,1-.75-.14,1.865,1.865,0,0,1-.68-.46,2.48,2.48,0,0,1-.5-.81,3.2,3.2,0,0,1-.2-1.18,3.044,3.044,0,0,1,.34-1.55,2.767,2.767,0,0,1,1.98-1.38,7.041,7.041,0,0,1,1.17-.12h.69v-.46a2.675,2.675,0,0,0-.43-1.69,1.4,1.4,0,0,0-1.16-.53,1.733,1.733,0,0,0-.93.27,2.622,2.622,0,0,0-.73.68l-.62-.73a2.789,2.789,0,0,1,1.07-.91,3.049,3.049,0,0,1,1.32-.32,2.175,2.175,0,0,1,1.98.91,4.842,4.842,0,0,1,.59,2.65v4.12c0,.18.01.36.02.54a4.284,4.284,0,0,0,.03.52c.02.16.02.29.04.38h-1.01Zm-.14-4.49h-.71a4.8,4.8,0,0,0-.85.08,2.053,2.053,0,0,0-.76.3,1.689,1.689,0,0,0-.54.61,2.148,2.148,0,0,0-.21,1.02,1.824,1.824,0,0,0,.41,1.33,1.25,1.25,0,0,0,.89.41,1.3,1.3,0,0,0,.85-.3,2.08,2.08,0,0,0,.55-.77,4.488,4.488,0,0,0,.29-1.02,6.623,6.623,0,0,0,.09-1.07v-.61Z" fill="#231815"/>
      <path id="パス_2215" data-name="パス 2215" d="M110.85,160.5a2.324,2.324,0,0,1-.59.07,1.4,1.4,0,0,1-1.31-.64,3.384,3.384,0,0,1-.38-1.71v-5.75h-1.16v-.96h1.14v-2.44h1.16v2.44h1.57v.96h-1.57v5.54a2.339,2.339,0,0,0,.23,1.17.756.756,0,0,0,.69.37,2.093,2.093,0,0,0,.34-.04,1.5,1.5,0,0,0,.3-.1l.05.94a2.985,2.985,0,0,1-.48.16Z" fill="#231815"/>
      <path id="パス_2216" data-name="パス 2216" d="M117.14,148.8a.854.854,0,0,1-.23.61.735.735,0,0,1-.55.24.726.726,0,0,1-.56-.24.848.848,0,0,1-.22-.61.823.823,0,0,1,.22-.6.752.752,0,0,1,1.12,0,.873.873,0,0,1,.22.6Zm-1.37,11.54v-8.83h1.17v8.83Z" fill="#231815"/>
      <path id="パス_2217" data-name="パス 2217" d="M128.16,155.94a7.952,7.952,0,0,1-.21,1.9,4.841,4.841,0,0,1-.61,1.48,2.7,2.7,0,0,1-.97.96,2.489,2.489,0,0,1-1.29.34,2.428,2.428,0,0,1-1.28-.34,2.96,2.96,0,0,1-.97-.96,4.841,4.841,0,0,1-.61-1.48,7.952,7.952,0,0,1-.21-1.9,8.185,8.185,0,0,1,.21-1.92,4.853,4.853,0,0,1,.6-1.5,2.7,2.7,0,0,1,.97-.96,2.608,2.608,0,0,1,1.31-.34,2.414,2.414,0,0,1,1.29.34,2.87,2.87,0,0,1,.97.96,5.283,5.283,0,0,1,.61,1.5,8.185,8.185,0,0,1,.21,1.92Zm-1.21-.03a8.377,8.377,0,0,0-.12-1.46,4.292,4.292,0,0,0-.35-1.16,2.114,2.114,0,0,0-.58-.77,1.264,1.264,0,0,0-.83-.28,1.31,1.31,0,0,0-.84.28,2.089,2.089,0,0,0-.58.77,4.828,4.828,0,0,0-.34,1.16,8.378,8.378,0,0,0-.12,1.46,8.063,8.063,0,0,0,.12,1.44,4.88,4.88,0,0,0,.34,1.15,1.936,1.936,0,0,0,.58.77,1.369,1.369,0,0,0,.84.28,1.31,1.31,0,0,0,.84-.28,2.01,2.01,0,0,0,.58-.77,5.027,5.027,0,0,0,.34-1.15,8.063,8.063,0,0,0,.12-1.44Z" fill="#231815"/>
      <path id="パス_2218" data-name="パス 2218" d="M137.74,160.34v-5.7a7.811,7.811,0,0,0-.04-.83,2.427,2.427,0,0,0-.2-.77,1.438,1.438,0,0,0-.43-.57,1.087,1.087,0,0,0-.72-.22,1.342,1.342,0,0,0-.79.24,2,2,0,0,0-.59.66,3.427,3.427,0,0,0-.37.96,5.216,5.216,0,0,0-.13,1.13v5.09H133.3v-7.22c0-.22-.01-.43-.02-.64s-.01-.4-.02-.57a3.292,3.292,0,0,0-.03-.4h1.14c.02.23.04.5.05.82s.02.62.02.91h.04a3.227,3.227,0,0,1,.82-1.45,1.953,1.953,0,0,1,1.42-.56,2,2,0,0,1,1.15.3,2.057,2.057,0,0,1,.67.79,3.71,3.71,0,0,1,.31,1.1,10.128,10.128,0,0,1,.08,1.22v5.7h-1.17Z" fill="#231815"/>
    </g>
    <g id="グループ_389" data-name="グループ 389">
      <path id="パス_2219" data-name="パス 2219" d="M65.23,174.05a11.418,11.418,0,0,1-.35,2.97,6.212,6.212,0,0,1-1.01,2.15,4.265,4.265,0,0,1-1.58,1.3,4.77,4.77,0,0,1-2.05.44H57.29V167.16h2.97a4.77,4.77,0,0,1,2.05.44,4.185,4.185,0,0,1,1.57,1.31,6.317,6.317,0,0,1,1,2.17,11.607,11.607,0,0,1,.35,2.98Zm-1.34,0a10.061,10.061,0,0,0-.28-2.54,5.43,5.43,0,0,0-.78-1.78,3.229,3.229,0,0,0-1.17-1.05,3.135,3.135,0,0,0-1.45-.35H58.62v11.42h1.59a3.135,3.135,0,0,0,1.45-.35,3.228,3.228,0,0,0,1.17-1.05,5.566,5.566,0,0,0,.78-1.77,9.815,9.815,0,0,0,.28-2.51Z" fill="#231815"/>
      <path id="パス_2220" data-name="パス 2220" d="M75.17,180.9V167.15h1.36V180.9Z" fill="#231815"/>
      <path id="パス_2221" data-name="パス 2221" d="M90.77,180.9H89l-3.4-13.75h1.48l2.84,12.22h.04l2.84-12.22h1.44L90.78,180.9Z" fill="#231815"/>
      <path id="パス_2222" data-name="パス 2222" d="M103.3,180.9V167.15h5.54v1.2h-4.21v4.82h3.94v1.17h-3.94v5.34h4.41v1.22h-5.73Z" fill="#231815"/>
    </g>
    <g id="グループ_391" data-name="グループ 391">
      <g id="グループ_390" data-name="グループ 390">
        <path id="パス_2223" data-name="パス 2223" d="M80.42,103.47s16.27-8.69,32.1-11.29c13.51-2.22,17.98-2.36,17.98-2.36L97.45,42.97a192.812,192.812,0,0,0-20.52,2.18C62.35,47.42,48.56,58.31,48.56,58.31l31.85,45.16Z" fill="#113e86" stroke="#113e86" stroke-linecap="round" stroke-linejoin="round" stroke-width="3"/>
        <path id="パス_2224" data-name="パス 2224" d="M80.42,103.47a9.7,9.7,0,0,0-3.77,7.23c-.31,6.25,3.77,11.73,3.77,11.73L44.7,75.78" fill="none" stroke="#113e86" stroke-linecap="round" stroke-linejoin="round" stroke-width="3"/>
        <path id="パス_2225" data-name="パス 2225" d="M80.42,122.43l54.42-9.6-4.15-3.67,3.35-3.5-4.32-3.68,3.13-2.29" fill="none" stroke="#113e86" stroke-linecap="round" stroke-linejoin="round" stroke-width="3"/>
      </g>
      <path id="パス_2226" data-name="パス 2226" d="M21.77,40.59c-.64,4.13-2.62,7.24-4.41,6.96s-2.92-.9-2.27-5.03.99-4.44,3.55-5.64C20.28,36.11,22.42,36.46,21.77,40.59Z" fill="none" stroke="#113e86" stroke-linecap="round" stroke-linejoin="round" stroke-width="2"/>
      <path id="パス_2227" data-name="パス 2227" d="M33.29,69.19c-1.39,4.66-3.25,6.95-5.82,6.55s-3.23-3.09-3.49-8a5.249,5.249,0,0,1,5.62-5.48c2.57.4,4.67,3.61,3.68,6.93Z" fill="none" stroke="#113e86" stroke-linecap="round" stroke-linejoin="round" stroke-width="2"/>
      <path id="パス_2228" data-name="パス 2228" d="M37.14,24.11c-.55,3.53-4.6,7.19-7.4,5.4-1.67-1.07-4.59-4.24-4.47-7.25.29-7.17,4.93-9.18,8.47-8.63s3.96,6.95,3.4,10.48Z" fill="none" stroke="#113e86" stroke-linecap="round" stroke-linejoin="round" stroke-width="2"/>
      <path id="パス_2229" data-name="パス 2229" d="M168.85,92.61c-1.25,5.95-4.99,9.25-8.02,8.77s-7.79-7.47-6.25-13.35c1.19-4.56,6.61-8.87,9.65-8.39s5.86,7.09,4.62,12.97Z" fill="none" stroke="#113e86" stroke-linecap="round" stroke-linejoin="round" stroke-width="2"/>
      <ellipse id="楕円形_90" data-name="楕円形 90" cx="4.16" cy="3.14" rx="4.16" ry="3.14" transform="translate(146.048 114.676) rotate(-81.12)" fill="none" stroke="#113e86" stroke-linecap="round" stroke-linejoin="round" stroke-width="2"/>
      <ellipse id="楕円形_91" data-name="楕円形 91" cx="26.92" cy="5.17" rx="26.92" ry="5.17" transform="translate(62.61 130.09)" fill="#113e86"/>
    </g>
  </g>
</svg>
