<svg id="Logo_gift" xmlns="http://www.w3.org/2000/svg" width="231.374" height="123.669" viewBox="0 0 231.374 123.669">
  <path id="パス_2262" data-name="パス 2262" d="M116.946,102.866c-.31-3.123-3.947-10.569-18.239-9.877a38.318,38.318,0,0,0-22.548,8.546c-.046.033.013.053,0,0-1.166-4.171-1.509-10.417,4.626-14.2,3.235-2,7.874-2.115,7.3-4.428-.376-1.522-3.2-3.189-7.755-1.133-5.1,2.405-8.77,6.688-8.553,13.237.184,5.443,1.753,7.755,2.01,8.1.04.059-.02.092-.046.112-16.2,11.076-18.917,19.128-20.248,25.157-1.693,7.709,1.614,14.766,7.973,16.69,6.958,2.1,17.277,1.4,26.1-5.166.066-.046.046-.066,0,0-4.481,6.3-19.1,25.164-33.637,27.911-11.636,2.2-14.6-.488-16.578-2.122-3.117-2.583-3.215-9.244.02-11.208.013,0,.02-.013.033-.013,5.093-.448,7.782-5.746,5.838-8.065-2.543-3.051-8.77.87-11.05,3.347a14.062,14.062,0,0,0-2.451,13.956c2.148,6.431,10.437,11.228,23.82,8.2a32.1,32.1,0,0,0,11.03-4.4,58.822,58.822,0,0,0,8.282-6.128c5.146-4.448,16.334-18.1,23.892-31.483.3-.527-.665-.969-1.028-.534C86.3,140.779,68.766,142.94,62.75,140.753c-5.772-2.1-7.123-7.689-4.77-15.036,2.385-7.459,12.664-17.9,16.769-20.8.026-.02-.02-.026,0,0,4.112,5.06,11.669,11.425,25.46,10.958,9.646-.329,17.4-6.312,16.73-13Zm-18.377,11.5c-9.462-.343-16.486-3.729-21.5-10.826-.02-.026-.158-.191-.132-.217,2.715-2.24,9.89-7.538,22.844-7.228,11.761.283,14.476,5.588,14.351,8.731C113.948,109.554,108.05,114.706,98.569,114.364Z" transform="translate(-28.907 -49.178)" fill="#221714"/>
  <path id="パス_2263" data-name="パス 2263" d="M178.779,124.349c2.84-.132,11.485-2.721,16.361-4.672a1.141,1.141,0,0,1,1.542.857,12.607,12.607,0,0,1,.231,2.221s-8.368,10.543-10.358,17.527c-1.259,4.408-.553,8.19,2.273,9.284,3.123,1.206,10.892-.659,15.669-4.382-2.55,3.855-9.956,8.987-15.61,8.25-6.9-.9-7.05-6.76-6.1-11.28,1.179-5.614,7.821-16.2,9.119-17.909.3-.389-2.543.474-5.7,1.107a28.044,28.044,0,0,1-7.208.725c-2.734-.461-2.431-1.674-2.431-1.674.705-.29,1.285-.013,2.214-.053Z" transform="translate(-79.268 -62.405)" fill="#221714"/>
  <path id="パス_2264" data-name="パス 2264" d="M211.235,97.644c-.428.132-.468.54-.553,1.048a3.622,3.622,0,0,0,1.766,3.229c.9.448,3.071.995,3.927-.343.8-1.265-1.641-2.1-2.438-2.6-.679-.428-1.114-1.825-2.695-1.338Z" transform="translate(-90.903 -54.881)" fill="#221714"/>
  <path id="パス_2265" data-name="パス 2265" d="M245.958,118.148c.494-1.9,2.53-1.983,2.53-.165,0,2.543,0,4.553,1.654,5.772s7.65,1.753,17.336-1.595A126.449,126.449,0,0,1,292,115.934c7.241-.995,16.347-2.445,22.686-2.629s14.773-1.245,17.58.02,2.636,5.41-.949,4.362a58.422,58.422,0,0,0-17.033-1.819c-5.159.178-17.692,1.107-22.554,1.983-5.054.916-9.837,1.766-20.993,5.818-7,2.543-15.827,4.836-20.808,3.472-5.989-1.647-3.973-8.994-3.973-8.994Z" transform="translate(-102.828 -60.058)" fill="#221714"/>
  <path id="パス_2266" data-name="パス 2266" d="M235.31,97.186c6.668-4.869,20.874-16.6,27.766-22.508,6.846-5.864,18.878-17.929,16.492-21.421-1.825-2.682-14.97,4.388-27.173,17.619a221.01,221.01,0,0,0-27.924,38.348c-3.295,5.594-14.746,22.713-21.671,30.435-4.342,4.836-8.651,9.91-14.8,13.824-5.034,3.209-10.477,5.37-15.1,5.851-13.567,1.41-20.235-3.841-23.226-8.467-4.118-6.378.626-16.123,4.942-14.259,3.67,1.581-.4,5.41-1.43,7.1C151,147.257,156,155.5,169.367,155.5c11.7,0,21.329-6.365,31.548-17.949,11.32-12.829,22.594-31.371,24.459-34.388,3.2-5.186,15.8-23.806,19.128-27.964,3.281-4.1,11.136-13.844,19.642-20.11,8.144-6,16.532-8.164,18.706-5.614,2.537,2.972-1.094,10.6-7.1,15.992C272.163,68.682,263,76.879,253.786,84.1c-8.829,6.919-14.885,11.564-18.476,13.1Z" transform="translate(-69.56 -38.128)" fill="#221714"/>
  <path id="パス_2267" data-name="パス 2267" d="M335.016,95.437c6.1-5.528,10.141-.9,4.23,2.728s-14.549,12.21-18.726,18.548-11.768,20.769-8.533,26.323c.409.7.942.738,1.707.784,3.1.184,8.019-4.665,10.1-5.027,2.616-.455,3.538,2.392-.679,4.658-2.873,1.542-9.343,5.423-12.5,2.616-3.921-3.492-1.364-13.409,2.5-21.362s13.455-21.955,21.9-29.262Z" transform="translate(-124.328 -53.294)" fill="#221714"/>
  <g id="グループ_398" data-name="グループ 398" transform="translate(0.911)">
    <path id="パス_2268" data-name="パス 2268" d="M36.925,34.553a2.564,2.564,0,0,0-.83-.145,1.574,1.574,0,0,0-.962.29,2.145,2.145,0,0,0-.619.745A3.547,3.547,0,0,0,34.2,36.49a8.169,8.169,0,0,0-.086,1.219V40.72h2.412v1.548H34.112V54.952h-1.9V42.269H30.29V40.72h1.924V37.709a6.381,6.381,0,0,1,.89-3.545A3.088,3.088,0,0,1,35.891,32.8a3.83,3.83,0,0,1,1.179.171Z" transform="translate(-30.29 -32.8)" fill="#040000"/>
    <rect id="長方形_238" data-name="長方形 238" width="1.898" height="21.698" transform="translate(13.824 0.461)" fill="#040000"/>
    <path id="パス_2269" data-name="パス 2269" d="M75.633,51.73a12.62,12.62,0,0,1-.343,3.071,8.258,8.258,0,0,1-.975,2.385,4.554,4.554,0,0,1-1.562,1.548,4.06,4.06,0,0,1-2.082.547,4,4,0,0,1-2.069-.547,4.732,4.732,0,0,1-1.562-1.548,8.016,8.016,0,0,1-.988-2.385,12.62,12.62,0,0,1-.343-3.071,13.8,13.8,0,0,1,.329-3.1A7.855,7.855,0,0,1,67,46.215a4.554,4.554,0,0,1,1.562-1.548,4.1,4.1,0,0,1,2.109-.547,4.026,4.026,0,0,1,2.082.547,4.612,4.612,0,0,1,1.562,1.548,8.206,8.206,0,0,1,.975,2.412A12.976,12.976,0,0,1,75.633,51.73Zm-1.95-.046a13.824,13.824,0,0,0-.184-2.346,7.262,7.262,0,0,0-.56-1.878A3.482,3.482,0,0,0,72,46.215a2.189,2.189,0,0,0-2.688,0,3.338,3.338,0,0,0-.936,1.245,7.834,7.834,0,0,0-.547,1.878,13.824,13.824,0,0,0-.184,2.346A13.347,13.347,0,0,0,67.832,54a7.724,7.724,0,0,0,.547,1.858,3.11,3.11,0,0,0,.936,1.245,2.287,2.287,0,0,0,2.7,0,3.235,3.235,0,0,0,.936-1.245A8.034,8.034,0,0,0,73.5,54a13.347,13.347,0,0,0,.184-2.319Z" transform="translate(-42.372 -36.661)" fill="#040000"/>
    <path id="パス_2270" data-name="パス 2270" d="M102.13,59.059H99.89l-2.412-11.57h-.026l-2.438,11.57H92.859L89.96,44.82h1.924l2.181,12.058h.026l2.5-12.058h1.838l2.524,12.058h.026l2.181-12.058h1.924l-2.958,14.239Z" transform="translate(-50.643 -36.9)" fill="#040000"/>
    <path id="パス_2271" data-name="パス 2271" d="M124,52.106a10.584,10.584,0,0,0,.2,2.168,6.35,6.35,0,0,0,.593,1.72,3.177,3.177,0,0,0,.982,1.146,2.379,2.379,0,0,0,1.4.415,2.266,2.266,0,0,0,1.674-.633,4.361,4.361,0,0,0,.982-1.522l1.436.83a5.5,5.5,0,0,1-1.535,2.168,3.835,3.835,0,0,1-2.6.876,4.2,4.2,0,0,1-3.7-2.01,9.992,9.992,0,0,1-1.318-5.541,12.85,12.85,0,0,1,.343-3.07,8.039,8.039,0,0,1,.988-2.412,4.75,4.75,0,0,1,1.575-1.562,4.267,4.267,0,0,1,4.2-.013,4.18,4.18,0,0,1,1.417,1.5,7.05,7.05,0,0,1,.784,2.207,14.058,14.058,0,0,1,.244,2.7v1.034h-7.663Zm5.772-1.581a7.678,7.678,0,0,0-.665-3.459,2.185,2.185,0,0,0-2.076-1.3,2.008,2.008,0,0,0-1.4.5,3.954,3.954,0,0,0-.922,1.232,6.22,6.22,0,0,0-.521,1.562,7.935,7.935,0,0,0-.158,1.463h5.739Z" transform="translate(-61.613 -36.661)" fill="#040000"/>
    <path id="パス_2272" data-name="パス 2272" d="M151.182,45.01a2.612,2.612,0,0,1,1.9-.83,1.489,1.489,0,0,1,.343.026l-.059,1.95a1.532,1.532,0,0,0-.217-.04c-.066-.007-.152-.013-.244-.013a1.9,1.9,0,0,0-1.278.488,3.817,3.817,0,0,0-.936,1.265,7.119,7.119,0,0,0-.56,1.766,10.529,10.529,0,0,0-.184,1.964v7.261h-1.9V48.2c0-.3,0-.639-.013-.988s-.02-.7-.026-1.034-.02-.639-.026-.916-.026-.494-.04-.646h1.838c.04.362.066.817.086,1.364s.026,1.127.026,1.74h.059a5.383,5.383,0,0,1,1.232-2.695Z" transform="translate(-70.42 -36.682)" fill="#040000"/>
    <path id="パス_2273" data-name="パス 2273" d="M189.948,51.734a15.019,15.019,0,0,1-.29,3.044,8.2,8.2,0,0,1-.863,2.385,4.508,4.508,0,0,1-1.4,1.562,3.442,3.442,0,0,1-1.95.56,3.1,3.1,0,0,1-2.168-.8,4.224,4.224,0,0,1-1.219-2.1h-.026v9.33h-1.9V44.591h1.838v2.557h.059a4.89,4.89,0,0,1,1.147-2.168,2.966,2.966,0,0,1,2.267-.85,3.345,3.345,0,0,1,1.911.573,4.681,4.681,0,0,1,1.423,1.581,8.538,8.538,0,0,1,.876,2.4,14.7,14.7,0,0,1,.3,3.057ZM188,51.674a15.012,15.012,0,0,0-.171-2.313,6.929,6.929,0,0,0-.547-1.878,3.564,3.564,0,0,0-.936-1.265,2.061,2.061,0,0,0-1.338-.461,2.026,2.026,0,0,0-1.338.461,3.548,3.548,0,0,0-.949,1.265,7.236,7.236,0,0,0-.573,1.878,13.483,13.483,0,0,0-.185,2.313,14.013,14.013,0,0,0,.185,2.352,7.005,7.005,0,0,0,.573,1.878,3.534,3.534,0,0,0,.962,1.245,2.035,2.035,0,0,0,1.318.461,2.075,2.075,0,0,0,1.338-.461,3.542,3.542,0,0,0,.936-1.245,6.953,6.953,0,0,0,.547-1.878,15.415,15.415,0,0,0,.171-2.352Z" transform="translate(-81.399 -36.665)" fill="#040000"/>
    <path id="パス_2274" data-name="パス 2274" d="M206.53,55.2V33.5h1.9V55.2Z" transform="translate(-90.404 -33.039)" fill="#040000"/>
    <path id="パス_2275" data-name="パス 2275" d="M227.641,58.824c-.02-.152-.033-.343-.046-.573s-.02-.474-.026-.731-.013-.507-.013-.745v-.619H227.5q-.722,3.044-3.446,3.044a3.4,3.4,0,0,1-1.206-.231,2.972,2.972,0,0,1-1.094-.745,4.1,4.1,0,0,1-.8-1.3,5.131,5.131,0,0,1-.316-1.911,4.993,4.993,0,0,1,.547-2.5,4.376,4.376,0,0,1,1.377-1.5,4.97,4.97,0,0,1,1.825-.731,10.059,10.059,0,0,1,1.878-.184h1.12v-.745a4.342,4.342,0,0,0-.692-2.728,2.268,2.268,0,0,0-1.865-.863,2.815,2.815,0,0,0-1.5.428,4.334,4.334,0,0,0-1.179,1.094l-1-1.179a4.412,4.412,0,0,1,1.72-1.463,4.829,4.829,0,0,1,2.122-.514,3.5,3.5,0,0,1,3.182,1.463,7.911,7.911,0,0,1,.949,4.276v5.91c0,.191,0,.428.013.718s.02.58.026.876.026.573.046.83.04.461.059.619h-1.634Zm-.231-7.235h-1.146a6.964,6.964,0,0,0-1.377.132,3.337,3.337,0,0,0-1.219.488,2.73,2.73,0,0,0-.876.988,3.4,3.4,0,0,0-.343,1.634,2.959,2.959,0,0,0,.659,2.155,1.994,1.994,0,0,0,1.436.659,2.048,2.048,0,0,0,1.364-.488,3.41,3.41,0,0,0,.89-1.232,6.845,6.845,0,0,0,.474-1.634,11.217,11.217,0,0,0,.145-1.72V51.6Z" transform="translate(-95.214 -36.665)" fill="#040000"/>
    <path id="パス_2276" data-name="パス 2276" d="M249.509,59.285a3.97,3.97,0,0,1-2.122-.56,4.663,4.663,0,0,1-1.535-1.548,7.773,7.773,0,0,1-.936-2.385,15.191,15.191,0,0,1,0-6.167,7.669,7.669,0,0,1,.949-2.4,4.577,4.577,0,0,1,1.548-1.548,4.085,4.085,0,0,1,2.122-.547,3.976,3.976,0,0,1,1.865.4,4.023,4.023,0,0,1,1.232.949l-1,1.377a2.571,2.571,0,0,0-.863-.778,2.437,2.437,0,0,0-1.206-.29,2.1,2.1,0,0,0-1.338.448,3.372,3.372,0,0,0-.936,1.232,7.235,7.235,0,0,0-.56,1.865,13.842,13.842,0,0,0-.185,2.365,13.316,13.316,0,0,0,.185,2.326,7.105,7.105,0,0,0,.56,1.838,3.177,3.177,0,0,0,.962,1.206,2.265,2.265,0,0,0,1.39.428,2.423,2.423,0,0,0,1.245-.3,2.637,2.637,0,0,0,.9-.85l.863,1.463a3.792,3.792,0,0,1-3.156,1.463Z" transform="translate(-103.39 -36.665)" fill="#040000"/>
    <path id="パス_2277" data-name="パス 2277" d="M267.234,52.106a10.581,10.581,0,0,0,.2,2.168,6.348,6.348,0,0,0,.593,1.72,3.177,3.177,0,0,0,.982,1.146,2.379,2.379,0,0,0,1.4.415,2.266,2.266,0,0,0,1.674-.633,4.361,4.361,0,0,0,.982-1.522l1.436.83a5.5,5.5,0,0,1-1.535,2.168,3.835,3.835,0,0,1-2.6.876,4.2,4.2,0,0,1-3.7-2.01,9.992,9.992,0,0,1-1.318-5.541,12.852,12.852,0,0,1,.343-3.07,8.041,8.041,0,0,1,.988-2.412,4.751,4.751,0,0,1,1.575-1.562,3.922,3.922,0,0,1,2.076-.56,3.985,3.985,0,0,1,2.135.547,4.18,4.18,0,0,1,1.417,1.5,7.051,7.051,0,0,1,.784,2.207,14.06,14.06,0,0,1,.244,2.7v1.034h-7.663Zm5.772-1.581a7.678,7.678,0,0,0-.665-3.459,2.185,2.185,0,0,0-2.076-1.3,2.008,2.008,0,0,0-1.4.5,3.954,3.954,0,0,0-.922,1.232,6.221,6.221,0,0,0-.521,1.562,7.937,7.937,0,0,0-.158,1.463h5.739Z" transform="translate(-110.467 -36.661)" fill="#040000"/>
  </g>
</svg>
