<svg xmlns="http://www.w3.org/2000/svg" width="28" height="28" viewBox="0 0 28 28">
  <g id="Instagram" transform="translate(0.25 0.25)">
    <path id="パス_185" data-name="パス 185" d="M14.75,3.5c3.662,0,4.087,0,5.537.087a7.75,7.75,0,0,1,2.5.462,4.512,4.512,0,0,1,1.575,1.025,4.45,4.45,0,0,1,1.025,1.587,7.5,7.5,0,0,1,.475,2.5A50.076,50.076,0,0,1,26,14.75c0,3.662,0,4.1-.075,5.537a7.662,7.662,0,0,1-.475,2.5,4.587,4.587,0,0,1-2.6,2.6,7.663,7.663,0,0,1-2.5.475,50.351,50.351,0,0,1-5.6.138c-3.662,0-4.087,0-5.537-.075a7.5,7.5,0,0,1-2.5-.475,4.45,4.45,0,0,1-1.587-1.025A4.4,4.4,0,0,1,4.1,22.85a7.425,7.425,0,0,1-.462-2.5,50.487,50.487,0,0,1-.137-5.6c0-3.662,0-4.087.087-5.537a7.425,7.425,0,0,1,.462-2.5A4.513,4.513,0,0,1,5.075,5.137,4.45,4.45,0,0,1,6.662,4.112a7.5,7.5,0,0,1,2.5-.475A50.076,50.076,0,0,1,14.75,3.5m0-2.5C11,1,10.562,1,9.1,1.075a10.3,10.3,0,0,0-3.325.637A6.7,6.7,0,0,0,3.35,3.35,6.812,6.812,0,0,0,1.762,5.775,10.3,10.3,0,0,0,1.125,9.1C1.062,10.562,1,11,1,14.75s0,4.187.075,5.65a10.225,10.225,0,0,0,.637,3.325A6.7,6.7,0,0,0,3.3,26.15a6.7,6.7,0,0,0,2.425,1.587,9.912,9.912,0,0,0,3.325.637,56.922,56.922,0,0,0,5.7.125c3.75,0,4.187,0,5.65-.075a10,10,0,0,0,3.325-.637,7.012,7.012,0,0,0,4.012-4.012,10.225,10.225,0,0,0,.637-3.325,56.921,56.921,0,0,0,.125-5.7c0-3.75,0-4.187-.075-5.65a10.3,10.3,0,0,0-.637-3.325A6.7,6.7,0,0,0,26.2,3.35a6.512,6.512,0,0,0-2.425-1.575,10,10,0,0,0-3.325-.65C18.937,1.062,18.5,1,14.75,1Z" transform="translate(-1 -1)" fill="#202222" stroke="#202222" stroke-miterlimit="10" stroke-width="0.5"/>
    <path id="パス_186" data-name="パス 186" d="M13.407,6.37a7.037,7.037,0,1,0,7.037,7.037h0A7.037,7.037,0,0,0,13.407,6.37Zm0,11.612a4.575,4.575,0,1,1,4.575-4.575h0A4.575,4.575,0,0,1,13.407,17.982Z" transform="translate(0.342 0.342)" fill="#202222" stroke="#202222" stroke-miterlimit="10" stroke-width="0.5"/>
    <ellipse id="楕円形_6" data-name="楕円形 6" cx="1.65" cy="1.65" rx="1.65" ry="1.65" transform="translate(19.412 4.787)" fill="#202222" stroke="#202222" stroke-miterlimit="10" stroke-width="0.5"/>
  </g>
</svg>
